G04*
G04 #@! TF.GenerationSoftware,Altium Limited,Altium Designer,20.2.6 (244)*
G04*
G04 Layer_Color=2752767*
%FSLAX25Y25*%
%MOIN*%
G70*
G04*
G04 #@! TF.SameCoordinates,FC4913F0-8007-4352-998A-4485FB7E878D*
G04*
G04*
G04 #@! TF.FilePolarity,Positive*
G04*
G01*
G75*
%ADD87C,0.00200*%
%ADD88C,0.00267*%
D87*
X356001Y168708D02*
Y170308D01*
X357601D01*
Y168708D01*
X356001D01*
X356801Y134692D02*
X356001Y136292D01*
X357601D01*
X356801Y134692D01*
X356501Y222208D02*
Y223808D01*
X358101D01*
Y222208D01*
X356501D01*
X357301Y188192D02*
X356501Y189792D01*
X358101D01*
X357301Y188192D01*
X356500Y95700D02*
X356900Y96100D01*
X357300D01*
X356900Y96500D01*
X357300Y96900D01*
X356900D01*
X356500Y97300D01*
X356100Y96900D01*
X355700D01*
X356100Y96500D01*
X355700Y96100D01*
X356100D01*
X356500Y95700D01*
Y105700D02*
X356900Y106100D01*
X357300D01*
X356900Y106500D01*
X357300Y106900D01*
X356900D01*
X356500Y107300D01*
X356100Y106900D01*
X355700D01*
X356100Y106500D01*
X355700Y106100D01*
X356100D01*
X356500Y105700D01*
X346500Y95700D02*
X346900Y96100D01*
X347300D01*
X346900Y96500D01*
X347300Y96900D01*
X346900D01*
X346500Y97300D01*
X346100Y96900D01*
X345700D01*
X346100Y96500D01*
X345700Y96100D01*
X346100D01*
X346500Y95700D01*
Y105700D02*
X346900Y106100D01*
X347300D01*
X346900Y106500D01*
X347300Y106900D01*
X346900D01*
X346500Y107300D01*
X346100Y106900D01*
X345700D01*
X346100Y106500D01*
X345700Y106100D01*
X346100D01*
X346500Y105700D01*
X336500Y95700D02*
X336900Y96100D01*
X337300D01*
X336900Y96500D01*
X337300Y96900D01*
X336900D01*
X336500Y97300D01*
X336100Y96900D01*
X335700D01*
X336100Y96500D01*
X335700Y96100D01*
X336100D01*
X336500Y95700D01*
Y105700D02*
X336900Y106100D01*
X337300D01*
X336900Y106500D01*
X337300Y106900D01*
X336900D01*
X336500Y107300D01*
X336100Y106900D01*
X335700D01*
X336100Y106500D01*
X335700Y106100D01*
X336100D01*
X336500Y105700D01*
X326500Y95700D02*
X326900Y96100D01*
X327300D01*
X326900Y96500D01*
X327300Y96900D01*
X326900D01*
X326500Y97300D01*
X326100Y96900D01*
X325700D01*
X326100Y96500D01*
X325700Y96100D01*
X326100D01*
X326500Y95700D01*
Y105700D02*
X326900Y106100D01*
X327300D01*
X326900Y106500D01*
X327300Y106900D01*
X326900D01*
X326500Y107300D01*
X326100Y106900D01*
X325700D01*
X326100Y106500D01*
X325700Y106100D01*
X326100D01*
X326500Y105700D01*
X316500Y95700D02*
X316900Y96100D01*
X317300D01*
X316900Y96500D01*
X317300Y96900D01*
X316900D01*
X316500Y97300D01*
X316100Y96900D01*
X315700D01*
X316100Y96500D01*
X315700Y96100D01*
X316100D01*
X316500Y95700D01*
Y105700D02*
X316900Y106100D01*
X317300D01*
X316900Y106500D01*
X317300Y106900D01*
X316900D01*
X316500Y107300D01*
X316100Y106900D01*
X315700D01*
X316100Y106500D01*
X315700Y106100D01*
X316100D01*
X316500Y105700D01*
X306500Y95700D02*
X306900Y96100D01*
X307300D01*
X306900Y96500D01*
X307300Y96900D01*
X306900D01*
X306500Y97300D01*
X306100Y96900D01*
X305700D01*
X306100Y96500D01*
X305700Y96100D01*
X306100D01*
X306500Y95700D01*
Y105700D02*
X306900Y106100D01*
X307300D01*
X306900Y106500D01*
X307300Y106900D01*
X306900D01*
X306500Y107300D01*
X306100Y106900D01*
X305700D01*
X306100Y106500D01*
X305700Y106100D01*
X306100D01*
X306500Y105700D01*
X296500Y95700D02*
X296900Y96100D01*
X297300D01*
X296900Y96500D01*
X297300Y96900D01*
X296900D01*
X296500Y97300D01*
X296100Y96900D01*
X295700D01*
X296100Y96500D01*
X295700Y96100D01*
X296100D01*
X296500Y95700D01*
Y105700D02*
X296900Y106100D01*
X297300D01*
X296900Y106500D01*
X297300Y106900D01*
X296900D01*
X296500Y107300D01*
X296100Y106900D01*
X295700D01*
X296100Y106500D01*
X295700Y106100D01*
X296100D01*
X296500Y105700D01*
X286500Y95700D02*
X286900Y96100D01*
X287300D01*
X286900Y96500D01*
X287300Y96900D01*
X286900D01*
X286500Y97300D01*
X286100Y96900D01*
X285700D01*
X286100Y96500D01*
X285700Y96100D01*
X286100D01*
X286500Y95700D01*
Y105700D02*
X286900Y106100D01*
X287300D01*
X286900Y106500D01*
X287300Y106900D01*
X286900D01*
X286500Y107300D01*
X286100Y106900D01*
X285700D01*
X286100Y106500D01*
X285700Y106100D01*
X286100D01*
X286500Y105700D01*
X276500Y95700D02*
X276900Y96100D01*
X277300D01*
X276900Y96500D01*
X277300Y96900D01*
X276900D01*
X276500Y97300D01*
X276100Y96900D01*
X275700D01*
X276100Y96500D01*
X275700Y96100D01*
X276100D01*
X276500Y95700D01*
Y105700D02*
X276900Y106100D01*
X277300D01*
X276900Y106500D01*
X277300Y106900D01*
X276900D01*
X276500Y107300D01*
X276100Y106900D01*
X275700D01*
X276100Y106500D01*
X275700Y106100D01*
X276100D01*
X276500Y105700D01*
X266500Y95700D02*
X266900Y96100D01*
X267300D01*
X266900Y96500D01*
X267300Y96900D01*
X266900D01*
X266500Y97300D01*
X266100Y96900D01*
X265700D01*
X266100Y96500D01*
X265700Y96100D01*
X266100D01*
X266500Y95700D01*
Y105700D02*
X266900Y106100D01*
X267300D01*
X266900Y106500D01*
X267300Y106900D01*
X266900D01*
X266500Y107300D01*
X266100Y106900D01*
X265700D01*
X266100Y106500D01*
X265700Y106100D01*
X266100D01*
X266500Y105700D01*
X256500Y95700D02*
X256900Y96100D01*
X257300D01*
X256900Y96500D01*
X257300Y96900D01*
X256900D01*
X256500Y97300D01*
X256100Y96900D01*
X255700D01*
X256100Y96500D01*
X255700Y96100D01*
X256100D01*
X256500Y95700D01*
Y105700D02*
X256900Y106100D01*
X257300D01*
X256900Y106500D01*
X257300Y106900D01*
X256900D01*
X256500Y107300D01*
X256100Y106900D01*
X255700D01*
X256100Y106500D01*
X255700Y106100D01*
X256100D01*
X256500Y105700D01*
X246500Y95700D02*
X246900Y96100D01*
X247300D01*
X246900Y96500D01*
X247300Y96900D01*
X246900D01*
X246500Y97300D01*
X246100Y96900D01*
X245700D01*
X246100Y96500D01*
X245700Y96100D01*
X246100D01*
X246500Y95700D01*
Y105700D02*
X246900Y106100D01*
X247300D01*
X246900Y106500D01*
X247300Y106900D01*
X246900D01*
X246500Y107300D01*
X246100Y106900D01*
X245700D01*
X246100Y106500D01*
X245700Y106100D01*
X246100D01*
X246500Y105700D01*
X236500Y95700D02*
X236900Y96100D01*
X237300D01*
X236900Y96500D01*
X237300Y96900D01*
X236900D01*
X236500Y97300D01*
X236100Y96900D01*
X235700D01*
X236100Y96500D01*
X235700Y96100D01*
X236100D01*
X236500Y95700D01*
Y105700D02*
X236900Y106100D01*
X237300D01*
X236900Y106500D01*
X237300Y106900D01*
X236900D01*
X236500Y107300D01*
X236100Y106900D01*
X235700D01*
X236100Y106500D01*
X235700Y106100D01*
X236100D01*
X236500Y105700D01*
X226500Y95700D02*
X226900Y96100D01*
X227300D01*
X226900Y96500D01*
X227300Y96900D01*
X226900D01*
X226500Y97300D01*
X226100Y96900D01*
X225700D01*
X226100Y96500D01*
X225700Y96100D01*
X226100D01*
X226500Y95700D01*
Y105700D02*
X226900Y106100D01*
X227300D01*
X226900Y106500D01*
X227300Y106900D01*
X226900D01*
X226500Y107300D01*
X226100Y106900D01*
X225700D01*
X226100Y106500D01*
X225700Y106100D01*
X226100D01*
X226500Y105700D01*
X216500Y95700D02*
X216900Y96100D01*
X217300D01*
X216900Y96500D01*
X217300Y96900D01*
X216900D01*
X216500Y97300D01*
X216100Y96900D01*
X215700D01*
X216100Y96500D01*
X215700Y96100D01*
X216100D01*
X216500Y95700D01*
Y105700D02*
X216900Y106100D01*
X217300D01*
X216900Y106500D01*
X217300Y106900D01*
X216900D01*
X216500Y107300D01*
X216100Y106900D01*
X215700D01*
X216100Y106500D01*
X215700Y106100D01*
X216100D01*
X216500Y105700D01*
X206500Y95700D02*
X206900Y96100D01*
X207300D01*
X206900Y96500D01*
X207300Y96900D01*
X206900D01*
X206500Y97300D01*
X206100Y96900D01*
X205700D01*
X206100Y96500D01*
X205700Y96100D01*
X206100D01*
X206500Y95700D01*
Y105700D02*
X206900Y106100D01*
X207300D01*
X206900Y106500D01*
X207300Y106900D01*
X206900D01*
X206500Y107300D01*
X206100Y106900D01*
X205700D01*
X206100Y106500D01*
X205700Y106100D01*
X206100D01*
X206500Y105700D01*
X196500Y95700D02*
X196900Y96100D01*
X197300D01*
X196900Y96500D01*
X197300Y96900D01*
X196900D01*
X196500Y97300D01*
X196100Y96900D01*
X195700D01*
X196100Y96500D01*
X195700Y96100D01*
X196100D01*
X196500Y95700D01*
Y105700D02*
X196900Y106100D01*
X197300D01*
X196900Y106500D01*
X197300Y106900D01*
X196900D01*
X196500Y107300D01*
X196100Y106900D01*
X195700D01*
X196100Y106500D01*
X195700Y106100D01*
X196100D01*
X196500Y105700D01*
X186500Y95700D02*
X186900Y96100D01*
X187300D01*
X186900Y96500D01*
X187300Y96900D01*
X186900D01*
X186500Y97300D01*
X186100Y96900D01*
X185700D01*
X186100Y96500D01*
X185700Y96100D01*
X186100D01*
X186500Y95700D01*
Y105700D02*
X186900Y106100D01*
X187300D01*
X186900Y106500D01*
X187300Y106900D01*
X186900D01*
X186500Y107300D01*
X186100Y106900D01*
X185700D01*
X186100Y106500D01*
X185700Y106100D01*
X186100D01*
X186500Y105700D01*
X176500Y95700D02*
X176900Y96100D01*
X177300D01*
X176900Y96500D01*
X177300Y96900D01*
X176900D01*
X176500Y97300D01*
X176100Y96900D01*
X175700D01*
X176100Y96500D01*
X175700Y96100D01*
X176100D01*
X176500Y95700D01*
Y105700D02*
X176900Y106100D01*
X177300D01*
X176900Y106500D01*
X177300Y106900D01*
X176900D01*
X176500Y107300D01*
X176100Y106900D01*
X175700D01*
X176100Y106500D01*
X175700Y106100D01*
X176100D01*
X176500Y105700D01*
X166500Y95700D02*
X166900Y96100D01*
X167300D01*
X166900Y96500D01*
X167300Y96900D01*
X166900D01*
X166500Y97300D01*
X166100Y96900D01*
X165700D01*
X166100Y96500D01*
X165700Y96100D01*
X166100D01*
X166500Y95700D01*
Y105700D02*
X166900Y106100D01*
X167300D01*
X166900Y106500D01*
X167300Y106900D01*
X166900D01*
X166500Y107300D01*
X166100Y106900D01*
X165700D01*
X166100Y106500D01*
X165700Y106100D01*
X166100D01*
X166500Y105700D01*
X156500D02*
X156900Y106100D01*
X157300D01*
X156900Y106500D01*
X157300Y106900D01*
X156900D01*
X156500Y107300D01*
X156100Y106900D01*
X155700D01*
X156100Y106500D01*
X155700Y106100D01*
X156100D01*
X156500Y105700D01*
Y95700D02*
X156900Y96100D01*
X157300D01*
X156900Y96500D01*
X157300Y96900D01*
X156900D01*
X156500Y97300D01*
X156100Y96900D01*
X155700D01*
X156100Y96500D01*
X155700Y96100D01*
X156100D01*
X156500Y95700D01*
X146500Y105700D02*
X146900Y106100D01*
X147300D01*
X146900Y106500D01*
X147300Y106900D01*
X146900D01*
X146500Y107300D01*
X146100Y106900D01*
X145700D01*
X146100Y106500D01*
X145700Y106100D01*
X146100D01*
X146500Y105700D01*
Y95700D02*
X146900Y96100D01*
X147300D01*
X146900Y96500D01*
X147300Y96900D01*
X146900D01*
X146500Y97300D01*
X146100Y96900D01*
X145700D01*
X146100Y96500D01*
X145700Y96100D01*
X146100D01*
X146500Y95700D01*
Y245200D02*
X146900Y245600D01*
X147300D01*
X146900Y246000D01*
X147300Y246400D01*
X146900D01*
X146500Y246800D01*
X146100Y246400D01*
X145700D01*
X146100Y246000D01*
X145700Y245600D01*
X146100D01*
X146500Y245200D01*
Y255200D02*
X146900Y255600D01*
X147300D01*
X146900Y256000D01*
X147300Y256400D01*
X146900D01*
X146500Y256800D01*
X146100Y256400D01*
X145700D01*
X146100Y256000D01*
X145700Y255600D01*
X146100D01*
X146500Y255200D01*
X156500Y245200D02*
X156900Y245600D01*
X157300D01*
X156900Y246000D01*
X157300Y246400D01*
X156900D01*
X156500Y246800D01*
X156100Y246400D01*
X155700D01*
X156100Y246000D01*
X155700Y245600D01*
X156100D01*
X156500Y245200D01*
Y255200D02*
X156900Y255600D01*
X157300D01*
X156900Y256000D01*
X157300Y256400D01*
X156900D01*
X156500Y256800D01*
X156100Y256400D01*
X155700D01*
X156100Y256000D01*
X155700Y255600D01*
X156100D01*
X156500Y255200D01*
X166500D02*
X166900Y255600D01*
X167300D01*
X166900Y256000D01*
X167300Y256400D01*
X166900D01*
X166500Y256800D01*
X166100Y256400D01*
X165700D01*
X166100Y256000D01*
X165700Y255600D01*
X166100D01*
X166500Y255200D01*
Y245200D02*
X166900Y245600D01*
X167300D01*
X166900Y246000D01*
X167300Y246400D01*
X166900D01*
X166500Y246800D01*
X166100Y246400D01*
X165700D01*
X166100Y246000D01*
X165700Y245600D01*
X166100D01*
X166500Y245200D01*
X176500Y255200D02*
X176900Y255600D01*
X177300D01*
X176900Y256000D01*
X177300Y256400D01*
X176900D01*
X176500Y256800D01*
X176100Y256400D01*
X175700D01*
X176100Y256000D01*
X175700Y255600D01*
X176100D01*
X176500Y255200D01*
Y245200D02*
X176900Y245600D01*
X177300D01*
X176900Y246000D01*
X177300Y246400D01*
X176900D01*
X176500Y246800D01*
X176100Y246400D01*
X175700D01*
X176100Y246000D01*
X175700Y245600D01*
X176100D01*
X176500Y245200D01*
X186500Y255200D02*
X186900Y255600D01*
X187300D01*
X186900Y256000D01*
X187300Y256400D01*
X186900D01*
X186500Y256800D01*
X186100Y256400D01*
X185700D01*
X186100Y256000D01*
X185700Y255600D01*
X186100D01*
X186500Y255200D01*
Y245200D02*
X186900Y245600D01*
X187300D01*
X186900Y246000D01*
X187300Y246400D01*
X186900D01*
X186500Y246800D01*
X186100Y246400D01*
X185700D01*
X186100Y246000D01*
X185700Y245600D01*
X186100D01*
X186500Y245200D01*
X196500Y255200D02*
X196900Y255600D01*
X197300D01*
X196900Y256000D01*
X197300Y256400D01*
X196900D01*
X196500Y256800D01*
X196100Y256400D01*
X195700D01*
X196100Y256000D01*
X195700Y255600D01*
X196100D01*
X196500Y255200D01*
Y245200D02*
X196900Y245600D01*
X197300D01*
X196900Y246000D01*
X197300Y246400D01*
X196900D01*
X196500Y246800D01*
X196100Y246400D01*
X195700D01*
X196100Y246000D01*
X195700Y245600D01*
X196100D01*
X196500Y245200D01*
X206500Y255200D02*
X206900Y255600D01*
X207300D01*
X206900Y256000D01*
X207300Y256400D01*
X206900D01*
X206500Y256800D01*
X206100Y256400D01*
X205700D01*
X206100Y256000D01*
X205700Y255600D01*
X206100D01*
X206500Y255200D01*
Y245200D02*
X206900Y245600D01*
X207300D01*
X206900Y246000D01*
X207300Y246400D01*
X206900D01*
X206500Y246800D01*
X206100Y246400D01*
X205700D01*
X206100Y246000D01*
X205700Y245600D01*
X206100D01*
X206500Y245200D01*
X216500Y255200D02*
X216900Y255600D01*
X217300D01*
X216900Y256000D01*
X217300Y256400D01*
X216900D01*
X216500Y256800D01*
X216100Y256400D01*
X215700D01*
X216100Y256000D01*
X215700Y255600D01*
X216100D01*
X216500Y255200D01*
Y245200D02*
X216900Y245600D01*
X217300D01*
X216900Y246000D01*
X217300Y246400D01*
X216900D01*
X216500Y246800D01*
X216100Y246400D01*
X215700D01*
X216100Y246000D01*
X215700Y245600D01*
X216100D01*
X216500Y245200D01*
X226500Y255200D02*
X226900Y255600D01*
X227300D01*
X226900Y256000D01*
X227300Y256400D01*
X226900D01*
X226500Y256800D01*
X226100Y256400D01*
X225700D01*
X226100Y256000D01*
X225700Y255600D01*
X226100D01*
X226500Y255200D01*
Y245200D02*
X226900Y245600D01*
X227300D01*
X226900Y246000D01*
X227300Y246400D01*
X226900D01*
X226500Y246800D01*
X226100Y246400D01*
X225700D01*
X226100Y246000D01*
X225700Y245600D01*
X226100D01*
X226500Y245200D01*
X236500Y255200D02*
X236900Y255600D01*
X237300D01*
X236900Y256000D01*
X237300Y256400D01*
X236900D01*
X236500Y256800D01*
X236100Y256400D01*
X235700D01*
X236100Y256000D01*
X235700Y255600D01*
X236100D01*
X236500Y255200D01*
Y245200D02*
X236900Y245600D01*
X237300D01*
X236900Y246000D01*
X237300Y246400D01*
X236900D01*
X236500Y246800D01*
X236100Y246400D01*
X235700D01*
X236100Y246000D01*
X235700Y245600D01*
X236100D01*
X236500Y245200D01*
X246500Y255200D02*
X246900Y255600D01*
X247300D01*
X246900Y256000D01*
X247300Y256400D01*
X246900D01*
X246500Y256800D01*
X246100Y256400D01*
X245700D01*
X246100Y256000D01*
X245700Y255600D01*
X246100D01*
X246500Y255200D01*
Y245200D02*
X246900Y245600D01*
X247300D01*
X246900Y246000D01*
X247300Y246400D01*
X246900D01*
X246500Y246800D01*
X246100Y246400D01*
X245700D01*
X246100Y246000D01*
X245700Y245600D01*
X246100D01*
X246500Y245200D01*
X256500Y255200D02*
X256900Y255600D01*
X257300D01*
X256900Y256000D01*
X257300Y256400D01*
X256900D01*
X256500Y256800D01*
X256100Y256400D01*
X255700D01*
X256100Y256000D01*
X255700Y255600D01*
X256100D01*
X256500Y255200D01*
Y245200D02*
X256900Y245600D01*
X257300D01*
X256900Y246000D01*
X257300Y246400D01*
X256900D01*
X256500Y246800D01*
X256100Y246400D01*
X255700D01*
X256100Y246000D01*
X255700Y245600D01*
X256100D01*
X256500Y245200D01*
X266500Y255200D02*
X266900Y255600D01*
X267300D01*
X266900Y256000D01*
X267300Y256400D01*
X266900D01*
X266500Y256800D01*
X266100Y256400D01*
X265700D01*
X266100Y256000D01*
X265700Y255600D01*
X266100D01*
X266500Y255200D01*
Y245200D02*
X266900Y245600D01*
X267300D01*
X266900Y246000D01*
X267300Y246400D01*
X266900D01*
X266500Y246800D01*
X266100Y246400D01*
X265700D01*
X266100Y246000D01*
X265700Y245600D01*
X266100D01*
X266500Y245200D01*
X276500Y255200D02*
X276900Y255600D01*
X277300D01*
X276900Y256000D01*
X277300Y256400D01*
X276900D01*
X276500Y256800D01*
X276100Y256400D01*
X275700D01*
X276100Y256000D01*
X275700Y255600D01*
X276100D01*
X276500Y255200D01*
Y245200D02*
X276900Y245600D01*
X277300D01*
X276900Y246000D01*
X277300Y246400D01*
X276900D01*
X276500Y246800D01*
X276100Y246400D01*
X275700D01*
X276100Y246000D01*
X275700Y245600D01*
X276100D01*
X276500Y245200D01*
X286500Y255200D02*
X286900Y255600D01*
X287300D01*
X286900Y256000D01*
X287300Y256400D01*
X286900D01*
X286500Y256800D01*
X286100Y256400D01*
X285700D01*
X286100Y256000D01*
X285700Y255600D01*
X286100D01*
X286500Y255200D01*
Y245200D02*
X286900Y245600D01*
X287300D01*
X286900Y246000D01*
X287300Y246400D01*
X286900D01*
X286500Y246800D01*
X286100Y246400D01*
X285700D01*
X286100Y246000D01*
X285700Y245600D01*
X286100D01*
X286500Y245200D01*
X296500Y255200D02*
X296900Y255600D01*
X297300D01*
X296900Y256000D01*
X297300Y256400D01*
X296900D01*
X296500Y256800D01*
X296100Y256400D01*
X295700D01*
X296100Y256000D01*
X295700Y255600D01*
X296100D01*
X296500Y255200D01*
Y245200D02*
X296900Y245600D01*
X297300D01*
X296900Y246000D01*
X297300Y246400D01*
X296900D01*
X296500Y246800D01*
X296100Y246400D01*
X295700D01*
X296100Y246000D01*
X295700Y245600D01*
X296100D01*
X296500Y245200D01*
X306500Y255200D02*
X306900Y255600D01*
X307300D01*
X306900Y256000D01*
X307300Y256400D01*
X306900D01*
X306500Y256800D01*
X306100Y256400D01*
X305700D01*
X306100Y256000D01*
X305700Y255600D01*
X306100D01*
X306500Y255200D01*
Y245200D02*
X306900Y245600D01*
X307300D01*
X306900Y246000D01*
X307300Y246400D01*
X306900D01*
X306500Y246800D01*
X306100Y246400D01*
X305700D01*
X306100Y246000D01*
X305700Y245600D01*
X306100D01*
X306500Y245200D01*
X316500Y255200D02*
X316900Y255600D01*
X317300D01*
X316900Y256000D01*
X317300Y256400D01*
X316900D01*
X316500Y256800D01*
X316100Y256400D01*
X315700D01*
X316100Y256000D01*
X315700Y255600D01*
X316100D01*
X316500Y255200D01*
Y245200D02*
X316900Y245600D01*
X317300D01*
X316900Y246000D01*
X317300Y246400D01*
X316900D01*
X316500Y246800D01*
X316100Y246400D01*
X315700D01*
X316100Y246000D01*
X315700Y245600D01*
X316100D01*
X316500Y245200D01*
X326500Y255200D02*
X326900Y255600D01*
X327300D01*
X326900Y256000D01*
X327300Y256400D01*
X326900D01*
X326500Y256800D01*
X326100Y256400D01*
X325700D01*
X326100Y256000D01*
X325700Y255600D01*
X326100D01*
X326500Y255200D01*
Y245200D02*
X326900Y245600D01*
X327300D01*
X326900Y246000D01*
X327300Y246400D01*
X326900D01*
X326500Y246800D01*
X326100Y246400D01*
X325700D01*
X326100Y246000D01*
X325700Y245600D01*
X326100D01*
X326500Y245200D01*
X336500Y255200D02*
X336900Y255600D01*
X337300D01*
X336900Y256000D01*
X337300Y256400D01*
X336900D01*
X336500Y256800D01*
X336100Y256400D01*
X335700D01*
X336100Y256000D01*
X335700Y255600D01*
X336100D01*
X336500Y255200D01*
Y245200D02*
X336900Y245600D01*
X337300D01*
X336900Y246000D01*
X337300Y246400D01*
X336900D01*
X336500Y246800D01*
X336100Y246400D01*
X335700D01*
X336100Y246000D01*
X335700Y245600D01*
X336100D01*
X336500Y245200D01*
X346500Y255200D02*
X346900Y255600D01*
X347300D01*
X346900Y256000D01*
X347300Y256400D01*
X346900D01*
X346500Y256800D01*
X346100Y256400D01*
X345700D01*
X346100Y256000D01*
X345700Y255600D01*
X346100D01*
X346500Y255200D01*
Y245200D02*
X346900Y245600D01*
X347300D01*
X346900Y246000D01*
X347300Y246400D01*
X346900D01*
X346500Y246800D01*
X346100Y246400D01*
X345700D01*
X346100Y246000D01*
X345700Y245600D01*
X346100D01*
X346500Y245200D01*
X356500Y255200D02*
X356900Y255600D01*
X357300D01*
X356900Y256000D01*
X357300Y256400D01*
X356900D01*
X356500Y256800D01*
X356100Y256400D01*
X355700D01*
X356100Y256000D01*
X355700Y255600D01*
X356100D01*
X356500Y255200D01*
Y245200D02*
X356900Y245600D01*
X357300D01*
X356900Y246000D01*
X357300Y246400D01*
X356900D01*
X356500Y246800D01*
X356100Y246400D01*
X355700D01*
X356100Y246000D01*
X355700Y245600D01*
X356100D01*
X356500Y245200D01*
X358200Y229700D02*
X358600Y230500D01*
X358200Y231300D01*
X359000Y230900D01*
X359800Y231300D01*
X359400Y230500D01*
X359800Y229700D01*
X359000Y230100D01*
X358200Y229700D01*
X358700Y123200D02*
X359100Y124000D01*
X358700Y124800D01*
X359500Y124400D01*
X360300Y124800D01*
X359900Y124000D01*
X360300Y123200D01*
X359500Y123600D01*
X358700Y123200D01*
X297200Y197700D02*
X297600Y198500D01*
X297200Y199300D01*
X298000Y198900D01*
X298800Y199300D01*
X298400Y198500D01*
X298800Y197700D01*
X298000Y198100D01*
X297200Y197700D01*
X324700Y188700D02*
X325100Y189500D01*
X324700Y190300D01*
X325500Y189900D01*
X326300Y190300D01*
X325900Y189500D01*
X326300Y188700D01*
X325500Y189100D01*
X324700Y188700D01*
X158200Y226200D02*
X158600Y227000D01*
X158200Y227800D01*
X159000Y227400D01*
X159800Y227800D01*
X159400Y227000D01*
X159800Y226200D01*
X159000Y226600D01*
X158200Y226200D01*
X154200D02*
X154600Y227000D01*
X154200Y227800D01*
X155000Y227400D01*
X155800Y227800D01*
X155400Y227000D01*
X155800Y226200D01*
X155000Y226600D01*
X154200Y226200D01*
X150200D02*
X150600Y227000D01*
X150200Y227800D01*
X151000Y227400D01*
X151800Y227800D01*
X151400Y227000D01*
X151800Y226200D01*
X151000Y226600D01*
X150200Y226200D01*
X168700Y198200D02*
X169100Y199000D01*
X168700Y199800D01*
X169500Y199400D01*
X170300Y199800D01*
X169900Y199000D01*
X170300Y198200D01*
X169500Y198600D01*
X168700Y198200D01*
X261200Y224900D02*
X261600Y225700D01*
X261200Y226500D01*
X262000Y226100D01*
X262800Y226500D01*
X262400Y225700D01*
X262800Y224900D01*
X262000Y225300D01*
X261200Y224900D01*
Y221700D02*
X261600Y222500D01*
X261200Y223300D01*
X262000Y222900D01*
X262800Y223300D01*
X262400Y222500D01*
X262800Y221700D01*
X262000Y222100D01*
X261200Y221700D01*
X314200Y142200D02*
X314600Y143000D01*
X314200Y143800D01*
X315000Y143400D01*
X315800Y143800D01*
X315400Y143000D01*
X315800Y142200D01*
X315000Y142600D01*
X314200Y142200D01*
X302700Y153632D02*
X303100Y154432D01*
X302700Y155232D01*
X303500Y154832D01*
X304300Y155232D01*
X303900Y154432D01*
X304300Y153632D01*
X303500Y154032D01*
X302700Y153632D01*
X228700Y130200D02*
X229100Y131000D01*
X228700Y131800D01*
X229500Y131400D01*
X230300Y131800D01*
X229900Y131000D01*
X230300Y130200D01*
X229500Y130600D01*
X228700Y130200D01*
X232700D02*
X233100Y131000D01*
X232700Y131800D01*
X233500Y131400D01*
X234300Y131800D01*
X233900Y131000D01*
X234300Y130200D01*
X233500Y130600D01*
X232700Y130200D01*
X206599Y180484D02*
X206999Y181284D01*
X206599Y182084D01*
X207399Y181684D01*
X208199Y182084D01*
X207799Y181284D01*
X208199Y180484D01*
X207399Y180884D01*
X206599Y180484D01*
X187726Y157976D02*
X188126Y158776D01*
X187726Y159576D01*
X188526Y159176D01*
X189326Y159576D01*
X188926Y158776D01*
X189326Y157976D01*
X188526Y158376D01*
X187726Y157976D01*
X180726Y150977D02*
X181126Y151777D01*
X180726Y152577D01*
X181526Y152177D01*
X182326Y152577D01*
X181926Y151777D01*
X182326Y150977D01*
X181526Y151377D01*
X180726Y150977D01*
X192916Y159535D02*
X193316Y160335D01*
X192916Y161135D01*
X193716Y160735D01*
X194516Y161135D01*
X194116Y160335D01*
X194516Y159535D01*
X193716Y159935D01*
X192916Y159535D01*
X155200Y180200D02*
X155600Y181000D01*
X155200Y181800D01*
X156000Y181400D01*
X156800Y181800D01*
X156400Y181000D01*
X156800Y180200D01*
X156000Y180600D01*
X155200Y180200D01*
X151200D02*
X151600Y181000D01*
X151200Y181800D01*
X152000Y181400D01*
X152800Y181800D01*
X152400Y181000D01*
X152800Y180200D01*
X152000Y180600D01*
X151200Y180200D01*
X147700D02*
X148100Y181000D01*
X147700Y181800D01*
X148500Y181400D01*
X149300Y181800D01*
X148900Y181000D01*
X149300Y180200D01*
X148500Y180600D01*
X147700Y180200D01*
X183227Y147575D02*
X183626Y148375D01*
X183227Y149175D01*
X184027Y148775D01*
X184827Y149175D01*
X184426Y148375D01*
X184827Y147575D01*
X184027Y147975D01*
X183227Y147575D01*
X186210Y144741D02*
X186610Y145541D01*
X186210Y146341D01*
X187010Y145941D01*
X187810Y146341D01*
X187410Y145541D01*
X187810Y144741D01*
X187010Y145141D01*
X186210Y144741D01*
X191517Y130467D02*
X191917Y131267D01*
X191517Y132067D01*
X192317Y131667D01*
X193117Y132067D01*
X192717Y131267D01*
X193117Y130467D01*
X192317Y130867D01*
X191517Y130467D01*
X194981Y127254D02*
X195381Y128054D01*
X194981Y128854D01*
X195781Y128454D01*
X196581Y128854D01*
X196181Y128054D01*
X196581Y127254D01*
X195781Y127654D01*
X194981Y127254D01*
X198094Y124241D02*
X198494Y125041D01*
X198094Y125841D01*
X198894Y125441D01*
X199694Y125841D01*
X199294Y125041D01*
X199694Y124241D01*
X198894Y124641D01*
X198094Y124241D01*
X224200Y163200D02*
X224600Y164000D01*
X224200Y164800D01*
X225000Y164400D01*
X225800Y164800D01*
X225400Y164000D01*
X225800Y163200D01*
X225000Y163600D01*
X224200Y163200D01*
X204034Y148932D02*
X204434Y149732D01*
X204034Y150532D01*
X204834Y150132D01*
X205634Y150532D01*
X205234Y149732D01*
X205634Y148932D01*
X204834Y149332D01*
X204034Y148932D01*
X190493Y139629D02*
X190893Y140429D01*
X190493Y141229D01*
X191293Y140829D01*
X192093Y141229D01*
X191693Y140429D01*
X192093Y139629D01*
X191293Y140029D01*
X190493Y139629D01*
X187685Y135163D02*
X188084Y135963D01*
X187685Y136763D01*
X188485Y136363D01*
X189285Y136763D01*
X188884Y135963D01*
X189285Y135163D01*
X188485Y135563D01*
X187685Y135163D01*
X156700Y121200D02*
X157100Y122000D01*
X156700Y122800D01*
X157500Y122400D01*
X158300Y122800D01*
X157900Y122000D01*
X158300Y121200D01*
X157500Y121600D01*
X156700Y121200D01*
X168730Y208170D02*
X169130Y208970D01*
X168730Y209770D01*
X169530Y209370D01*
X170330Y209770D01*
X169930Y208970D01*
X170330Y208170D01*
X169530Y208570D01*
X168730Y208170D01*
Y188200D02*
X169130Y189000D01*
X168730Y189800D01*
X169530Y189400D01*
X170330Y189800D01*
X169930Y189000D01*
X170330Y188200D01*
X169530Y188600D01*
X168730Y188200D01*
Y218200D02*
X169130Y219000D01*
X168730Y219800D01*
X169530Y219400D01*
X170330Y219800D01*
X169930Y219000D01*
X170330Y218200D01*
X169530Y218600D01*
X168730Y218200D01*
X235700Y202200D02*
X236100Y203000D01*
X235700Y203800D01*
X236500Y203400D01*
X237300Y203800D01*
X236900Y203000D01*
X237300Y202200D01*
X236500Y202600D01*
X235700Y202200D01*
Y206200D02*
X236100Y207000D01*
X235700Y207800D01*
X236500Y207400D01*
X237300Y207800D01*
X236900Y207000D01*
X237300Y206200D01*
X236500Y206600D01*
X235700Y206200D01*
X213585Y139191D02*
X213985Y139991D01*
X213585Y140791D01*
X214385Y140392D01*
X215185Y140791D01*
X214785Y139991D01*
X215185Y139191D01*
X214385Y139592D01*
X213585Y139191D01*
X212803Y133926D02*
X213203Y134726D01*
X212803Y135526D01*
X213603Y135126D01*
X214403Y135526D01*
X214003Y134726D01*
X214403Y133926D01*
X213603Y134326D01*
X212803Y133926D01*
X208945Y130069D02*
X209345Y130869D01*
X208945Y131669D01*
X209745Y131269D01*
X210545Y131669D01*
X210145Y130869D01*
X210545Y130069D01*
X209745Y130469D01*
X208945Y130069D01*
X204773Y125897D02*
X205173Y126697D01*
X204773Y127497D01*
X205573Y127097D01*
X206373Y127497D01*
X205973Y126697D01*
X206373Y125897D01*
X205573Y126297D01*
X204773Y125897D01*
X201200Y151700D02*
X201600Y152500D01*
X201200Y153300D01*
X202000Y152900D01*
X202800Y153300D01*
X202400Y152500D01*
X202800Y151700D01*
X202000Y152100D01*
X201200Y151700D01*
X213700Y184348D02*
X214100Y185148D01*
X213700Y185948D01*
X214500Y185548D01*
X215300Y185948D01*
X214900Y185148D01*
X215300Y184348D01*
X214500Y184748D01*
X213700Y184348D01*
X168730Y170700D02*
X169130Y171500D01*
X168730Y172300D01*
X169530Y171900D01*
X170330Y172300D01*
X169930Y171500D01*
X170330Y170700D01*
X169530Y171100D01*
X168730Y170700D01*
X190700Y195200D02*
X191100Y196000D01*
X190700Y196800D01*
X191500Y196400D01*
X192300Y196800D01*
X191900Y196000D01*
X192300Y195200D01*
X191500Y195600D01*
X190700Y195200D01*
X188200Y192700D02*
X188600Y193500D01*
X188200Y194300D01*
X189000Y193900D01*
X189800Y194300D01*
X189400Y193500D01*
X189800Y192700D01*
X189000Y193100D01*
X188200Y192700D01*
X152700Y150450D02*
X153100Y151250D01*
X152700Y152050D01*
X153500Y151650D01*
X154300Y152050D01*
X153900Y151250D01*
X154300Y150450D01*
X153500Y150850D01*
X152700Y150450D01*
Y170700D02*
X153100Y171500D01*
X152700Y172300D01*
X153500Y171900D01*
X154300Y172300D01*
X153900Y171500D01*
X154300Y170700D01*
X153500Y171100D01*
X152700Y170700D01*
X331700Y164700D02*
X332100Y165500D01*
X331700Y166300D01*
X332500Y165900D01*
X333300Y166300D01*
X332900Y165500D01*
X333300Y164700D01*
X332500Y165100D01*
X331700Y164700D01*
Y142200D02*
X332100Y143000D01*
X331700Y143800D01*
X332500Y143400D01*
X333300Y143800D01*
X332900Y143000D01*
X333300Y142200D01*
X332500Y142600D01*
X331700Y142200D01*
X331509Y218185D02*
X331909Y218985D01*
X331509Y219785D01*
X332309Y219385D01*
X333109Y219785D01*
X332709Y218985D01*
X333109Y218185D01*
X332309Y218585D01*
X331509Y218185D01*
X331650Y193150D02*
X332050Y193950D01*
X331650Y194750D01*
X332450Y194350D01*
X333250Y194750D01*
X332850Y193950D01*
X333250Y193150D01*
X332450Y193550D01*
X331650Y193150D01*
X336700Y233700D02*
X337100Y234500D01*
X336700Y235300D01*
X337500Y234900D01*
X338300Y235300D01*
X337900Y234500D01*
X338300Y233700D01*
X337500Y234100D01*
X336700Y233700D01*
X340700Y231700D02*
X341100Y232500D01*
X340700Y233300D01*
X341500Y232900D01*
X342300Y233300D01*
X341900Y232500D01*
X342300Y231700D01*
X341500Y232100D01*
X340700Y231700D01*
X334200Y231200D02*
X334600Y232000D01*
X334200Y232800D01*
X335000Y232400D01*
X335800Y232800D01*
X335400Y232000D01*
X335800Y231200D01*
X335000Y231600D01*
X334200Y231200D01*
X329700Y229700D02*
X330100Y230500D01*
X329700Y231300D01*
X330500Y230900D01*
X331300Y231300D01*
X330900Y230500D01*
X331300Y229700D01*
X330500Y230100D01*
X329700Y229700D01*
X318700Y142200D02*
X319100Y143000D01*
X318700Y143800D01*
X319500Y143400D01*
X320300Y143800D01*
X319900Y143000D01*
X320300Y142200D01*
X319500Y142600D01*
X318700Y142200D01*
X306499Y171468D02*
X306899Y172268D01*
X306499Y173068D01*
X307299Y172668D01*
X308099Y173068D01*
X307699Y172268D01*
X308099Y171468D01*
X307299Y171868D01*
X306499Y171468D01*
X320700Y208050D02*
X321100Y208850D01*
X320700Y209650D01*
X321500Y209250D01*
X322300Y209650D01*
X321900Y208850D01*
X322300Y208050D01*
X321500Y208450D01*
X320700Y208050D01*
Y204850D02*
X321100Y205650D01*
X320700Y206450D01*
X321500Y206050D01*
X322300Y206450D01*
X321900Y205650D01*
X322300Y204850D01*
X321500Y205250D01*
X320700Y204850D01*
X258700Y216400D02*
X259100Y217200D01*
X258700Y218000D01*
X259500Y217600D01*
X260300Y218000D01*
X259900Y217200D01*
X260300Y216400D01*
X259500Y216800D01*
X258700Y216400D01*
Y213200D02*
X259100Y214000D01*
X258700Y214800D01*
X259500Y214400D01*
X260300Y214800D01*
X259900Y214000D01*
X260300Y213200D01*
X259500Y213600D01*
X258700Y213200D01*
X302700Y156832D02*
X303100Y157632D01*
X302700Y158432D01*
X303500Y158032D01*
X304300Y158432D01*
X303900Y157632D01*
X304300Y156832D01*
X303500Y157232D01*
X302700Y156832D01*
X325700Y229700D02*
X326100Y230500D01*
X325700Y231300D01*
X326500Y230900D01*
X327300Y231300D01*
X326900Y230500D01*
X327300Y229700D01*
X326500Y230100D01*
X325700Y229700D01*
X287891Y170892D02*
X288291Y171692D01*
X287891Y172492D01*
X288691Y172092D01*
X289491Y172492D01*
X289091Y171692D01*
X289491Y170892D01*
X288691Y171292D01*
X287891Y170892D01*
X222200Y140700D02*
X222600Y141500D01*
X222200Y142300D01*
X223000Y141900D01*
X223800Y142300D01*
X223400Y141500D01*
X223800Y140700D01*
X223000Y141100D01*
X222200Y140700D01*
X236110Y155918D02*
X236510Y156718D01*
X236110Y157518D01*
X236910Y157118D01*
X237710Y157518D01*
X237310Y156718D01*
X237710Y155918D01*
X236910Y156318D01*
X236110Y155918D01*
X241200Y126200D02*
X241600Y127000D01*
X241200Y127800D01*
X242000Y127400D01*
X242800Y127800D01*
X242400Y127000D01*
X242800Y126200D01*
X242000Y126600D01*
X241200Y126200D01*
X285200Y173700D02*
X285600Y174500D01*
X285200Y175300D01*
X286000Y174900D01*
X286800Y175300D01*
X286400Y174500D01*
X286800Y173700D01*
X286000Y174100D01*
X285200Y173700D01*
X250928Y128806D02*
X251328Y129606D01*
X250928Y130406D01*
X251728Y130006D01*
X252528Y130406D01*
X252128Y129606D01*
X252528Y128806D01*
X251728Y129206D01*
X250928Y128806D01*
X253928Y131806D02*
X254328Y132606D01*
X253928Y133406D01*
X254728Y133006D01*
X255528Y133406D01*
X255128Y132606D01*
X255528Y131806D01*
X254728Y132206D01*
X253928Y131806D01*
X250200Y227700D02*
X250600Y228500D01*
X250200Y229300D01*
X251000Y228900D01*
X251800Y229300D01*
X251400Y228500D01*
X251800Y227700D01*
X251000Y228100D01*
X250200Y227700D01*
X233200Y158700D02*
X233600Y159500D01*
X233200Y160300D01*
X234000Y159900D01*
X234800Y160300D01*
X234400Y159500D01*
X234800Y158700D01*
X234000Y159100D01*
X233200Y158700D01*
X227543Y157940D02*
X227943Y158740D01*
X227543Y159540D01*
X228343Y159141D01*
X229143Y159540D01*
X228743Y158740D01*
X229143Y157940D01*
X228343Y158341D01*
X227543Y157940D01*
X247700Y230200D02*
X248100Y231000D01*
X247700Y231800D01*
X248500Y231400D01*
X249300Y231800D01*
X248900Y231000D01*
X249300Y230200D01*
X248500Y230600D01*
X247700Y230200D01*
D88*
X341263Y135492D02*
G03*
X341263Y135492I-800J0D01*
G01*
X341263Y169508D02*
G03*
X341263Y169508I-800J0D01*
G01*
X341763Y188992D02*
G03*
X341763Y188992I-800J0D01*
G01*
X341763Y223008D02*
G03*
X341763Y223008I-800J0D01*
G01*
M02*
