G04*
G04 #@! TF.GenerationSoftware,Altium Limited,Altium Designer,20.2.6 (244)*
G04*
G04 Layer_Physical_Order=1*
G04 Layer_Color=255*
%FSLAX25Y25*%
%MOIN*%
G70*
G04*
G04 #@! TF.SameCoordinates,FC4913F0-8007-4352-998A-4485FB7E878D*
G04*
G04*
G04 #@! TF.FilePolarity,Positive*
G04*
G01*
G75*
%ADD10C,0.01000*%
%ADD13C,0.01500*%
%ADD20R,0.03937X0.03150*%
G04:AMPARAMS|DCode=21|XSize=62.99mil|YSize=47.24mil|CornerRadius=0mil|HoleSize=0mil|Usage=FLASHONLY|Rotation=225.000|XOffset=0mil|YOffset=0mil|HoleType=Round|Shape=Rectangle|*
%AMROTATEDRECTD21*
4,1,4,0.00557,0.03897,0.03897,0.00557,-0.00557,-0.03897,-0.03897,-0.00557,0.00557,0.03897,0.0*
%
%ADD21ROTATEDRECTD21*%

G04:AMPARAMS|DCode=22|XSize=15.75mil|YSize=19.68mil|CornerRadius=0mil|HoleSize=0mil|Usage=FLASHONLY|Rotation=315.000|XOffset=0mil|YOffset=0mil|HoleType=Round|Shape=Rectangle|*
%AMROTATEDRECTD22*
4,1,4,-0.01253,-0.00139,0.00139,0.01253,0.01253,0.00139,-0.00139,-0.01253,-0.01253,-0.00139,0.0*
%
%ADD22ROTATEDRECTD22*%

%ADD23R,0.01575X0.01968*%
%ADD24R,0.03937X0.05512*%
%ADD25R,0.01968X0.04724*%
%ADD26R,0.05827X0.07480*%
%ADD27O,0.11811X0.03937*%
G04:AMPARAMS|DCode=28|XSize=15.75mil|YSize=19.68mil|CornerRadius=0mil|HoleSize=0mil|Usage=FLASHONLY|Rotation=225.000|XOffset=0mil|YOffset=0mil|HoleType=Round|Shape=Rectangle|*
%AMROTATEDRECTD28*
4,1,4,-0.00139,0.01253,0.01253,-0.00139,0.00139,-0.01253,-0.01253,0.00139,-0.00139,0.01253,0.0*
%
%ADD28ROTATEDRECTD28*%

%ADD29R,0.01968X0.01575*%
%ADD30R,0.03150X0.03937*%
%ADD31R,0.04724X0.00984*%
%ADD32O,0.04724X0.00984*%
G04:AMPARAMS|DCode=33|XSize=11.81mil|YSize=70.87mil|CornerRadius=0mil|HoleSize=0mil|Usage=FLASHONLY|Rotation=45.000|XOffset=0mil|YOffset=0mil|HoleType=Round|Shape=Round|*
%AMOVALD33*
21,1,0.05906,0.01181,0.00000,0.00000,135.0*
1,1,0.01181,0.02088,-0.02088*
1,1,0.01181,-0.02088,0.02088*
%
%ADD33OVALD33*%

G04:AMPARAMS|DCode=34|XSize=11.81mil|YSize=70.87mil|CornerRadius=0mil|HoleSize=0mil|Usage=FLASHONLY|Rotation=135.000|XOffset=0mil|YOffset=0mil|HoleType=Round|Shape=Round|*
%AMOVALD34*
21,1,0.05906,0.01181,0.00000,0.00000,225.0*
1,1,0.01181,0.02088,0.02088*
1,1,0.01181,-0.02088,-0.02088*
%
%ADD34OVALD34*%

G04:AMPARAMS|DCode=35|XSize=51.18mil|YSize=47.24mil|CornerRadius=0mil|HoleSize=0mil|Usage=FLASHONLY|Rotation=135.000|XOffset=0mil|YOffset=0mil|HoleType=Round|Shape=Rectangle|*
%AMROTATEDRECTD35*
4,1,4,0.03480,-0.00139,0.00139,-0.03480,-0.03480,0.00139,-0.00139,0.03480,0.03480,-0.00139,0.0*
%
%ADD35ROTATEDRECTD35*%

%ADD58R,0.04528X0.01181*%
%ADD59R,0.04528X0.02362*%
%ADD60R,0.03175X0.03402*%
%ADD61C,0.00559*%
%ADD62C,0.01100*%
%ADD63C,0.02000*%
%ADD64C,0.00616*%
%ADD65O,0.07087X0.03937*%
%ADD66O,0.08268X0.03937*%
%ADD67C,0.06299*%
%ADD68C,0.02400*%
G36*
X357926Y261338D02*
Y261338D01*
X357936Y261337D01*
X358417Y261291D01*
X359063Y261205D01*
X360123Y260767D01*
X361032Y260068D01*
X361731Y259158D01*
X362169Y258099D01*
X362312Y257013D01*
X362302Y256962D01*
Y223556D01*
X361802Y223523D01*
X361768Y223783D01*
X361469Y224505D01*
X360993Y225125D01*
X360373Y225601D01*
X359651Y225900D01*
X358876Y226002D01*
X358051D01*
Y223008D01*
Y220014D01*
X358876D01*
X359502Y220096D01*
X359849Y219845D01*
X359954Y219700D01*
X359920Y219444D01*
X359902Y219353D01*
Y192338D01*
X359906Y192320D01*
X359820Y192174D01*
X359460Y191909D01*
X358876Y191986D01*
X358051D01*
Y188992D01*
Y185998D01*
X358876D01*
X359651Y186100D01*
X360373Y186399D01*
X360993Y186875D01*
X361469Y187495D01*
X361768Y188217D01*
X361802Y188477D01*
X362302Y188444D01*
Y168520D01*
X361995Y168480D01*
X361644Y168334D01*
X361261Y168717D01*
X361268Y168733D01*
X361271Y168758D01*
X357551D01*
Y166514D01*
X358376D01*
X359151Y166616D01*
X359637Y166817D01*
X359836Y166696D01*
X360056Y166450D01*
X359989Y165940D01*
X359971Y165849D01*
Y138834D01*
X359989Y138743D01*
X360012Y138569D01*
X359554Y138217D01*
X359151Y138384D01*
X358376Y138486D01*
X357551D01*
Y136242D01*
X361696D01*
X361768Y136297D01*
X361995Y136203D01*
X362371Y136154D01*
Y95889D01*
X362302Y95545D01*
X362302D01*
X362317Y95528D01*
X362169Y94408D01*
X361731Y93348D01*
X361032Y92438D01*
X360123Y91740D01*
X359063Y91301D01*
X357977Y91158D01*
X357926Y91169D01*
X145328D01*
X145328Y91169D01*
Y91169D01*
X144837Y91216D01*
X144191Y91301D01*
X143131Y91740D01*
X142221Y92438D01*
X141523Y93348D01*
X141084Y94408D01*
X140952Y95416D01*
Y98818D01*
X141452Y99025D01*
X142432Y98045D01*
X142262Y97636D01*
X142113Y96500D01*
X142262Y95364D01*
X142701Y94306D01*
X143398Y93398D01*
X144306Y92701D01*
X145364Y92262D01*
X146500Y92113D01*
X147635Y92262D01*
X148694Y92701D01*
X149602Y93398D01*
X150299Y94306D01*
X150738Y95364D01*
X150887Y96500D01*
X150738Y97636D01*
X150299Y98694D01*
X149602Y99602D01*
X148694Y100299D01*
X147635Y100738D01*
X146500Y100887D01*
X145364Y100738D01*
X144955Y100568D01*
X144284Y101239D01*
Y102169D01*
X144784Y102503D01*
X145364Y102262D01*
X146500Y102113D01*
X147635Y102262D01*
X148694Y102701D01*
X149602Y103398D01*
X149817Y103677D01*
X150317Y103508D01*
Y100950D01*
X150449Y100287D01*
X150824Y99724D01*
X152453Y98096D01*
X152262Y97636D01*
X152113Y96500D01*
X152262Y95364D01*
X152701Y94306D01*
X153398Y93398D01*
X154306Y92701D01*
X155365Y92262D01*
X156500Y92113D01*
X157635Y92262D01*
X158694Y92701D01*
X159602Y93398D01*
X160299Y94306D01*
X160738Y95364D01*
X160887Y96500D01*
X160738Y97636D01*
X160299Y98694D01*
X159602Y99602D01*
X158694Y100299D01*
X157635Y100738D01*
X156500Y100887D01*
X155365Y100738D01*
X154904Y100547D01*
X153783Y101668D01*
Y102537D01*
X154232Y102758D01*
X154306Y102701D01*
X155365Y102262D01*
X156500Y102113D01*
X157635Y102262D01*
X158694Y102701D01*
X159462Y103291D01*
X159962Y103098D01*
Y101304D01*
X160094Y100641D01*
X160470Y100078D01*
X162453Y98096D01*
X162262Y97636D01*
X162113Y96500D01*
X162262Y95364D01*
X162701Y94306D01*
X163398Y93398D01*
X164306Y92701D01*
X165365Y92262D01*
X166500Y92113D01*
X167636Y92262D01*
X168694Y92701D01*
X169602Y93398D01*
X170299Y94306D01*
X170738Y95364D01*
X170887Y96500D01*
X170738Y97636D01*
X170299Y98694D01*
X169602Y99602D01*
X168694Y100299D01*
X167636Y100738D01*
X166500Y100887D01*
X165365Y100738D01*
X164904Y100547D01*
X163429Y102022D01*
Y102809D01*
X163878Y103030D01*
X164306Y102701D01*
X165365Y102262D01*
X166500Y102113D01*
X167636Y102262D01*
X168694Y102701D01*
X169513Y103329D01*
X170013Y103185D01*
Y101702D01*
X170145Y101038D01*
X170520Y100476D01*
X172584Y98412D01*
X172262Y97636D01*
X172113Y96500D01*
X172262Y95364D01*
X172701Y94306D01*
X173398Y93398D01*
X174306Y92701D01*
X175364Y92262D01*
X176500Y92113D01*
X177636Y92262D01*
X178694Y92701D01*
X179602Y93398D01*
X180299Y94306D01*
X180738Y95364D01*
X180887Y96500D01*
X180738Y97636D01*
X180299Y98694D01*
X179602Y99602D01*
X178694Y100299D01*
X177636Y100738D01*
X176500Y100887D01*
X175364Y100738D01*
X175221Y100678D01*
X173585Y102314D01*
X173617Y102605D01*
X174130Y102836D01*
X174306Y102701D01*
X175364Y102262D01*
X176500Y102113D01*
X177636Y102262D01*
X178694Y102701D01*
X179602Y103398D01*
X179793Y103647D01*
X180267Y103486D01*
Y101000D01*
X180399Y100337D01*
X180774Y99774D01*
X182453Y98096D01*
X182262Y97636D01*
X182113Y96500D01*
X182262Y95364D01*
X182701Y94306D01*
X183398Y93398D01*
X184306Y92701D01*
X185364Y92262D01*
X186500Y92113D01*
X187636Y92262D01*
X188694Y92701D01*
X189602Y93398D01*
X190299Y94306D01*
X190738Y95364D01*
X190887Y96500D01*
X190738Y97636D01*
X190299Y98694D01*
X189602Y99602D01*
X188694Y100299D01*
X187636Y100738D01*
X186500Y100887D01*
X185364Y100738D01*
X184904Y100547D01*
X183733Y101718D01*
Y102575D01*
X184182Y102796D01*
X184306Y102701D01*
X185364Y102262D01*
X186500Y102113D01*
X187636Y102262D01*
X188694Y102701D01*
X189602Y103398D01*
X190299Y104306D01*
X190738Y105365D01*
X190887Y106500D01*
X190738Y107635D01*
X190299Y108694D01*
X189602Y109602D01*
X188694Y110299D01*
X188284Y110469D01*
Y116761D01*
X189411Y117888D01*
X195211D01*
X195403Y117426D01*
X195238Y117262D01*
X194852Y116683D01*
X194716Y116000D01*
Y110469D01*
X194306Y110299D01*
X193398Y109602D01*
X192701Y108694D01*
X192262Y107635D01*
X192113Y106500D01*
X192262Y105365D01*
X192701Y104306D01*
X193398Y103398D01*
X194306Y102701D01*
X195364Y102262D01*
X196500Y102113D01*
X197635Y102262D01*
X198694Y102701D01*
X199602Y103398D01*
X199742Y103580D01*
X200216Y103420D01*
Y101000D01*
X200352Y100317D01*
X200738Y99738D01*
X202432Y98045D01*
X202262Y97636D01*
X202113Y96500D01*
X202262Y95364D01*
X202701Y94306D01*
X203398Y93398D01*
X204306Y92701D01*
X205364Y92262D01*
X206500Y92113D01*
X207635Y92262D01*
X208694Y92701D01*
X209602Y93398D01*
X210299Y94306D01*
X210738Y95364D01*
X210887Y96500D01*
X210738Y97636D01*
X210299Y98694D01*
X209602Y99602D01*
X208694Y100299D01*
X207635Y100738D01*
X206500Y100887D01*
X205364Y100738D01*
X204955Y100568D01*
X203784Y101739D01*
Y102536D01*
X204233Y102757D01*
X204306Y102701D01*
X205364Y102262D01*
X206500Y102113D01*
X207635Y102262D01*
X208694Y102701D01*
X209216Y103101D01*
X209716Y102855D01*
Y101500D01*
X209852Y100817D01*
X210238Y100238D01*
X212432Y98045D01*
X212262Y97636D01*
X212113Y96500D01*
X212262Y95364D01*
X212701Y94306D01*
X213398Y93398D01*
X214306Y92701D01*
X215365Y92262D01*
X216500Y92113D01*
X217635Y92262D01*
X218694Y92701D01*
X219602Y93398D01*
X220299Y94306D01*
X220738Y95364D01*
X220887Y96500D01*
X220738Y97636D01*
X220299Y98694D01*
X219602Y99602D01*
X218694Y100299D01*
X217635Y100738D01*
X216500Y100887D01*
X215365Y100738D01*
X214955Y100568D01*
X213284Y102239D01*
Y102855D01*
X213784Y103101D01*
X214306Y102701D01*
X215365Y102262D01*
X216500Y102113D01*
X217635Y102262D01*
X218694Y102701D01*
X219267Y103140D01*
X219767Y102894D01*
Y101500D01*
X219899Y100837D01*
X220274Y100274D01*
X222453Y98096D01*
X222262Y97636D01*
X222113Y96500D01*
X222262Y95364D01*
X222701Y94306D01*
X223398Y93398D01*
X224306Y92701D01*
X225364Y92262D01*
X226500Y92113D01*
X227636Y92262D01*
X228694Y92701D01*
X229602Y93398D01*
X230299Y94306D01*
X230738Y95364D01*
X230887Y96500D01*
X230738Y97636D01*
X230299Y98694D01*
X229602Y99602D01*
X228694Y100299D01*
X227636Y100738D01*
X226500Y100887D01*
X225364Y100738D01*
X224904Y100547D01*
X223233Y102218D01*
Y102894D01*
X223733Y103140D01*
X224306Y102701D01*
X225364Y102262D01*
X226500Y102113D01*
X227636Y102262D01*
X228694Y102701D01*
X229602Y103398D01*
X229793Y103647D01*
X230267Y103486D01*
Y101000D01*
X230399Y100337D01*
X230774Y99774D01*
X232453Y98096D01*
X232262Y97636D01*
X232113Y96500D01*
X232262Y95364D01*
X232701Y94306D01*
X233398Y93398D01*
X234306Y92701D01*
X235365Y92262D01*
X236500Y92113D01*
X237635Y92262D01*
X238694Y92701D01*
X239602Y93398D01*
X240299Y94306D01*
X240738Y95364D01*
X240887Y96500D01*
X240738Y97636D01*
X240299Y98694D01*
X239602Y99602D01*
X238694Y100299D01*
X237635Y100738D01*
X236500Y100887D01*
X235365Y100738D01*
X234904Y100547D01*
X233733Y101718D01*
Y102575D01*
X234182Y102796D01*
X234306Y102701D01*
X235365Y102262D01*
X236500Y102113D01*
X237635Y102262D01*
X238694Y102701D01*
X239267Y103140D01*
X239767Y102894D01*
Y101500D01*
X239899Y100837D01*
X240274Y100274D01*
X242453Y98096D01*
X242262Y97636D01*
X242113Y96500D01*
X242262Y95364D01*
X242701Y94306D01*
X243398Y93398D01*
X244306Y92701D01*
X245364Y92262D01*
X246500Y92113D01*
X247636Y92262D01*
X248694Y92701D01*
X249602Y93398D01*
X250299Y94306D01*
X250738Y95364D01*
X250887Y96500D01*
X250738Y97636D01*
X250299Y98694D01*
X249602Y99602D01*
X248694Y100299D01*
X247636Y100738D01*
X246500Y100887D01*
X245364Y100738D01*
X244904Y100547D01*
X243233Y102218D01*
Y102894D01*
X243733Y103140D01*
X244306Y102701D01*
X245364Y102262D01*
X246500Y102113D01*
X247636Y102262D01*
X248694Y102701D01*
X249602Y103398D01*
X250299Y104306D01*
X250738Y105365D01*
X250887Y106500D01*
X250738Y107635D01*
X250547Y108096D01*
X253805Y111354D01*
X254267Y111162D01*
Y110269D01*
X253398Y109602D01*
X252701Y108694D01*
X252262Y107635D01*
X252113Y106500D01*
X252262Y105365D01*
X252701Y104306D01*
X253398Y103398D01*
X254306Y102701D01*
X255364Y102262D01*
X256500Y102113D01*
X257635Y102262D01*
X258435Y102594D01*
X258718Y102170D01*
X257327Y100778D01*
X256500Y100887D01*
X255364Y100738D01*
X254306Y100299D01*
X253398Y99602D01*
X252701Y98694D01*
X252262Y97636D01*
X252113Y96500D01*
X252262Y95364D01*
X252701Y94306D01*
X253398Y93398D01*
X254306Y92701D01*
X255364Y92262D01*
X256500Y92113D01*
X257635Y92262D01*
X258694Y92701D01*
X259602Y93398D01*
X260299Y94306D01*
X260738Y95364D01*
X260887Y96500D01*
X260738Y97636D01*
X260299Y98694D01*
X260232Y98781D01*
X262726Y101274D01*
X263101Y101837D01*
X263233Y102500D01*
Y102894D01*
X263733Y103140D01*
X264306Y102701D01*
X265365Y102262D01*
X266500Y102113D01*
X267635Y102262D01*
X268694Y102701D01*
X269304Y103169D01*
X269804Y102922D01*
Y102255D01*
X268096Y100547D01*
X267635Y100738D01*
X266500Y100887D01*
X265365Y100738D01*
X264306Y100299D01*
X263398Y99602D01*
X262701Y98694D01*
X262262Y97636D01*
X262113Y96500D01*
X262262Y95364D01*
X262701Y94306D01*
X263398Y93398D01*
X264306Y92701D01*
X265365Y92262D01*
X266500Y92113D01*
X267635Y92262D01*
X268694Y92701D01*
X269602Y93398D01*
X270299Y94306D01*
X270738Y95364D01*
X270887Y96500D01*
X270738Y97636D01*
X270547Y98096D01*
X272763Y100311D01*
X273138Y100874D01*
X273270Y101537D01*
Y102866D01*
X273770Y103112D01*
X274306Y102701D01*
X275364Y102262D01*
X276500Y102113D01*
X277636Y102262D01*
X278694Y102701D01*
X279267Y103140D01*
X279767Y102894D01*
Y102218D01*
X278096Y100547D01*
X277636Y100738D01*
X276500Y100887D01*
X275364Y100738D01*
X274306Y100299D01*
X273398Y99602D01*
X272701Y98694D01*
X272262Y97636D01*
X272113Y96500D01*
X272262Y95364D01*
X272701Y94306D01*
X273398Y93398D01*
X274306Y92701D01*
X275364Y92262D01*
X276500Y92113D01*
X277636Y92262D01*
X278694Y92701D01*
X279602Y93398D01*
X280299Y94306D01*
X280738Y95364D01*
X280887Y96500D01*
X280738Y97636D01*
X280547Y98096D01*
X282726Y100274D01*
X283101Y100837D01*
X283233Y101500D01*
Y102894D01*
X283733Y103140D01*
X284306Y102701D01*
X285365Y102262D01*
X286500Y102113D01*
X287635Y102262D01*
X288694Y102701D01*
X289267Y103140D01*
X289767Y102894D01*
Y102218D01*
X288096Y100547D01*
X287635Y100738D01*
X286500Y100887D01*
X285365Y100738D01*
X284306Y100299D01*
X283398Y99602D01*
X282701Y98694D01*
X282262Y97636D01*
X282113Y96500D01*
X282262Y95364D01*
X282701Y94306D01*
X283398Y93398D01*
X284306Y92701D01*
X285365Y92262D01*
X286500Y92113D01*
X287635Y92262D01*
X288694Y92701D01*
X289602Y93398D01*
X290299Y94306D01*
X290738Y95364D01*
X290887Y96500D01*
X290738Y97636D01*
X290547Y98096D01*
X292726Y100274D01*
X293101Y100837D01*
X293233Y101500D01*
Y102894D01*
X293733Y103140D01*
X294306Y102701D01*
X295364Y102262D01*
X296500Y102113D01*
X297636Y102262D01*
X298694Y102701D01*
X299267Y103140D01*
X299767Y102894D01*
Y102218D01*
X298096Y100547D01*
X297636Y100738D01*
X296500Y100887D01*
X295364Y100738D01*
X294306Y100299D01*
X293398Y99602D01*
X292701Y98694D01*
X292262Y97636D01*
X292113Y96500D01*
X292262Y95364D01*
X292701Y94306D01*
X293398Y93398D01*
X294306Y92701D01*
X295364Y92262D01*
X296500Y92113D01*
X297636Y92262D01*
X298694Y92701D01*
X299602Y93398D01*
X300299Y94306D01*
X300738Y95364D01*
X300887Y96500D01*
X300738Y97636D01*
X300547Y98096D01*
X302726Y100274D01*
X303101Y100837D01*
X303233Y101500D01*
Y102894D01*
X303733Y103140D01*
X304306Y102701D01*
X305364Y102262D01*
X306500Y102113D01*
X307635Y102262D01*
X308694Y102701D01*
X309267Y103140D01*
X309767Y102894D01*
Y102218D01*
X308096Y100547D01*
X307635Y100738D01*
X306500Y100887D01*
X305364Y100738D01*
X304306Y100299D01*
X303398Y99602D01*
X302701Y98694D01*
X302262Y97636D01*
X302113Y96500D01*
X302262Y95364D01*
X302701Y94306D01*
X303398Y93398D01*
X304306Y92701D01*
X305364Y92262D01*
X306500Y92113D01*
X307635Y92262D01*
X308694Y92701D01*
X309602Y93398D01*
X310299Y94306D01*
X310738Y95364D01*
X310887Y96500D01*
X310738Y97636D01*
X310547Y98096D01*
X312726Y100274D01*
X313101Y100837D01*
X313233Y101500D01*
Y102894D01*
X313733Y103140D01*
X314306Y102701D01*
X315365Y102262D01*
X316500Y102113D01*
X317635Y102262D01*
X318694Y102701D01*
X319267Y103140D01*
X319767Y102894D01*
Y102218D01*
X318096Y100547D01*
X317635Y100738D01*
X316500Y100887D01*
X315365Y100738D01*
X314306Y100299D01*
X313398Y99602D01*
X312701Y98694D01*
X312262Y97636D01*
X312113Y96500D01*
X312262Y95364D01*
X312701Y94306D01*
X313398Y93398D01*
X314306Y92701D01*
X315365Y92262D01*
X316500Y92113D01*
X317635Y92262D01*
X318694Y92701D01*
X319602Y93398D01*
X320299Y94306D01*
X320738Y95364D01*
X320887Y96500D01*
X320738Y97636D01*
X320547Y98096D01*
X322726Y100274D01*
X323101Y100837D01*
X323233Y101500D01*
Y102894D01*
X323733Y103140D01*
X324306Y102701D01*
X325364Y102262D01*
X326500Y102113D01*
X327636Y102262D01*
X328694Y102701D01*
X329267Y103140D01*
X329767Y102894D01*
Y102218D01*
X328096Y100547D01*
X327636Y100738D01*
X326500Y100887D01*
X325364Y100738D01*
X324306Y100299D01*
X323398Y99602D01*
X322701Y98694D01*
X322262Y97636D01*
X322113Y96500D01*
X322262Y95364D01*
X322701Y94306D01*
X323398Y93398D01*
X324306Y92701D01*
X325364Y92262D01*
X326500Y92113D01*
X327636Y92262D01*
X328694Y92701D01*
X329602Y93398D01*
X330299Y94306D01*
X330738Y95364D01*
X330887Y96500D01*
X330738Y97636D01*
X330547Y98096D01*
X332726Y100274D01*
X333101Y100837D01*
X333233Y101500D01*
Y102894D01*
X333733Y103140D01*
X334306Y102701D01*
X335365Y102262D01*
X336500Y102113D01*
X337635Y102262D01*
X338694Y102701D01*
X339602Y103398D01*
X340299Y104306D01*
X340738Y105365D01*
X340887Y106500D01*
X340738Y107635D01*
X340299Y108694D01*
X339602Y109602D01*
X338694Y110299D01*
X338233Y110490D01*
Y116500D01*
X338101Y117163D01*
X337726Y117726D01*
X314746Y140706D01*
X314992Y141166D01*
X315000Y141165D01*
X315702Y141304D01*
X316298Y141702D01*
X316696Y142298D01*
X316835Y143000D01*
X316696Y143702D01*
X316298Y144298D01*
X315863Y144588D01*
X315436Y145016D01*
X315643Y145516D01*
X316172D01*
Y147500D01*
Y149484D01*
X315307D01*
X315269Y151484D01*
Y159197D01*
X315176Y159665D01*
X314910Y160062D01*
X314268Y160704D01*
X313871Y160969D01*
X313403Y161063D01*
X312112Y161063D01*
X312002Y161613D01*
X311628Y162173D01*
X311069Y162547D01*
X310408Y162678D01*
X306668D01*
X306008Y162547D01*
X305448Y162173D01*
X305074Y161613D01*
X304943Y160953D01*
X304974Y160797D01*
X304835Y160704D01*
X304835Y160704D01*
X304570Y160307D01*
X304476Y159839D01*
Y159700D01*
X303976Y159372D01*
X303500Y159467D01*
X302798Y159327D01*
X302202Y158929D01*
X301804Y158334D01*
X301665Y157632D01*
X301804Y156929D01*
X302202Y156334D01*
X302280Y156282D01*
Y155782D01*
X302202Y155729D01*
X301804Y155134D01*
X301675Y154483D01*
X301490Y154370D01*
X301189Y154263D01*
X297733Y157718D01*
Y179000D01*
X297601Y179663D01*
X297226Y180226D01*
X285226Y192226D01*
X284663Y192601D01*
X284000Y192733D01*
X279466D01*
X279275Y193195D01*
X305067Y218988D01*
X305529Y218796D01*
X305529Y210198D01*
X305622Y209730D01*
X305887Y209333D01*
X306284Y209068D01*
X306752Y208975D01*
X309570Y208975D01*
X310038Y209068D01*
X310435Y209333D01*
X310700Y209730D01*
X310793Y210198D01*
X310793Y215315D01*
X311443Y215965D01*
X313434D01*
Y209450D01*
X317803D01*
Y216574D01*
X316763D01*
Y217626D01*
X316787Y217744D01*
Y222037D01*
X317230Y222126D01*
X317627Y222391D01*
X319528Y224292D01*
X319677Y224516D01*
X320400D01*
Y226500D01*
X321000D01*
Y227100D01*
X322787D01*
Y228257D01*
X333506D01*
X334364Y228428D01*
X335092Y228914D01*
X339273Y233096D01*
X339734Y232849D01*
X339665Y232500D01*
X339804Y231798D01*
X340202Y231202D01*
X340420Y231057D01*
X342207Y229270D01*
X342207Y229270D01*
X342786Y228883D01*
X343468Y228747D01*
X343879D01*
Y227363D01*
X349428D01*
Y233700D01*
X343879D01*
Y233298D01*
X343417Y233107D01*
X342943Y233580D01*
X342829Y233751D01*
X342883Y233972D01*
X343019Y234251D01*
X346210D01*
X346506Y234310D01*
X347765D01*
Y234310D01*
X351512D01*
Y233700D01*
X350572D01*
Y227363D01*
X356121D01*
Y233700D01*
X355488D01*
Y235615D01*
X355337Y236376D01*
X354906Y237021D01*
X354027Y237900D01*
X353382Y238331D01*
X352621Y238482D01*
X351740D01*
Y238678D01*
X348598D01*
Y242161D01*
X348694Y242201D01*
X349602Y242898D01*
X350299Y243806D01*
X350738Y244865D01*
X350887Y246000D01*
X350738Y247135D01*
X350299Y248194D01*
X349602Y249102D01*
X348694Y249799D01*
X347636Y250238D01*
X346500Y250387D01*
X345364Y250238D01*
X344306Y249799D01*
X343398Y249102D01*
X342701Y248194D01*
X342262Y247135D01*
X342113Y246000D01*
X342262Y244865D01*
X342701Y243806D01*
X343398Y242898D01*
X344112Y242350D01*
Y238737D01*
X339500D01*
X338641Y238566D01*
X337914Y238080D01*
X333417Y233583D01*
X332577Y232743D01*
X331920D01*
X331728Y233205D01*
X337762Y239238D01*
X337762Y239238D01*
X338148Y239817D01*
X338284Y240500D01*
Y242031D01*
X338694Y242201D01*
X339602Y242898D01*
X340299Y243806D01*
X340738Y244865D01*
X340887Y246000D01*
X340738Y247135D01*
X340299Y248194D01*
X339602Y249102D01*
X338694Y249799D01*
X337635Y250238D01*
X336500Y250387D01*
X335365Y250238D01*
X334306Y249799D01*
X333784Y249399D01*
X333284Y249645D01*
Y251000D01*
X333284Y251000D01*
X333149Y251683D01*
X332762Y252262D01*
X332762Y252262D01*
X330568Y254455D01*
X330738Y254865D01*
X330887Y256000D01*
X330738Y257136D01*
X330299Y258194D01*
X329602Y259102D01*
X328694Y259799D01*
X327636Y260238D01*
X326500Y260387D01*
X325364Y260238D01*
X324306Y259799D01*
X323398Y259102D01*
X322701Y258194D01*
X322262Y257136D01*
X322113Y256000D01*
X322262Y254865D01*
X322701Y253806D01*
X323398Y252898D01*
X324306Y252201D01*
X325364Y251762D01*
X326500Y251613D01*
X327636Y251762D01*
X328045Y251932D01*
X329716Y250261D01*
Y249645D01*
X329216Y249399D01*
X328694Y249799D01*
X327636Y250238D01*
X326500Y250387D01*
X325364Y250238D01*
X324306Y249799D01*
X323784Y249399D01*
X323284Y249645D01*
Y251000D01*
X323284Y251000D01*
X323148Y251683D01*
X322762Y252262D01*
X322762Y252262D01*
X320568Y254455D01*
X320738Y254865D01*
X320887Y256000D01*
X320738Y257136D01*
X320299Y258194D01*
X319602Y259102D01*
X318694Y259799D01*
X317635Y260238D01*
X316500Y260387D01*
X315365Y260238D01*
X314306Y259799D01*
X313398Y259102D01*
X312701Y258194D01*
X312262Y257136D01*
X312113Y256000D01*
X312262Y254865D01*
X312701Y253806D01*
X313398Y252898D01*
X314306Y252201D01*
X315365Y251762D01*
X316500Y251613D01*
X317635Y251762D01*
X318045Y251932D01*
X319716Y250261D01*
Y249645D01*
X319216Y249399D01*
X318694Y249799D01*
X317635Y250238D01*
X316500Y250387D01*
X315365Y250238D01*
X314306Y249799D01*
X313784Y249399D01*
X313284Y249645D01*
Y251000D01*
X313284Y251000D01*
X313148Y251683D01*
X312762Y252262D01*
X312762Y252262D01*
X310568Y254455D01*
X310738Y254865D01*
X310887Y256000D01*
X310738Y257136D01*
X310299Y258194D01*
X309602Y259102D01*
X308694Y259799D01*
X307635Y260238D01*
X306500Y260387D01*
X305364Y260238D01*
X304306Y259799D01*
X303398Y259102D01*
X302701Y258194D01*
X302262Y257136D01*
X302113Y256000D01*
X302262Y254865D01*
X302701Y253806D01*
X303398Y252898D01*
X304306Y252201D01*
X305364Y251762D01*
X306500Y251613D01*
X307635Y251762D01*
X308045Y251932D01*
X309716Y250261D01*
Y249645D01*
X309216Y249399D01*
X308694Y249799D01*
X307635Y250238D01*
X306500Y250387D01*
X305364Y250238D01*
X304306Y249799D01*
X303784Y249399D01*
X303284Y249645D01*
Y251000D01*
X303284Y251000D01*
X303149Y251683D01*
X302762Y252262D01*
X302762Y252262D01*
X300568Y254455D01*
X300738Y254865D01*
X300887Y256000D01*
X300738Y257136D01*
X300299Y258194D01*
X299602Y259102D01*
X298694Y259799D01*
X297636Y260238D01*
X296500Y260387D01*
X295364Y260238D01*
X294306Y259799D01*
X293398Y259102D01*
X292701Y258194D01*
X292262Y257136D01*
X292113Y256000D01*
X292262Y254865D01*
X292701Y253806D01*
X293398Y252898D01*
X294306Y252201D01*
X295364Y251762D01*
X296500Y251613D01*
X297636Y251762D01*
X298045Y251932D01*
X299716Y250261D01*
Y249645D01*
X299216Y249399D01*
X298694Y249799D01*
X297636Y250238D01*
X296500Y250387D01*
X295364Y250238D01*
X294306Y249799D01*
X293784Y249399D01*
X293284Y249645D01*
Y251000D01*
X293284Y251000D01*
X293148Y251683D01*
X292762Y252262D01*
X292762Y252262D01*
X290568Y254455D01*
X290738Y254865D01*
X290887Y256000D01*
X290738Y257136D01*
X290299Y258194D01*
X289602Y259102D01*
X288694Y259799D01*
X287635Y260238D01*
X286500Y260387D01*
X285365Y260238D01*
X284306Y259799D01*
X283398Y259102D01*
X282701Y258194D01*
X282262Y257136D01*
X282113Y256000D01*
X282262Y254865D01*
X282701Y253806D01*
X283398Y252898D01*
X284306Y252201D01*
X285365Y251762D01*
X286500Y251613D01*
X287635Y251762D01*
X288045Y251932D01*
X289716Y250261D01*
Y249645D01*
X289216Y249399D01*
X288694Y249799D01*
X287635Y250238D01*
X286500Y250387D01*
X285365Y250238D01*
X284306Y249799D01*
X283784Y249399D01*
X283284Y249645D01*
Y251500D01*
X283149Y252183D01*
X282762Y252762D01*
X280715Y254809D01*
X280738Y254865D01*
X280887Y256000D01*
X280738Y257136D01*
X280299Y258194D01*
X279602Y259102D01*
X278694Y259799D01*
X277636Y260238D01*
X276500Y260387D01*
X275364Y260238D01*
X274306Y259799D01*
X273398Y259102D01*
X272701Y258194D01*
X272262Y257136D01*
X272113Y256000D01*
X272262Y254865D01*
X272701Y253806D01*
X273398Y252898D01*
X274306Y252201D01*
X275364Y251762D01*
X276500Y251613D01*
X277636Y251762D01*
X278398Y252078D01*
X279716Y250761D01*
Y249645D01*
X279216Y249399D01*
X278694Y249799D01*
X277636Y250238D01*
X276500Y250387D01*
X275364Y250238D01*
X274306Y249799D01*
X273784Y249399D01*
X273284Y249645D01*
Y251000D01*
X273284Y251000D01*
X273148Y251683D01*
X272762Y252262D01*
X272762Y252262D01*
X270568Y254455D01*
X270738Y254865D01*
X270887Y256000D01*
X270738Y257136D01*
X270299Y258194D01*
X269602Y259102D01*
X268694Y259799D01*
X267635Y260238D01*
X266500Y260387D01*
X265365Y260238D01*
X264306Y259799D01*
X263398Y259102D01*
X262701Y258194D01*
X262262Y257136D01*
X262113Y256000D01*
X262262Y254865D01*
X262701Y253806D01*
X263398Y252898D01*
X264306Y252201D01*
X265365Y251762D01*
X266500Y251613D01*
X267635Y251762D01*
X268045Y251932D01*
X269716Y250261D01*
Y249645D01*
X269216Y249399D01*
X268694Y249799D01*
X267635Y250238D01*
X266500Y250387D01*
X265365Y250238D01*
X264306Y249799D01*
X263398Y249102D01*
X262701Y248194D01*
X262262Y247135D01*
X262113Y246000D01*
X262262Y244865D01*
X262701Y243806D01*
X263398Y242898D01*
X264306Y242201D01*
X265365Y241762D01*
X266500Y241613D01*
X267635Y241762D01*
X268694Y242201D01*
X269216Y242601D01*
X269716Y242355D01*
Y222366D01*
X261763Y214413D01*
X261220Y214578D01*
X261196Y214702D01*
X260798Y215298D01*
X260719Y215350D01*
Y215850D01*
X260798Y215902D01*
X261196Y216498D01*
X261335Y217200D01*
X261196Y217902D01*
X260798Y218498D01*
X260202Y218896D01*
X259500Y219035D01*
X258798Y218896D01*
X258675Y218813D01*
X258356Y219202D01*
X260206Y221052D01*
X260702Y221202D01*
X261298Y220804D01*
X262000Y220665D01*
X262702Y220804D01*
X263298Y221202D01*
X263696Y221798D01*
X263835Y222500D01*
X263696Y223202D01*
X263298Y223798D01*
X263219Y223850D01*
Y224350D01*
X263298Y224402D01*
X263696Y224998D01*
X263835Y225700D01*
X263696Y226402D01*
X263298Y226998D01*
X262702Y227396D01*
X262000Y227535D01*
X261298Y227396D01*
X260702Y226998D01*
X260304Y226402D01*
X259835Y226531D01*
X259784Y226552D01*
Y230000D01*
X259648Y230683D01*
X259262Y231262D01*
X259262Y231262D01*
X248814Y241709D01*
X248788Y241816D01*
X248857Y242326D01*
X249602Y242898D01*
X250299Y243806D01*
X250738Y244865D01*
X250887Y246000D01*
X250738Y247135D01*
X250299Y248194D01*
X249602Y249102D01*
X248694Y249799D01*
X247636Y250238D01*
X246500Y250387D01*
X245364Y250238D01*
X244306Y249799D01*
X243733Y249360D01*
X243233Y249606D01*
Y251000D01*
X243101Y251663D01*
X242726Y252226D01*
X240547Y254404D01*
X240738Y254865D01*
X240887Y256000D01*
X240738Y257136D01*
X240299Y258194D01*
X239602Y259102D01*
X238694Y259799D01*
X237635Y260238D01*
X236500Y260387D01*
X235365Y260238D01*
X234306Y259799D01*
X233398Y259102D01*
X232701Y258194D01*
X232262Y257136D01*
X232113Y256000D01*
X232262Y254865D01*
X232701Y253806D01*
X233398Y252898D01*
X234306Y252201D01*
X235365Y251762D01*
X236500Y251613D01*
X237635Y251762D01*
X238096Y251953D01*
X239767Y250282D01*
Y249606D01*
X239267Y249360D01*
X238694Y249799D01*
X237635Y250238D01*
X236500Y250387D01*
X235365Y250238D01*
X234306Y249799D01*
X233398Y249102D01*
X232701Y248194D01*
X232262Y247135D01*
X232113Y246000D01*
X232262Y244865D01*
X232701Y243806D01*
X233398Y242898D01*
X234306Y242201D01*
X234767Y242010D01*
Y234718D01*
X228695Y228646D01*
X228233Y228838D01*
Y242010D01*
X228694Y242201D01*
X229602Y242898D01*
X230299Y243806D01*
X230738Y244865D01*
X230887Y246000D01*
X230738Y247135D01*
X230299Y248194D01*
X229602Y249102D01*
X228694Y249799D01*
X227636Y250238D01*
X226500Y250387D01*
X225364Y250238D01*
X224306Y249799D01*
X223733Y249360D01*
X223233Y249606D01*
Y250282D01*
X224904Y251953D01*
X225364Y251762D01*
X226500Y251613D01*
X227636Y251762D01*
X228694Y252201D01*
X229602Y252898D01*
X230299Y253806D01*
X230738Y254865D01*
X230887Y256000D01*
X230738Y257136D01*
X230299Y258194D01*
X229602Y259102D01*
X228694Y259799D01*
X227636Y260238D01*
X226500Y260387D01*
X225364Y260238D01*
X224306Y259799D01*
X223398Y259102D01*
X222701Y258194D01*
X222262Y257136D01*
X222113Y256000D01*
X222262Y254865D01*
X222453Y254404D01*
X220274Y252226D01*
X219899Y251663D01*
X219767Y251000D01*
Y249606D01*
X219267Y249360D01*
X218694Y249799D01*
X217635Y250238D01*
X216500Y250387D01*
X215365Y250238D01*
X214306Y249799D01*
X213733Y249360D01*
X213233Y249606D01*
Y250282D01*
X214904Y251953D01*
X215365Y251762D01*
X216500Y251613D01*
X217635Y251762D01*
X218694Y252201D01*
X219602Y252898D01*
X220299Y253806D01*
X220738Y254865D01*
X220887Y256000D01*
X220738Y257136D01*
X220299Y258194D01*
X219602Y259102D01*
X218694Y259799D01*
X217635Y260238D01*
X216500Y260387D01*
X215365Y260238D01*
X214306Y259799D01*
X213398Y259102D01*
X212701Y258194D01*
X212262Y257136D01*
X212113Y256000D01*
X212262Y254865D01*
X212453Y254404D01*
X210274Y252226D01*
X209899Y251663D01*
X209767Y251000D01*
Y249606D01*
X209267Y249360D01*
X208694Y249799D01*
X207635Y250238D01*
X206500Y250387D01*
X205364Y250238D01*
X204306Y249799D01*
X203733Y249360D01*
X203233Y249606D01*
Y250282D01*
X204904Y251953D01*
X205364Y251762D01*
X206500Y251613D01*
X207635Y251762D01*
X208694Y252201D01*
X209602Y252898D01*
X210299Y253806D01*
X210738Y254865D01*
X210887Y256000D01*
X210738Y257136D01*
X210299Y258194D01*
X209602Y259102D01*
X208694Y259799D01*
X207635Y260238D01*
X206500Y260387D01*
X205364Y260238D01*
X204306Y259799D01*
X203398Y259102D01*
X202701Y258194D01*
X202262Y257136D01*
X202113Y256000D01*
X202262Y254865D01*
X202453Y254404D01*
X200274Y252226D01*
X199899Y251663D01*
X199767Y251000D01*
Y249606D01*
X199267Y249360D01*
X198694Y249799D01*
X197635Y250238D01*
X196500Y250387D01*
X195364Y250238D01*
X194306Y249799D01*
X193725Y249353D01*
X193225Y249600D01*
Y250273D01*
X194904Y251953D01*
X195364Y251762D01*
X196500Y251613D01*
X197635Y251762D01*
X198694Y252201D01*
X199602Y252898D01*
X200299Y253806D01*
X200738Y254865D01*
X200887Y256000D01*
X200738Y257136D01*
X200299Y258194D01*
X199602Y259102D01*
X198694Y259799D01*
X197635Y260238D01*
X196500Y260387D01*
X195364Y260238D01*
X194306Y259799D01*
X193398Y259102D01*
X192701Y258194D01*
X192262Y257136D01*
X192113Y256000D01*
X192262Y254865D01*
X192453Y254404D01*
X190266Y252217D01*
X189890Y251655D01*
X189758Y250991D01*
Y249613D01*
X189258Y249366D01*
X188694Y249799D01*
X187636Y250238D01*
X186500Y250387D01*
X185364Y250238D01*
X184306Y249799D01*
X183733Y249360D01*
X183233Y249606D01*
Y250282D01*
X184904Y251953D01*
X185364Y251762D01*
X186500Y251613D01*
X187636Y251762D01*
X188694Y252201D01*
X189602Y252898D01*
X190299Y253806D01*
X190738Y254865D01*
X190887Y256000D01*
X190738Y257136D01*
X190299Y258194D01*
X189602Y259102D01*
X188694Y259799D01*
X187636Y260238D01*
X186500Y260387D01*
X185364Y260238D01*
X184306Y259799D01*
X183398Y259102D01*
X182701Y258194D01*
X182262Y257136D01*
X182113Y256000D01*
X182262Y254865D01*
X182453Y254404D01*
X180274Y252226D01*
X179899Y251663D01*
X179767Y251000D01*
Y249606D01*
X179267Y249360D01*
X178694Y249799D01*
X177636Y250238D01*
X176500Y250387D01*
X175364Y250238D01*
X174306Y249799D01*
X173733Y249360D01*
X173233Y249606D01*
Y250282D01*
X174904Y251953D01*
X175364Y251762D01*
X176500Y251613D01*
X177636Y251762D01*
X178694Y252201D01*
X179602Y252898D01*
X180299Y253806D01*
X180738Y254865D01*
X180887Y256000D01*
X180738Y257136D01*
X180299Y258194D01*
X179602Y259102D01*
X178694Y259799D01*
X177636Y260238D01*
X176500Y260387D01*
X175364Y260238D01*
X174306Y259799D01*
X173398Y259102D01*
X172701Y258194D01*
X172262Y257136D01*
X172113Y256000D01*
X172262Y254865D01*
X172453Y254404D01*
X170274Y252226D01*
X169899Y251663D01*
X169767Y251000D01*
Y249606D01*
X169267Y249360D01*
X168694Y249799D01*
X167636Y250238D01*
X166500Y250387D01*
X165365Y250238D01*
X164306Y249799D01*
X163733Y249360D01*
X163233Y249606D01*
Y250282D01*
X164904Y251953D01*
X165365Y251762D01*
X166500Y251613D01*
X167636Y251762D01*
X168694Y252201D01*
X169602Y252898D01*
X170299Y253806D01*
X170738Y254865D01*
X170887Y256000D01*
X170738Y257136D01*
X170299Y258194D01*
X169602Y259102D01*
X168694Y259799D01*
X167636Y260238D01*
X166500Y260387D01*
X165365Y260238D01*
X164306Y259799D01*
X163398Y259102D01*
X162701Y258194D01*
X162262Y257136D01*
X162113Y256000D01*
X162262Y254865D01*
X162453Y254404D01*
X160274Y252226D01*
X159899Y251663D01*
X159767Y251000D01*
Y249606D01*
X159267Y249360D01*
X158694Y249799D01*
X157635Y250238D01*
X156500Y250387D01*
X155365Y250238D01*
X154306Y249799D01*
X153733Y249360D01*
X153233Y249606D01*
Y250282D01*
X154904Y251953D01*
X155365Y251762D01*
X156500Y251613D01*
X157635Y251762D01*
X158694Y252201D01*
X159602Y252898D01*
X160299Y253806D01*
X160738Y254865D01*
X160887Y256000D01*
X160738Y257136D01*
X160299Y258194D01*
X159602Y259102D01*
X158694Y259799D01*
X157635Y260238D01*
X156500Y260387D01*
X155365Y260238D01*
X154306Y259799D01*
X153398Y259102D01*
X152701Y258194D01*
X152262Y257136D01*
X152113Y256000D01*
X152262Y254865D01*
X152453Y254404D01*
X150274Y252226D01*
X149899Y251663D01*
X149767Y251000D01*
Y249606D01*
X149267Y249360D01*
X148694Y249799D01*
X147635Y250238D01*
X146500Y250387D01*
X145364Y250238D01*
X144306Y249799D01*
X144185Y249706D01*
X143737Y249927D01*
Y250785D01*
X144904Y251953D01*
X145364Y251762D01*
X146500Y251613D01*
X147635Y251762D01*
X148694Y252201D01*
X149602Y252898D01*
X150299Y253806D01*
X150738Y254865D01*
X150887Y256000D01*
X150738Y257136D01*
X150299Y258194D01*
X149602Y259102D01*
X148694Y259799D01*
X147635Y260238D01*
X146500Y260387D01*
X145364Y260238D01*
X144306Y259799D01*
X143398Y259102D01*
X142701Y258194D01*
X142262Y257136D01*
X142113Y256000D01*
X142262Y254865D01*
X142453Y254404D01*
X141413Y253365D01*
X140952Y253556D01*
Y256462D01*
X140952Y256962D01*
D01*
X140997Y257439D01*
X141084Y258099D01*
X141523Y259158D01*
X142221Y260068D01*
X143131Y260767D01*
X144191Y261205D01*
X144843Y261291D01*
X145328Y261338D01*
X145328Y261338D01*
X145819Y261338D01*
X357926D01*
X357926Y261338D01*
D02*
G37*
G36*
X244306Y242201D02*
X245015Y241907D01*
Y241200D01*
X245151Y240518D01*
X245538Y239939D01*
X256216Y229261D01*
Y225293D01*
X255228Y224305D01*
X254941Y224592D01*
X253677Y223328D01*
X253253Y223753D01*
X252829Y223328D01*
X251425Y224732D01*
X250750Y224056D01*
X250608Y224198D01*
X247797Y221387D01*
X248080Y221104D01*
X247364Y220387D01*
X247146Y220061D01*
X246646Y220213D01*
Y221841D01*
X247113Y222080D01*
X247113D01*
X248092Y223059D01*
X246828Y224323D01*
X247252Y224747D01*
X246828Y225171D01*
X248231Y226575D01*
X247555Y227250D01*
X247697Y227392D01*
X247517Y227572D01*
X248709Y228763D01*
X248726Y228774D01*
X249363Y229412D01*
X249798Y229702D01*
X250196Y230298D01*
X250335Y231000D01*
X250196Y231702D01*
X249798Y232298D01*
X249202Y232696D01*
X248500Y232835D01*
X247798Y232696D01*
X247202Y232298D01*
X246912Y231863D01*
X246285Y231237D01*
X246269Y231226D01*
X245066Y230023D01*
X244886Y230203D01*
X241797Y227114D01*
X241980Y226931D01*
X241921Y226872D01*
X241545Y226310D01*
X241413Y225646D01*
Y223995D01*
X241545Y223331D01*
X241921Y222769D01*
X243179Y221511D01*
Y220526D01*
X243109Y220455D01*
X242683Y220171D01*
X238507Y215995D01*
X238112Y215403D01*
X238037Y215028D01*
X237494Y214863D01*
X236756Y215601D01*
X236493Y215995D01*
X232318Y220171D01*
X231924Y220434D01*
X231233Y221125D01*
Y223782D01*
X242726Y235274D01*
X243101Y235837D01*
X243233Y236500D01*
Y242394D01*
X243733Y242640D01*
X244306Y242201D01*
D02*
G37*
G36*
X149774Y229774D02*
X150337Y229399D01*
X151000Y229267D01*
X162511D01*
X170982Y220796D01*
X170663Y220407D01*
X170587Y220458D01*
X170232Y220696D01*
X169530Y220835D01*
X169017Y220733D01*
X165601D01*
X165197Y221260D01*
X164535Y221768D01*
X163764Y222087D01*
X162937Y222196D01*
X155063D01*
X154236Y222087D01*
X153465Y221768D01*
X152803Y221260D01*
X152295Y220598D01*
X151976Y219827D01*
X151867Y219000D01*
X151976Y218173D01*
X152295Y217402D01*
X152803Y216740D01*
X153465Y216232D01*
X154236Y215913D01*
X155063Y215804D01*
X162937D01*
X163764Y215913D01*
X164535Y216232D01*
X165197Y216740D01*
X165601Y217267D01*
X169017D01*
X169530Y217165D01*
X170232Y217304D01*
X170827Y217702D01*
X171225Y218298D01*
X171365Y219000D01*
X171225Y219702D01*
X170988Y220057D01*
X170937Y220134D01*
X171325Y220452D01*
X189031Y202746D01*
X188840Y202284D01*
X186500D01*
X185817Y202149D01*
X185238Y201762D01*
X185238Y201762D01*
X181238Y197762D01*
X180851Y197183D01*
X180716Y196500D01*
Y173942D01*
X165622Y158849D01*
X165622Y158848D01*
X162964Y156190D01*
X159183D01*
X159011Y156224D01*
X156299D01*
X153030Y159493D01*
Y163684D01*
X149056D01*
Y163484D01*
X148100D01*
Y161500D01*
Y159516D01*
X149056D01*
Y159315D01*
X149259D01*
Y158957D01*
X149395Y158274D01*
X149781Y157695D01*
X153785Y153691D01*
X153539Y153230D01*
X153500Y153238D01*
X149739D01*
Y156190D01*
X141513D01*
Y146310D01*
X149739D01*
Y149262D01*
X151512D01*
Y146500D01*
X151663Y145739D01*
X152094Y145094D01*
X153569Y143620D01*
X153741Y143185D01*
X153500Y142784D01*
X153030D01*
Y143184D01*
X149056D01*
Y142984D01*
X148100D01*
Y141000D01*
Y139016D01*
X149056D01*
Y138815D01*
X153030D01*
Y139216D01*
X153741D01*
Y138816D01*
X153944D01*
Y137472D01*
X154080Y136789D01*
X154467Y136210D01*
X157261Y133417D01*
Y126060D01*
X158383D01*
X158574Y125598D01*
X156420Y123443D01*
X156202Y123298D01*
X155804Y122702D01*
X155665Y122000D01*
X155804Y121298D01*
X156202Y120702D01*
X156798Y120304D01*
X157116Y120241D01*
X157281Y119699D01*
X150866Y113284D01*
X143500D01*
X142817Y113148D01*
X142238Y112762D01*
X142238Y112762D01*
X141452Y111975D01*
X140952Y112182D01*
Y237944D01*
X141413Y238135D01*
X149774Y229774D01*
D02*
G37*
G36*
X318663Y225157D02*
X316761Y223256D01*
X315563D01*
Y217744D01*
X315007Y217188D01*
X310937D01*
X309570Y215821D01*
X309570Y210198D01*
X306752Y210198D01*
X306752Y219957D01*
X310051Y223256D01*
X311632D01*
X316340Y227964D01*
X318663D01*
Y225157D01*
D02*
G37*
G36*
X234367Y211211D02*
X234767Y210860D01*
Y207513D01*
X234665Y207000D01*
X234804Y206298D01*
X235202Y205702D01*
X235798Y205304D01*
X236047Y205255D01*
Y204745D01*
X235798Y204696D01*
X235202Y204298D01*
X234804Y203702D01*
X234665Y203000D01*
X234804Y202298D01*
X235202Y201702D01*
X235798Y201304D01*
X236500Y201165D01*
X236756Y201216D01*
X239500D01*
X240183Y201351D01*
X240762Y201738D01*
X245236Y206212D01*
X245236Y206212D01*
X245834Y206208D01*
X246059Y206058D01*
X246396Y205991D01*
X246463Y205654D01*
X246859Y205061D01*
X247451Y204666D01*
X247788Y204599D01*
X247855Y204262D01*
X248251Y203670D01*
X248843Y203274D01*
X249180Y203207D01*
X249247Y202870D01*
X249643Y202277D01*
X250235Y201882D01*
X250572Y201815D01*
X250639Y201478D01*
X251035Y200886D01*
X251627Y200490D01*
X251964Y200423D01*
X252031Y200086D01*
X252427Y199494D01*
X253019Y199098D01*
X253356Y199031D01*
X253423Y198694D01*
X253819Y198102D01*
X254411Y197706D01*
X254748Y197639D01*
X254815Y197302D01*
X255211Y196710D01*
X255803Y196314D01*
X256140Y196247D01*
X256207Y195910D01*
X256603Y195318D01*
X257195Y194922D01*
X257532Y194855D01*
X257599Y194518D01*
X257995Y193926D01*
X258587Y193530D01*
X258924Y193463D01*
X258991Y193126D01*
X259386Y192534D01*
X259979Y192138D01*
X260316Y192071D01*
X260383Y191734D01*
X260778Y191142D01*
X261371Y190746D01*
X261708Y190679D01*
X261775Y190342D01*
X262170Y189750D01*
X262763Y189354D01*
X263100Y189287D01*
X263167Y188950D01*
X263562Y188358D01*
X264155Y187962D01*
X264492Y187895D01*
X264559Y187558D01*
X264954Y186966D01*
X265546Y186570D01*
X265883Y186503D01*
X265950Y186167D01*
X266346Y185574D01*
X266938Y185178D01*
X267275Y185111D01*
X267342Y184775D01*
X267738Y184182D01*
X268330Y183786D01*
X268667Y183720D01*
X268734Y183383D01*
X269130Y182790D01*
X269722Y182395D01*
X270059Y182328D01*
X270126Y181991D01*
X270522Y181398D01*
X271114Y181003D01*
X271451Y180936D01*
X271518Y180599D01*
X271914Y180007D01*
X272506Y179611D01*
X273205Y179472D01*
X273903Y179611D01*
X274496Y180007D01*
X278672Y184182D01*
X278935Y184576D01*
X279626Y185267D01*
X281282D01*
X290267Y176282D01*
Y157177D01*
X289805Y156985D01*
X283162Y163628D01*
X283592Y164059D01*
X282329Y165323D01*
X282753Y165747D01*
X282329Y166172D01*
X283732Y167575D01*
X283438Y167868D01*
X283526Y168196D01*
X283898Y168296D01*
X284173Y168021D01*
X285576Y169424D01*
X286979Y170827D01*
X286303Y171503D01*
X286445Y171645D01*
X286143Y171947D01*
X287226Y173030D01*
X287601Y173592D01*
X287620Y173684D01*
X287696Y173798D01*
X287835Y174500D01*
X287696Y175202D01*
X287298Y175798D01*
X286702Y176196D01*
X286000Y176335D01*
X285298Y176196D01*
X284702Y175798D01*
X284304Y175202D01*
X284257Y174963D01*
X283692Y174398D01*
X283634Y174455D01*
X282278Y173100D01*
X279307D01*
X278836Y173571D01*
X278672Y173817D01*
X274496Y177993D01*
X273903Y178388D01*
X273205Y178527D01*
X272506Y178388D01*
X271914Y177993D01*
X271518Y177400D01*
X271451Y177064D01*
X271114Y176996D01*
X270522Y176601D01*
X270126Y176008D01*
X270059Y175672D01*
X269722Y175604D01*
X269130Y175209D01*
X268734Y174617D01*
X268667Y174280D01*
X268330Y174213D01*
X267738Y173817D01*
X267342Y173224D01*
X267275Y172888D01*
X266938Y172821D01*
X266346Y172425D01*
X265950Y171833D01*
X265883Y171496D01*
X265546Y171429D01*
X264954Y171033D01*
X264559Y170441D01*
X264492Y170104D01*
X264155Y170037D01*
X263562Y169641D01*
X263167Y169049D01*
X263100Y168712D01*
X262763Y168645D01*
X262170Y168249D01*
X261775Y167657D01*
X261708Y167320D01*
X261371Y167253D01*
X260778Y166857D01*
X260383Y166265D01*
X260316Y165928D01*
X259979Y165861D01*
X259386Y165465D01*
X258991Y164873D01*
X258924Y164536D01*
X258587Y164469D01*
X257995Y164073D01*
X257599Y163481D01*
X257532Y163144D01*
X257195Y163077D01*
X256603Y162681D01*
X256207Y162089D01*
X256140Y161752D01*
X255803Y161685D01*
X255211Y161289D01*
X254815Y160697D01*
X254748Y160360D01*
X254411Y160293D01*
X253819Y159897D01*
X253423Y159305D01*
X253356Y158968D01*
X253019Y158901D01*
X252427Y158505D01*
X252031Y157913D01*
X251964Y157576D01*
X251627Y157509D01*
X251035Y157114D01*
X250639Y156521D01*
X250572Y156184D01*
X250235Y156117D01*
X249643Y155722D01*
X249247Y155129D01*
X249180Y154792D01*
X248843Y154725D01*
X248251Y154330D01*
X247855Y153737D01*
X247788Y153400D01*
X247451Y153333D01*
X246859Y152938D01*
X246463Y152345D01*
X246396Y152008D01*
X246059Y151942D01*
X245467Y151546D01*
X245071Y150953D01*
X245004Y150617D01*
X244667Y150549D01*
X244075Y150154D01*
X243679Y149562D01*
X243612Y149225D01*
X243275Y149158D01*
X242683Y148762D01*
X242287Y148170D01*
X242220Y147833D01*
X241883Y147766D01*
X241291Y147370D01*
X240896Y146778D01*
X240786Y146228D01*
X240570Y146185D01*
X240552Y146174D01*
X240784Y145942D01*
X240895Y145380D01*
X241291Y144788D01*
X243379Y142700D01*
X243177Y142498D01*
X241089Y144586D01*
X240497Y144982D01*
X239935Y145094D01*
X239659Y145370D01*
X239496Y145370D01*
X239250Y145447D01*
X239230Y145518D01*
X239101Y146163D01*
X238726Y146726D01*
X235726Y149726D01*
X235163Y150101D01*
X234500Y150233D01*
X232105D01*
X231442Y150101D01*
X231109Y149879D01*
X230926Y150154D01*
X230333Y150549D01*
X229784Y150659D01*
X229741Y150875D01*
X229390Y151401D01*
X229358Y151726D01*
X235226Y157594D01*
X235601Y158156D01*
X235733Y158820D01*
X235733Y158820D01*
Y158987D01*
X235835Y159500D01*
X235696Y160202D01*
X235298Y160798D01*
X234702Y161196D01*
X234000Y161335D01*
X233298Y161196D01*
X232702Y160798D01*
X232304Y160202D01*
X232165Y159500D01*
X232175Y159446D01*
X230383Y157654D01*
X229995Y157973D01*
X230038Y158038D01*
X230178Y158740D01*
X230038Y159443D01*
X229641Y160038D01*
X229045Y160436D01*
X228343Y160576D01*
X227641Y160436D01*
X227045Y160038D01*
X226866Y159770D01*
X224188Y157092D01*
X223966Y157114D01*
X223374Y157509D01*
X223037Y157576D01*
X222970Y157913D01*
X222574Y158505D01*
X222549Y158763D01*
X226262Y162476D01*
X226648Y163054D01*
X226784Y163737D01*
Y163744D01*
X226835Y164000D01*
X226696Y164702D01*
X226298Y165298D01*
X225702Y165696D01*
X225000Y165835D01*
X224298Y165696D01*
X223702Y165298D01*
X223304Y164702D01*
X223270Y164531D01*
X220007Y161268D01*
X219790Y161289D01*
X219198Y161685D01*
X218861Y161752D01*
X218794Y162089D01*
X218398Y162681D01*
X217806Y163077D01*
X217469Y163144D01*
X217402Y163481D01*
X217006Y164073D01*
X216414Y164469D01*
X215865Y164578D01*
X215822Y164795D01*
X215810Y164812D01*
X215579Y164581D01*
X215017Y164469D01*
X214424Y164073D01*
X212336Y161985D01*
X212135Y162187D01*
X214223Y164275D01*
X214618Y164867D01*
X214730Y165429D01*
X214962Y165661D01*
X214944Y165673D01*
X214727Y165716D01*
X214618Y166265D01*
X214223Y166857D01*
X213630Y167253D01*
X213293Y167320D01*
X213226Y167657D01*
X212830Y168249D01*
X212238Y168645D01*
X211901Y168712D01*
X211834Y169049D01*
X211439Y169641D01*
X210846Y170037D01*
X210509Y170104D01*
X210442Y170441D01*
X210047Y171033D01*
X209454Y171429D01*
X209118Y171496D01*
X209050Y171833D01*
X208655Y172425D01*
X208062Y172821D01*
X207726Y172888D01*
X207659Y173224D01*
X207263Y173817D01*
X206670Y174213D01*
X206334Y174280D01*
X206267Y174617D01*
X205871Y175209D01*
X205278Y175604D01*
X204942Y175672D01*
X204875Y176008D01*
X204479Y176601D01*
X203887Y176996D01*
X203550Y177064D01*
X203483Y177400D01*
X203087Y177993D01*
X202495Y178388D01*
X201796Y178527D01*
X201097Y178388D01*
X200505Y177993D01*
X196329Y173817D01*
X196165Y173571D01*
X195827Y173233D01*
X184284D01*
Y195761D01*
X187239Y198716D01*
X190206D01*
X194058Y194864D01*
X193774Y194580D01*
X195177Y193176D01*
X194328Y192328D01*
X192925Y193731D01*
X192545Y193350D01*
X192108Y193197D01*
Y193197D01*
X191637Y193312D01*
X190594Y194355D01*
X190298Y194798D01*
X189702Y195196D01*
X189000Y195335D01*
X188298Y195196D01*
X187702Y194798D01*
X187304Y194202D01*
X187165Y193500D01*
X187304Y192798D01*
X187702Y192202D01*
X188128Y191918D01*
X189479Y190568D01*
X189297Y190386D01*
X192386Y187297D01*
X192566Y187477D01*
X193562Y186481D01*
X194125Y186105D01*
X194640Y186003D01*
X196066Y184576D01*
X196329Y184182D01*
X200505Y180007D01*
X201097Y179611D01*
X201796Y179472D01*
X202495Y179611D01*
X203087Y180007D01*
X203483Y180599D01*
X203592Y181148D01*
X203808Y181191D01*
X204335Y181543D01*
X204592Y181568D01*
X205956Y180204D01*
X206101Y179986D01*
X206697Y179588D01*
X207399Y179449D01*
X208101Y179588D01*
X208697Y179986D01*
X209095Y180582D01*
X209234Y181284D01*
X209095Y181986D01*
X208697Y182582D01*
X208479Y182727D01*
X207241Y183965D01*
X207263Y184182D01*
X207659Y184774D01*
X207726Y185111D01*
X208062Y185178D01*
X208655Y185574D01*
X209050Y186167D01*
X209118Y186503D01*
X209454Y186570D01*
X210047Y186966D01*
X210284Y186989D01*
X212799Y184475D01*
X212804Y184446D01*
X213202Y183851D01*
X213798Y183453D01*
X214500Y183313D01*
X215202Y183453D01*
X215798Y183851D01*
X216196Y184446D01*
X216335Y185148D01*
X216196Y185851D01*
X216165Y185896D01*
X216148Y185979D01*
X215762Y186558D01*
X215762Y186558D01*
X212807Y189513D01*
X212830Y189750D01*
X213226Y190342D01*
X213293Y190679D01*
X213630Y190746D01*
X214223Y191142D01*
X214618Y191734D01*
X214685Y192071D01*
X215022Y192138D01*
X215614Y192534D01*
X216010Y193126D01*
X216077Y193463D01*
X216414Y193530D01*
X217006Y193926D01*
X217402Y194518D01*
X217469Y194855D01*
X217806Y194922D01*
X218398Y195318D01*
X218794Y195910D01*
X218861Y196247D01*
X219198Y196314D01*
X219790Y196710D01*
X220186Y197302D01*
X220253Y197639D01*
X220590Y197706D01*
X221182Y198102D01*
X221578Y198694D01*
X221645Y199031D01*
X221982Y199098D01*
X222574Y199494D01*
X222970Y200086D01*
X223037Y200423D01*
X223374Y200490D01*
X223966Y200886D01*
X224362Y201478D01*
X224429Y201815D01*
X224766Y201882D01*
X225358Y202277D01*
X225754Y202870D01*
X225821Y203207D01*
X226158Y203274D01*
X226750Y203670D01*
X227146Y204262D01*
X227213Y204599D01*
X227550Y204666D01*
X228142Y205061D01*
X228538Y205654D01*
X228605Y205991D01*
X228942Y206058D01*
X229534Y206453D01*
X229930Y207046D01*
X229997Y207382D01*
X230333Y207450D01*
X230926Y207845D01*
X231322Y208438D01*
X231388Y208774D01*
X231725Y208841D01*
X232318Y209237D01*
X232714Y209829D01*
X232781Y210166D01*
X233117Y210233D01*
X233710Y210629D01*
X234042Y211126D01*
X234267Y211241D01*
X234367Y211211D01*
D02*
G37*
G36*
X189735Y160768D02*
X189408Y160441D01*
X190672Y159177D01*
X189823Y158328D01*
X188559Y159592D01*
X187710Y158744D01*
X187017Y159437D01*
X180866Y153285D01*
X185904Y148248D01*
X190271Y152614D01*
X190875D01*
X191558Y152750D01*
X192137Y153137D01*
X192455Y153455D01*
X192613Y153297D01*
X195702Y156386D01*
X195566Y156523D01*
X197759Y158716D01*
X200034D01*
X200225Y158254D01*
X197030Y155059D01*
X196887Y155202D01*
X193798Y152114D01*
X193941Y151970D01*
X193551Y151579D01*
X193164Y151000D01*
X193028Y150317D01*
Y149857D01*
X188661Y145490D01*
X193699Y140453D01*
X199850Y146604D01*
X199244Y147210D01*
X200092Y148059D01*
X198828Y149323D01*
X199253Y149747D01*
X198828Y150171D01*
X200232Y151575D01*
X199556Y152250D01*
X199697Y152392D01*
X199554Y152536D01*
X201596Y154577D01*
X202210Y154484D01*
X202920Y153774D01*
X204324Y155177D01*
X205172Y154329D01*
X203769Y152925D01*
X204445Y152250D01*
X204303Y152108D01*
X204471Y151940D01*
X203608Y151077D01*
X203536Y151029D01*
X203138Y150434D01*
X202998Y149732D01*
X203103Y149204D01*
X203103Y148704D01*
X202125Y147725D01*
X203388Y146461D01*
X202964Y146037D01*
X203388Y145613D01*
X201985Y144210D01*
X202293Y143902D01*
X202278Y143870D01*
X201683Y143758D01*
X199982Y145458D01*
X198029Y143505D01*
X200546Y140989D01*
X199697Y140140D01*
X197181Y142657D01*
X195391Y140867D01*
X195250Y141009D01*
X190212Y135971D01*
X195528Y130655D01*
X198782Y133908D01*
X199471D01*
X199663Y133446D01*
X199143Y132926D01*
X201659Y130410D01*
X204176Y127893D01*
X205965Y129683D01*
X206107Y129541D01*
X211145Y134579D01*
Y134579D01*
X211346Y135085D01*
X212206Y135946D01*
X210943Y137210D01*
X211367Y137634D01*
X210943Y138059D01*
X212346Y139462D01*
X211670Y140137D01*
X211811Y140279D01*
X210785Y141305D01*
Y142441D01*
X212337Y143993D01*
X212480Y143849D01*
X215053Y146422D01*
X215629Y145846D01*
Y135581D01*
X202860Y122811D01*
X186078D01*
X185415Y122679D01*
X184853Y122304D01*
X180774Y118226D01*
X180399Y117663D01*
X180267Y117000D01*
Y109514D01*
X179793Y109353D01*
X179602Y109602D01*
X178694Y110299D01*
X178233Y110490D01*
Y152651D01*
X186813Y161230D01*
X189544D01*
X189735Y160768D01*
D02*
G37*
G36*
X314045Y159197D02*
Y151472D01*
X314072Y150069D01*
X314096Y148815D01*
X314103Y148459D01*
X314016Y148485D01*
X314072Y148429D01*
Y146493D01*
X309916Y146466D01*
X306135Y150247D01*
Y153242D01*
X306320Y153427D01*
X306668Y153571D01*
X312116D01*
X312116Y158096D01*
X305700Y158123D01*
X305700Y159839D01*
X313403Y159839D01*
X314045Y159197D01*
D02*
G37*
G36*
X250575Y131769D02*
X251250Y132445D01*
X251392Y132303D01*
X251572Y132483D01*
X252406Y131648D01*
X252968Y131273D01*
X253632Y131141D01*
X253681D01*
X254025Y130911D01*
X254632Y130790D01*
X254783Y130509D01*
X254830Y130281D01*
X252274Y127726D01*
X252266Y127714D01*
X247246Y122694D01*
X246784Y122885D01*
Y131530D01*
X247246Y131721D01*
X248886Y130081D01*
X249726Y130920D01*
X248323Y132323D01*
X249171Y133172D01*
X250575Y131769D01*
D02*
G37*
G36*
X242683Y137828D02*
X242793Y137755D01*
X243216Y137332D01*
Y128883D01*
X242775Y128647D01*
X242702Y128696D01*
X242000Y128835D01*
X241486Y128733D01*
X240298D01*
Y128987D01*
X236249D01*
X235929Y128987D01*
Y128987D01*
X235798D01*
X235298Y129105D01*
Y129478D01*
X235319Y129586D01*
Y130914D01*
X235319Y130914D01*
X235319Y130917D01*
X235335Y131000D01*
X235196Y131702D01*
X234798Y132298D01*
X234202Y132696D01*
X233500Y132835D01*
X232798Y132696D01*
X232202Y132298D01*
X231804Y131702D01*
X231665Y131000D01*
X231804Y130298D01*
X231853Y130226D01*
Y129672D01*
X231831Y129564D01*
Y129105D01*
X231380Y128987D01*
D01*
X230962Y128787D01*
X229616D01*
Y127000D01*
X228416D01*
Y128787D01*
X228269D01*
X228142Y128948D01*
X228027Y129287D01*
X228333Y129745D01*
X228465Y130409D01*
Y130992D01*
X238726Y141254D01*
X239210Y141301D01*
X242683Y137828D01*
D02*
G37*
%LPC*%
G36*
X347250Y260087D02*
Y256750D01*
X350587D01*
X350543Y257083D01*
X350125Y258093D01*
X349460Y258960D01*
X348593Y259625D01*
X347583Y260043D01*
X347250Y260087D01*
D02*
G37*
G36*
X257250D02*
Y256750D01*
X260587D01*
X260543Y257083D01*
X260125Y258093D01*
X259459Y258960D01*
X258593Y259625D01*
X257583Y260043D01*
X257250Y260087D01*
D02*
G37*
G36*
X357250D02*
Y256750D01*
X360587D01*
X360543Y257083D01*
X360125Y258093D01*
X359459Y258960D01*
X358593Y259625D01*
X357583Y260043D01*
X357250Y260087D01*
D02*
G37*
G36*
X337250D02*
Y256750D01*
X340587D01*
X340543Y257083D01*
X340125Y258093D01*
X339459Y258960D01*
X338593Y259625D01*
X337583Y260043D01*
X337250Y260087D01*
D02*
G37*
G36*
X247250D02*
Y256750D01*
X250587D01*
X250543Y257083D01*
X250125Y258093D01*
X249460Y258960D01*
X248593Y259625D01*
X247583Y260043D01*
X247250Y260087D01*
D02*
G37*
G36*
X345750D02*
X345417Y260043D01*
X344407Y259625D01*
X343541Y258960D01*
X342875Y258093D01*
X342457Y257083D01*
X342413Y256750D01*
X345750D01*
Y260087D01*
D02*
G37*
G36*
X255750D02*
X255417Y260043D01*
X254407Y259625D01*
X253540Y258960D01*
X252875Y258093D01*
X252457Y257083D01*
X252413Y256750D01*
X255750D01*
Y260087D01*
D02*
G37*
G36*
X355750D02*
X355417Y260043D01*
X354407Y259625D01*
X353540Y258960D01*
X352875Y258093D01*
X352457Y257083D01*
X352413Y256750D01*
X355750D01*
Y260087D01*
D02*
G37*
G36*
X335750D02*
X335417Y260043D01*
X334407Y259625D01*
X333541Y258960D01*
X332875Y258093D01*
X332457Y257083D01*
X332413Y256750D01*
X335750D01*
Y260087D01*
D02*
G37*
G36*
X245750D02*
X245417Y260043D01*
X244407Y259625D01*
X243541Y258960D01*
X242875Y258093D01*
X242457Y257083D01*
X242413Y256750D01*
X245750D01*
Y260087D01*
D02*
G37*
G36*
X360587Y255250D02*
X357250D01*
Y251913D01*
X357583Y251957D01*
X358593Y252375D01*
X359459Y253041D01*
X360125Y253907D01*
X360543Y254917D01*
X360587Y255250D01*
D02*
G37*
G36*
X350587D02*
X347250D01*
Y251913D01*
X347583Y251957D01*
X348593Y252375D01*
X349460Y253041D01*
X350125Y253907D01*
X350543Y254917D01*
X350587Y255250D01*
D02*
G37*
G36*
X340587D02*
X337250D01*
Y251913D01*
X337583Y251957D01*
X338593Y252375D01*
X339459Y253041D01*
X340125Y253907D01*
X340543Y254917D01*
X340587Y255250D01*
D02*
G37*
G36*
X260587D02*
X257250D01*
Y251913D01*
X257583Y251957D01*
X258593Y252375D01*
X259459Y253041D01*
X260125Y253907D01*
X260543Y254917D01*
X260587Y255250D01*
D02*
G37*
G36*
X250587D02*
X247250D01*
Y251913D01*
X247583Y251957D01*
X248593Y252375D01*
X249460Y253041D01*
X250125Y253907D01*
X250543Y254917D01*
X250587Y255250D01*
D02*
G37*
G36*
X355750D02*
X352413D01*
X352457Y254917D01*
X352875Y253907D01*
X353540Y253041D01*
X354407Y252375D01*
X355417Y251957D01*
X355750Y251913D01*
Y255250D01*
D02*
G37*
G36*
X345750D02*
X342413D01*
X342457Y254917D01*
X342875Y253907D01*
X343541Y253041D01*
X344407Y252375D01*
X345417Y251957D01*
X345750Y251913D01*
Y255250D01*
D02*
G37*
G36*
X335750D02*
X332413D01*
X332457Y254917D01*
X332875Y253907D01*
X333541Y253041D01*
X334407Y252375D01*
X335417Y251957D01*
X335750Y251913D01*
Y255250D01*
D02*
G37*
G36*
X255750D02*
X252413D01*
X252457Y254917D01*
X252875Y253907D01*
X253540Y253041D01*
X254407Y252375D01*
X255417Y251957D01*
X255750Y251913D01*
Y255250D01*
D02*
G37*
G36*
X245750D02*
X242413D01*
X242457Y254917D01*
X242875Y253907D01*
X243541Y253041D01*
X244407Y252375D01*
X245417Y251957D01*
X245750Y251913D01*
Y255250D01*
D02*
G37*
G36*
X356500Y250387D02*
X355364Y250238D01*
X354306Y249799D01*
X353398Y249102D01*
X352701Y248194D01*
X352262Y247135D01*
X352113Y246000D01*
X352262Y244865D01*
X352701Y243806D01*
X353398Y242898D01*
X354306Y242201D01*
X355364Y241762D01*
X356500Y241613D01*
X357635Y241762D01*
X358694Y242201D01*
X359602Y242898D01*
X360299Y243806D01*
X360738Y244865D01*
X360887Y246000D01*
X360738Y247135D01*
X360299Y248194D01*
X359602Y249102D01*
X358694Y249799D01*
X357635Y250238D01*
X356500Y250387D01*
D02*
G37*
G36*
X256500D02*
X255364Y250238D01*
X254306Y249799D01*
X253398Y249102D01*
X252701Y248194D01*
X252262Y247135D01*
X252113Y246000D01*
X252262Y244865D01*
X252701Y243806D01*
X253398Y242898D01*
X254306Y242201D01*
X255364Y241762D01*
X256500Y241613D01*
X257635Y241762D01*
X258694Y242201D01*
X259602Y242898D01*
X260299Y243806D01*
X260738Y244865D01*
X260887Y246000D01*
X260738Y247135D01*
X260299Y248194D01*
X259602Y249102D01*
X258694Y249799D01*
X257635Y250238D01*
X256500Y250387D01*
D02*
G37*
G36*
X343128Y226003D02*
X341712D01*
Y223758D01*
X346023D01*
X346020Y223783D01*
X345721Y224505D01*
X345245Y225126D01*
X344625Y225601D01*
X343903Y225901D01*
X343128Y226003D01*
D02*
G37*
G36*
X340212D02*
X338797D01*
X338022Y225901D01*
X337300Y225601D01*
X336680Y225126D01*
X336204Y224505D01*
X335905Y223783D01*
X335902Y223758D01*
X340212D01*
Y226003D01*
D02*
G37*
G36*
X356551Y226002D02*
X355726D01*
X354951Y225900D01*
X354229Y225601D01*
X353609Y225125D01*
X353133Y224505D01*
X352834Y223783D01*
X352831Y223758D01*
X356551D01*
Y226002D01*
D02*
G37*
G36*
X328374Y224256D02*
X326006D01*
Y221100D01*
X328374D01*
Y224256D01*
D02*
G37*
G36*
X322787Y225900D02*
X321600D01*
Y224516D01*
X321971D01*
X322379Y224294D01*
X322437Y224256D01*
X322437Y224161D01*
X322437Y224016D01*
Y221100D01*
X324805D01*
Y224256D01*
X323253D01*
X322845Y224478D01*
X322787Y224516D01*
X322787Y224611D01*
X322787Y224756D01*
Y225900D01*
D02*
G37*
G36*
X356551Y222258D02*
X352831D01*
X352834Y222233D01*
X353133Y221511D01*
X353609Y220891D01*
X354229Y220415D01*
X354951Y220116D01*
X355726Y220014D01*
X356551D01*
Y222258D01*
D02*
G37*
G36*
X346023Y222258D02*
X340962D01*
X335902D01*
X335905Y222234D01*
X336204Y221511D01*
X336382Y221279D01*
X336136Y220779D01*
X335435D01*
Y219390D01*
X334973Y219199D01*
X334394Y219778D01*
X334381Y219843D01*
X333895Y220571D01*
X333167Y221057D01*
X332309Y221228D01*
X331451Y221057D01*
X330723Y220571D01*
X330237Y219843D01*
X330066Y218985D01*
Y218691D01*
X330237Y217833D01*
X330723Y217105D01*
X331182Y216646D01*
X330991Y216184D01*
X329268D01*
Y215984D01*
X328313D01*
Y214000D01*
X327713D01*
Y213400D01*
X325925D01*
Y212102D01*
X325726Y211685D01*
X325726Y211684D01*
X325726Y211684D01*
Y209338D01*
X323373D01*
X323205Y209506D01*
X323196Y209553D01*
X322798Y210148D01*
X322202Y210546D01*
X321500Y210686D01*
X320798Y210546D01*
X320202Y210148D01*
X319804Y209553D01*
X319665Y208850D01*
X319804Y208148D01*
X320202Y207553D01*
X320281Y207500D01*
Y207000D01*
X320202Y206948D01*
X319804Y206353D01*
X319665Y205650D01*
X319804Y204948D01*
X320202Y204353D01*
X320798Y203955D01*
X321500Y203815D01*
X322202Y203955D01*
X322798Y204353D01*
X323196Y204948D01*
X323205Y204994D01*
X323373Y205162D01*
X325726D01*
Y202816D01*
X325726D01*
X325925Y202484D01*
Y201100D01*
X327713D01*
Y200500D01*
X328313D01*
Y198516D01*
X329268D01*
Y198315D01*
X332857D01*
X332936Y198315D01*
X333013Y198129D01*
X333143Y197815D01*
X330864Y195536D01*
X330378Y194809D01*
X330207Y193950D01*
Y181101D01*
X329854Y180747D01*
X329306Y180747D01*
X329163Y180747D01*
X328224D01*
X328106Y180771D01*
X318923D01*
X318904Y180774D01*
X318701D01*
X318233Y180681D01*
X318143Y180621D01*
X317530D01*
Y179813D01*
X317478Y179551D01*
Y176165D01*
X317530Y175902D01*
Y175071D01*
X318168D01*
X318253Y175015D01*
X318721Y174922D01*
X328106D01*
X328224Y174945D01*
X329163D01*
X329306Y174945D01*
X329723D01*
X330223Y174745D01*
Y165947D01*
X329761Y165756D01*
X329027Y166490D01*
Y168684D01*
X325052D01*
Y168484D01*
X324097D01*
Y166500D01*
Y164516D01*
X325052D01*
Y164315D01*
X326853D01*
X328028Y163140D01*
X327837Y162678D01*
X325959D01*
X325299Y162547D01*
X324740Y162173D01*
X324366Y161613D01*
X324234Y160953D01*
X324366Y160293D01*
X324582Y159969D01*
X324366Y159645D01*
X324234Y158984D01*
X324366Y158324D01*
X324702Y157820D01*
X324566Y157616D01*
X324962D01*
X325299Y157390D01*
X325960Y157259D01*
X327830D01*
Y156773D01*
X325960D01*
X325299Y156642D01*
X324962Y156416D01*
X324566D01*
X324702Y156212D01*
X324366Y155708D01*
X324278Y155267D01*
X324234Y155048D01*
X324267Y154771D01*
X324267D01*
Y151387D01*
X331392D01*
Y151541D01*
X332241D01*
X332829Y151658D01*
X332992Y151767D01*
X333491Y151499D01*
Y150528D01*
X333606Y149950D01*
X333829Y149617D01*
X333617Y149117D01*
X329027D01*
Y149685D01*
X325052D01*
Y149485D01*
X324097D01*
Y147501D01*
Y145516D01*
X325052D01*
Y145316D01*
X329027D01*
Y146042D01*
X334735D01*
Y145269D01*
X332525D01*
X331667Y145098D01*
X330939Y144612D01*
X330914Y144586D01*
X330428Y143858D01*
X330257Y143000D01*
X330428Y142142D01*
X330914Y141414D01*
X331642Y140928D01*
X332500Y140757D01*
X332628Y140782D01*
X334735D01*
Y140670D01*
X334935D01*
Y140501D01*
X338199D01*
Y139301D01*
X334935D01*
Y137720D01*
X335635D01*
X335882Y137220D01*
X335705Y136989D01*
X335405Y136267D01*
X335402Y136242D01*
X340463D01*
X345524D01*
X345520Y136267D01*
X345221Y136989D01*
X344745Y137609D01*
X344125Y138085D01*
X343536Y138329D01*
X343486Y138766D01*
X343506Y138858D01*
X343624Y138907D01*
X344021Y139172D01*
X344021Y139172D01*
X344381Y139532D01*
X344381Y139532D01*
X344646Y139929D01*
X344841Y140399D01*
X344934Y140867D01*
Y141376D01*
X344934Y141376D01*
X344841Y141845D01*
X344646Y142315D01*
X344381Y142712D01*
X344381Y142712D01*
X344021Y143072D01*
X344021Y143072D01*
X343624Y143337D01*
X343624Y143337D01*
X343154Y143532D01*
X343154Y143532D01*
X342686Y143625D01*
X342177D01*
X342177Y143625D01*
X342163Y143622D01*
X341971Y143698D01*
X341707Y143937D01*
X341663Y144033D01*
Y145788D01*
Y150149D01*
X342199Y150255D01*
X342688Y150582D01*
X343567Y151461D01*
X343894Y151950D01*
X344008Y152528D01*
Y154472D01*
X343894Y155050D01*
X343567Y155539D01*
X342688Y156418D01*
X342199Y156745D01*
X341663Y156851D01*
Y160967D01*
X342163Y161378D01*
X342177Y161375D01*
X342685D01*
X342686Y161375D01*
X343154Y161468D01*
X343624Y161663D01*
X344021Y161928D01*
X344021Y161928D01*
X344381Y162288D01*
X344381Y162288D01*
X344646Y162685D01*
X344841Y163155D01*
X344934Y163623D01*
Y164132D01*
X344934Y164132D01*
X344841Y164601D01*
X344646Y165071D01*
X344381Y165468D01*
X344381Y165468D01*
X344021Y165828D01*
X344021Y165828D01*
X343624Y166093D01*
X343624Y166093D01*
X343505Y166142D01*
X343485Y166235D01*
X343535Y166671D01*
X344125Y166915D01*
X344745Y167391D01*
X345221Y168011D01*
X345520Y168734D01*
X345523Y168758D01*
X340462D01*
X335402D01*
X335405Y168734D01*
X335704Y168011D01*
X335882Y167779D01*
X335636Y167279D01*
X334935D01*
X334709Y167685D01*
Y174945D01*
X335238D01*
Y180747D01*
X334693D01*
Y192928D01*
X334941Y193124D01*
X335435Y192903D01*
Y191220D01*
X336135D01*
X336382Y190720D01*
X336205Y190489D01*
X335906Y189767D01*
X335902Y189742D01*
X340963D01*
X346024D01*
X346020Y189767D01*
X345721Y190489D01*
X345246Y191109D01*
X344625Y191585D01*
X344036Y191829D01*
X343986Y192266D01*
X344006Y192358D01*
X344124Y192407D01*
X344521Y192672D01*
X344521Y192672D01*
X344881Y193032D01*
X344881Y193032D01*
X345146Y193429D01*
X345341Y193899D01*
X345434Y194368D01*
Y194876D01*
X345434Y194877D01*
X345341Y195345D01*
X345146Y195815D01*
X344881Y196212D01*
X344881Y196212D01*
X344521Y196572D01*
X344521Y196572D01*
X344124Y196837D01*
X344124Y196837D01*
X343654Y197032D01*
X343654Y197032D01*
X343185Y197125D01*
X342676D01*
X342676Y197125D01*
X342663Y197122D01*
X342471Y197198D01*
X342207Y197437D01*
X342163Y197533D01*
Y199288D01*
Y203748D01*
X342199Y203755D01*
X342688Y204082D01*
X343567Y204961D01*
X343894Y205450D01*
X344008Y206028D01*
Y207972D01*
X343894Y208550D01*
X343567Y209039D01*
X342688Y209918D01*
X342199Y210245D01*
X342163Y210252D01*
Y214467D01*
X342663Y214878D01*
X342676Y214875D01*
X343185D01*
X343185Y214875D01*
X343654Y214968D01*
X344124Y215163D01*
X344521Y215428D01*
X344521Y215428D01*
X344881Y215788D01*
X344881Y215788D01*
X345146Y216185D01*
X345341Y216655D01*
X345434Y217124D01*
Y217632D01*
X345434Y217633D01*
X345341Y218101D01*
X345146Y218571D01*
X344881Y218968D01*
X344881Y218968D01*
X344521Y219328D01*
X344521Y219328D01*
X344124Y219593D01*
X344124Y219593D01*
X344005Y219642D01*
X343985Y219735D01*
X344035Y220171D01*
X344625Y220415D01*
X345245Y220891D01*
X345721Y221511D01*
X346020Y222234D01*
X346023Y222258D01*
D02*
G37*
G36*
X328374Y219900D02*
X326006D01*
Y216744D01*
X328374D01*
Y219900D01*
D02*
G37*
G36*
X324805D02*
X322437D01*
Y216744D01*
X324805D01*
Y219900D01*
D02*
G37*
G36*
X327113Y215984D02*
X325925D01*
Y214600D01*
X327113D01*
Y215984D01*
D02*
G37*
G36*
X316603Y205574D02*
X314634D01*
X314516Y205550D01*
X313434D01*
Y205350D01*
X312478D01*
Y201988D01*
X311279D01*
Y205350D01*
X310323D01*
Y205550D01*
X309241D01*
X309123Y205574D01*
X307154D01*
X307036Y205550D01*
X305954D01*
Y204469D01*
X305930Y204350D01*
Y198428D01*
X304884D01*
X304415Y198335D01*
X304018Y198069D01*
X303753Y197672D01*
X303660Y197204D01*
X303660Y170000D01*
X303753Y169532D01*
X304018Y169135D01*
X304415Y168870D01*
X304884Y168777D01*
X309564Y168777D01*
X310033Y168870D01*
X310430Y169135D01*
X310695Y169532D01*
X310788Y170000D01*
X310788Y189777D01*
X315500D01*
X315554Y189787D01*
X316041Y189374D01*
Y186600D01*
X318409D01*
Y189756D01*
X316668D01*
X316650Y189778D01*
X316486Y190256D01*
X317468Y191238D01*
X317733Y191635D01*
X317826Y192103D01*
Y204350D01*
X317803Y204469D01*
Y205550D01*
X316721D01*
X316603Y205574D01*
D02*
G37*
G36*
X327113Y199900D02*
X325925D01*
Y198516D01*
X327113D01*
Y199900D01*
D02*
G37*
G36*
X356551Y191986D02*
X355726D01*
X354951Y191884D01*
X354229Y191585D01*
X353609Y191109D01*
X353133Y190489D01*
X352834Y189767D01*
X352831Y189742D01*
X356551D01*
Y191986D01*
D02*
G37*
G36*
X321978Y189756D02*
X319609D01*
Y186600D01*
X321978D01*
Y189756D01*
D02*
G37*
G36*
X356551Y188242D02*
X352831D01*
X352834Y188217D01*
X353133Y187495D01*
X353609Y186875D01*
X354229Y186399D01*
X354951Y186100D01*
X355726Y185998D01*
X356551D01*
Y188242D01*
D02*
G37*
G36*
X346024D02*
X341713D01*
Y185998D01*
X343128D01*
X343903Y186100D01*
X344625Y186399D01*
X345246Y186875D01*
X345721Y187495D01*
X346020Y188217D01*
X346024Y188242D01*
D02*
G37*
G36*
X340213D02*
X335902D01*
X335906Y188217D01*
X336205Y187495D01*
X336681Y186875D01*
X337301Y186399D01*
X338023Y186100D01*
X338798Y185998D01*
X340213D01*
Y188242D01*
D02*
G37*
G36*
X321978Y185400D02*
X319609D01*
Y182244D01*
X321978D01*
Y185400D01*
D02*
G37*
G36*
X318409D02*
X316041D01*
Y182244D01*
X318409D01*
Y185400D01*
D02*
G37*
G36*
X342628Y172503D02*
X341212D01*
Y170258D01*
X345523D01*
X345520Y170283D01*
X345221Y171005D01*
X344745Y171626D01*
X344125Y172101D01*
X343403Y172400D01*
X342628Y172503D01*
D02*
G37*
G36*
X339712D02*
X338297D01*
X337522Y172400D01*
X336800Y172101D01*
X336180Y171626D01*
X335704Y171005D01*
X335405Y170283D01*
X335402Y170258D01*
X339712D01*
Y172503D01*
D02*
G37*
G36*
X358376Y172502D02*
X357551D01*
Y170258D01*
X361271D01*
X361268Y170283D01*
X360969Y171005D01*
X360493Y171625D01*
X359873Y172101D01*
X359151Y172400D01*
X358376Y172502D01*
D02*
G37*
G36*
X356051D02*
X355226D01*
X354451Y172400D01*
X353729Y172101D01*
X353109Y171625D01*
X352633Y171005D01*
X352334Y170283D01*
X352331Y170258D01*
X356051D01*
Y172502D01*
D02*
G37*
G36*
X322897Y168484D02*
X321709D01*
Y167100D01*
X322897D01*
Y168484D01*
D02*
G37*
G36*
X356051Y168758D02*
X352331D01*
X352334Y168733D01*
X352633Y168011D01*
X353109Y167391D01*
X353729Y166915D01*
X354451Y166616D01*
X355226Y166514D01*
X356051D01*
Y168758D01*
D02*
G37*
G36*
X322897Y165900D02*
X321709D01*
Y164516D01*
X322897D01*
Y165900D01*
D02*
G37*
G36*
Y149485D02*
X321709D01*
Y148101D01*
X322897D01*
Y149485D01*
D02*
G37*
G36*
X318559Y149484D02*
X317372D01*
Y148100D01*
X318559D01*
Y149484D01*
D02*
G37*
G36*
X322897Y146901D02*
X321709D01*
Y145516D01*
X322897D01*
Y146901D01*
D02*
G37*
G36*
X318559Y146900D02*
X317372D01*
Y145516D01*
X318559D01*
Y146900D01*
D02*
G37*
G36*
X356051Y138486D02*
X355226D01*
X354451Y138384D01*
X353729Y138085D01*
X353109Y137609D01*
X352633Y136989D01*
X352334Y136267D01*
X352331Y136242D01*
X356051D01*
Y138486D01*
D02*
G37*
G36*
X361271Y134742D02*
X357551D01*
Y132498D01*
X358376D01*
X359151Y132600D01*
X359873Y132899D01*
X360493Y133375D01*
X360969Y133995D01*
X361268Y134717D01*
X361271Y134742D01*
D02*
G37*
G36*
X356051D02*
X352331D01*
X352334Y134717D01*
X352633Y133995D01*
X353109Y133375D01*
X353729Y132899D01*
X354451Y132600D01*
X355226Y132498D01*
X356051D01*
Y134742D01*
D02*
G37*
G36*
X345524D02*
X341213D01*
Y132498D01*
X342628D01*
X343403Y132600D01*
X344125Y132899D01*
X344745Y133375D01*
X345221Y133995D01*
X345520Y134717D01*
X345524Y134742D01*
D02*
G37*
G36*
X339713D02*
X335402D01*
X335405Y134717D01*
X335705Y133995D01*
X336180Y133375D01*
X336801Y132899D01*
X337523Y132600D01*
X338298Y132498D01*
X339713D01*
Y134742D01*
D02*
G37*
G36*
X355421Y126469D02*
X353447D01*
Y124100D01*
X355421D01*
Y126469D01*
D02*
G37*
G36*
X352246D02*
X350272D01*
Y124100D01*
X352246D01*
Y126469D01*
D02*
G37*
G36*
X355421Y122900D02*
X353447D01*
Y120531D01*
X355421D01*
Y122900D01*
D02*
G37*
G36*
X352246D02*
X350272D01*
Y120531D01*
X352246D01*
Y122900D01*
D02*
G37*
G36*
X348928Y126669D02*
X343379D01*
Y120332D01*
X344407D01*
Y119185D01*
X344241D01*
Y114816D01*
X347784D01*
Y114816D01*
X348038D01*
Y111019D01*
X347538Y110750D01*
X346500Y110887D01*
X345364Y110738D01*
X344306Y110299D01*
X343398Y109602D01*
X342701Y108694D01*
X342262Y107635D01*
X342113Y106500D01*
X342262Y105365D01*
X342701Y104306D01*
X343398Y103398D01*
X344306Y102701D01*
X345364Y102262D01*
X346500Y102113D01*
X347636Y102262D01*
X348694Y102701D01*
X349602Y103398D01*
X350299Y104306D01*
X350738Y105365D01*
X350887Y106500D01*
X350738Y107635D01*
X350538Y108118D01*
X350997Y108578D01*
X351373Y109141D01*
X351505Y109804D01*
Y114816D01*
X351759D01*
Y119184D01*
X348216D01*
Y119185D01*
X347975D01*
Y120332D01*
X348928D01*
Y126669D01*
D02*
G37*
G36*
X337250Y100587D02*
Y97250D01*
X340587D01*
X340543Y97583D01*
X340125Y98593D01*
X339459Y99459D01*
X338593Y100125D01*
X337583Y100543D01*
X337250Y100587D01*
D02*
G37*
G36*
X335750D02*
X335417Y100543D01*
X334407Y100125D01*
X333541Y99459D01*
X332875Y98593D01*
X332457Y97583D01*
X332413Y97250D01*
X335750D01*
Y100587D01*
D02*
G37*
G36*
X340587Y95750D02*
X337250D01*
Y92413D01*
X337583Y92457D01*
X338593Y92875D01*
X339459Y93541D01*
X340125Y94407D01*
X340543Y95417D01*
X340587Y95750D01*
D02*
G37*
G36*
X335750D02*
X332413D01*
X332457Y95417D01*
X332875Y94407D01*
X333541Y93541D01*
X334407Y92875D01*
X335417Y92457D01*
X335750Y92413D01*
Y95750D01*
D02*
G37*
G36*
X356500Y110887D02*
X355364Y110738D01*
X354306Y110299D01*
X353398Y109602D01*
X352701Y108694D01*
X352262Y107635D01*
X352113Y106500D01*
X352262Y105365D01*
X352701Y104306D01*
X353398Y103398D01*
X354257Y102739D01*
Y100261D01*
X353398Y99602D01*
X352701Y98694D01*
X352262Y97636D01*
X352113Y96500D01*
X352262Y95364D01*
X352701Y94306D01*
X353398Y93398D01*
X354306Y92701D01*
X355364Y92262D01*
X356500Y92113D01*
X357635Y92262D01*
X358694Y92701D01*
X359602Y93398D01*
X360299Y94306D01*
X360738Y95364D01*
X360887Y96500D01*
X360738Y97636D01*
X360299Y98694D01*
X359602Y99602D01*
X358743Y100261D01*
Y102739D01*
X359602Y103398D01*
X360299Y104306D01*
X360738Y105365D01*
X360887Y106500D01*
X360738Y107635D01*
X360299Y108694D01*
X359602Y109602D01*
X358694Y110299D01*
X357635Y110738D01*
X356500Y110887D01*
D02*
G37*
G36*
X346500Y100887D02*
X345364Y100738D01*
X344306Y100299D01*
X343398Y99602D01*
X342701Y98694D01*
X342262Y97636D01*
X342113Y96500D01*
X342262Y95364D01*
X342701Y94306D01*
X343398Y93398D01*
X344306Y92701D01*
X345364Y92262D01*
X346500Y92113D01*
X347636Y92262D01*
X348694Y92701D01*
X349602Y93398D01*
X350299Y94306D01*
X350738Y95364D01*
X350887Y96500D01*
X350738Y97636D01*
X350299Y98694D01*
X349602Y99602D01*
X348694Y100299D01*
X347636Y100738D01*
X346500Y100887D01*
D02*
G37*
G36*
X196500D02*
X195364Y100738D01*
X194306Y100299D01*
X193398Y99602D01*
X192701Y98694D01*
X192262Y97636D01*
X192113Y96500D01*
X192262Y95364D01*
X192701Y94306D01*
X193398Y93398D01*
X194306Y92701D01*
X195364Y92262D01*
X196500Y92113D01*
X197635Y92262D01*
X198694Y92701D01*
X199602Y93398D01*
X200299Y94306D01*
X200738Y95364D01*
X200887Y96500D01*
X200738Y97636D01*
X200299Y98694D01*
X199602Y99602D01*
X198694Y100299D01*
X197635Y100738D01*
X196500Y100887D01*
D02*
G37*
%LPD*%
G36*
X318906Y179549D02*
X318904Y179547D01*
X318856D01*
X318730Y179421D01*
X318904Y179547D01*
X328106D01*
Y176145D01*
X318721D01*
X318701Y176165D01*
Y179551D01*
X318904D01*
X318906Y179549D01*
D02*
G37*
G36*
X316603Y192103D02*
X315500Y191000D01*
X309564D01*
X309564Y170000D01*
X304884Y170000D01*
X304884Y197204D01*
X307154D01*
Y197230D01*
Y204350D01*
X309123D01*
Y197204D01*
X309564D01*
Y193533D01*
X314506D01*
Y204222D01*
X314634Y204350D01*
X316603D01*
Y192103D01*
D02*
G37*
%LPC*%
G36*
X253114Y226420D02*
X252274Y225580D01*
X253253Y224601D01*
X254092Y225441D01*
X253114Y226420D01*
D02*
G37*
G36*
X249080Y225726D02*
X248101Y224747D01*
X248940Y223908D01*
X249919Y224886D01*
X249080Y225726D01*
D02*
G37*
G36*
X162937Y212196D02*
X155063D01*
X154236Y212087D01*
X153465Y211768D01*
X152803Y211260D01*
X152295Y210598D01*
X151976Y209827D01*
X151867Y209000D01*
X151976Y208173D01*
X152295Y207402D01*
X152803Y206740D01*
X153465Y206232D01*
X154236Y205913D01*
X155063Y205804D01*
X162937D01*
X163764Y205913D01*
X164535Y206232D01*
X165197Y206740D01*
X165539Y207186D01*
X169273D01*
X169530Y207135D01*
X170232Y207275D01*
X170827Y207673D01*
X171225Y208268D01*
X171365Y208970D01*
X171225Y209673D01*
X170827Y210268D01*
X170232Y210666D01*
X169530Y210806D01*
X169273Y210755D01*
X165585D01*
X165197Y211260D01*
X164535Y211768D01*
X163764Y212087D01*
X162937Y212196D01*
D02*
G37*
G36*
Y201994D02*
X159600D01*
Y199600D01*
X165852D01*
X165829Y199775D01*
X165530Y200497D01*
X165054Y201117D01*
X164434Y201593D01*
X163712Y201892D01*
X162937Y201994D01*
D02*
G37*
G36*
X158400D02*
X155063D01*
X154288Y201892D01*
X153566Y201593D01*
X152946Y201117D01*
X152470Y200497D01*
X152171Y199775D01*
X152148Y199600D01*
X158400D01*
Y201994D01*
D02*
G37*
G36*
X165852Y198400D02*
X159600D01*
Y196006D01*
X162937D01*
X163712Y196108D01*
X164434Y196407D01*
X165054Y196883D01*
X165530Y197503D01*
X165829Y198225D01*
X165852Y198400D01*
D02*
G37*
G36*
X158400D02*
X152148D01*
X152171Y198225D01*
X152470Y197503D01*
X152946Y196883D01*
X153566Y196407D01*
X154288Y196108D01*
X155063Y196006D01*
X158400D01*
Y198400D01*
D02*
G37*
G36*
X162937Y192196D02*
X155063D01*
X154236Y192087D01*
X153465Y191768D01*
X152803Y191260D01*
X152295Y190598D01*
X151976Y189827D01*
X151867Y189000D01*
X151976Y188173D01*
X152295Y187402D01*
X152803Y186740D01*
X153465Y186232D01*
X154236Y185913D01*
X155063Y185804D01*
X162937D01*
X163764Y185913D01*
X164535Y186232D01*
X165197Y186740D01*
X165562Y187216D01*
X168500D01*
X168887Y187293D01*
X169530Y187165D01*
X170232Y187304D01*
X170827Y187702D01*
X171225Y188298D01*
X171365Y189000D01*
X171225Y189702D01*
X170827Y190298D01*
X170232Y190696D01*
X169530Y190835D01*
X168887Y190707D01*
X168500Y190784D01*
X165562D01*
X165197Y191260D01*
X164535Y191768D01*
X163764Y192087D01*
X162937Y192196D01*
D02*
G37*
G36*
X165487Y176440D02*
X157261D01*
Y166560D01*
X159590D01*
Y164538D01*
X158735Y163684D01*
X157284D01*
Y163484D01*
X156328D01*
Y161500D01*
Y159516D01*
X157284D01*
Y159315D01*
X161259D01*
Y161161D01*
X162636Y162538D01*
X162636Y162538D01*
X163022Y163116D01*
X163158Y163799D01*
Y166560D01*
X165487D01*
Y169716D01*
X169000D01*
X169137Y169743D01*
X169530Y169665D01*
X170232Y169804D01*
X170827Y170202D01*
X171225Y170798D01*
X171365Y171500D01*
X171225Y172202D01*
X170827Y172798D01*
X170232Y173196D01*
X169530Y173335D01*
X169137Y173257D01*
X169000Y173284D01*
X165487D01*
Y176440D01*
D02*
G37*
G36*
X149739D02*
X141513D01*
Y166560D01*
X149739D01*
Y169512D01*
X153500D01*
X154261Y169663D01*
X154906Y170094D01*
X155337Y170739D01*
X155488Y171500D01*
X155337Y172261D01*
X154906Y172906D01*
X154261Y173337D01*
X153500Y173488D01*
X149739D01*
Y176440D01*
D02*
G37*
G36*
X155128Y163484D02*
X153941D01*
Y162100D01*
X155128D01*
Y163484D01*
D02*
G37*
G36*
X146900D02*
X145713D01*
Y162100D01*
X146900D01*
Y163484D01*
D02*
G37*
G36*
X155128Y160900D02*
X153941D01*
Y159516D01*
X155128D01*
Y160900D01*
D02*
G37*
G36*
X146900D02*
X145713D01*
Y159516D01*
X146900D01*
Y160900D01*
D02*
G37*
G36*
Y142984D02*
X145713D01*
Y141600D01*
X146900D01*
Y142984D01*
D02*
G37*
G36*
Y140400D02*
X145713D01*
Y139016D01*
X146900D01*
Y140400D01*
D02*
G37*
G36*
X149539Y135740D02*
X146226D01*
Y131600D01*
X149539D01*
Y135740D01*
D02*
G37*
G36*
X145026D02*
X141713D01*
Y131600D01*
X145026D01*
Y135740D01*
D02*
G37*
G36*
X149539Y130400D02*
X146226D01*
Y126260D01*
X149539D01*
Y130400D01*
D02*
G37*
G36*
X145026D02*
X141713D01*
Y126260D01*
X145026D01*
Y130400D01*
D02*
G37*
G36*
X287827Y169979D02*
X286848Y169000D01*
X287688Y168160D01*
X288667Y169139D01*
X287827Y169979D01*
D02*
G37*
G36*
X286000Y168151D02*
X285021Y167173D01*
X285861Y166333D01*
X286840Y167312D01*
X286000Y168151D01*
D02*
G37*
G36*
X284580Y166726D02*
X283601Y165747D01*
X284441Y164908D01*
X285420Y165886D01*
X284580Y166726D01*
D02*
G37*
G36*
X201080Y150726D02*
X200101Y149747D01*
X200941Y148908D01*
X201920Y149886D01*
X201080Y150726D01*
D02*
G37*
G36*
X201276Y146877D02*
X200297Y145898D01*
X201137Y145058D01*
X202116Y146037D01*
X201276Y146877D01*
D02*
G37*
G36*
X213194Y138613D02*
X212215Y137634D01*
X213055Y136795D01*
X214034Y137774D01*
X213194Y138613D01*
D02*
G37*
G36*
X198294Y132078D02*
X196341Y130125D01*
X198433Y128033D01*
X200387Y129986D01*
X198294Y132078D01*
D02*
G37*
G36*
X201235Y129137D02*
X199282Y127184D01*
X201374Y125092D01*
X203327Y127045D01*
X201235Y129137D01*
D02*
G37*
%LPD*%
D10*
X313229Y144771D02*
Y147500D01*
X336500Y106500D02*
Y116500D01*
X296000Y157000D02*
Y179000D01*
X313229Y144771D02*
X315000Y143000D01*
X296000Y157000D02*
X336500Y116500D01*
X312976Y147248D02*
X313229Y147500D01*
Y147697D01*
X291500Y101500D02*
Y136135D01*
X264157Y163478D02*
X291500Y136135D01*
X226731Y131711D02*
X237500Y142479D01*
Y145500D01*
X234500Y148500D02*
X237500Y145500D01*
X232105Y148500D02*
X234500D01*
X226731Y130409D02*
Y131711D01*
X233500Y131000D02*
X233586Y130914D01*
Y129586D02*
Y130914D01*
X233564Y129564D02*
X233586Y129586D01*
X233564Y127000D02*
Y129564D01*
X226000Y124500D02*
Y129677D01*
X226731Y130409D01*
X159000Y219000D02*
X169500D01*
X233115Y216792D02*
Y216792D01*
Y216792D02*
X236500Y213407D01*
Y207000D02*
Y213407D01*
X176500Y106500D02*
Y153369D01*
X186095Y162963D02*
X204761D01*
X176500Y153369D02*
X186095Y162963D01*
X182000Y117000D02*
X186078Y121078D01*
X203578D02*
X217363Y134863D01*
X186078Y121078D02*
X203578D01*
X204761Y162963D02*
X208060Y166262D01*
X217363Y134863D02*
Y146636D01*
X174500Y116000D02*
Y153610D01*
X186390Y165500D02*
X201730D01*
X174500Y153610D02*
X186390Y165500D01*
X173000Y119000D02*
Y154408D01*
X185592Y167000D02*
X200446D01*
X173000Y154408D02*
X185592Y167000D01*
X171500Y121500D02*
Y155403D01*
X184597Y168500D01*
X199113D01*
X170000Y156070D02*
X183930Y170000D01*
X170000Y124317D02*
Y156070D01*
X183930Y170000D02*
X197878D01*
X168500Y125525D02*
Y156869D01*
X183132Y171500D02*
X196545D01*
X168500Y156869D02*
X183132Y171500D01*
X152050Y109075D02*
X168500Y125525D01*
X152050Y100950D02*
Y109075D01*
Y100950D02*
X156500Y96500D01*
X151000Y231000D02*
X163229D01*
X169648Y238500D02*
X212236Y195913D01*
X167514Y243418D02*
Y244986D01*
X161268Y236732D02*
X168632D01*
X154500Y235000D02*
X167581D01*
X209452Y193129D01*
X166500Y246000D02*
X167514Y244986D01*
X168632Y236732D02*
X210844Y194521D01*
X167514Y243418D02*
X213628Y197305D01*
X163229Y231000D02*
X205276Y188953D01*
X164500Y238500D02*
X169648D01*
X164013Y233000D02*
X206668Y190345D01*
X152000Y233000D02*
X164013D01*
X171500Y242216D02*
X215019Y198697D01*
X171500Y242216D02*
Y251000D01*
X176500Y240000D02*
X216411Y200089D01*
X176500Y240000D02*
Y246000D01*
X189000Y193497D02*
Y193500D01*
X191491Y233360D02*
X220587Y204264D01*
X191491Y233360D02*
Y250991D01*
X196500Y256000D01*
X157038Y111354D02*
X170000Y124317D01*
X161696Y101304D02*
Y111696D01*
X171746Y113246D02*
X174500Y116000D01*
X157038Y107038D02*
Y111354D01*
X161696Y111696D02*
X171500Y121500D01*
X156500Y106500D02*
X157038Y107038D01*
X166500Y112500D02*
X173000Y119000D01*
X194788Y187706D02*
X195387D01*
X199708Y183385D01*
X192247Y190247D02*
X194788Y187706D01*
X349772Y109804D02*
Y117000D01*
X346500Y106532D02*
X349772Y109804D01*
X346500Y106500D02*
Y106532D01*
X284000Y191000D02*
X296000Y179000D01*
X346210Y236494D02*
X346355Y236639D01*
Y245855D02*
X346500Y246000D01*
X313595Y220500D02*
X314000Y220905D01*
X223268Y142496D02*
X227547Y146775D01*
X223268Y141768D02*
Y142496D01*
X223000Y141500D02*
X223268Y141768D01*
X228939Y145383D02*
X228988D01*
X232105Y148500D01*
X227043Y123457D02*
X229015D01*
X226000Y124500D02*
X227043Y123457D01*
X238113Y127000D02*
X242000D01*
X242000Y127000D01*
X233564Y123457D02*
X238113D01*
X229015Y123457D02*
X229016Y123457D01*
X233564D01*
X233564Y123457D01*
X221500Y111680D02*
X227553Y117733D01*
X244737D02*
X253500Y126496D01*
X227553Y117733D02*
X244737D01*
X226500Y112363D02*
X230303Y116166D01*
X245661D02*
X260461Y130966D01*
X230303Y116166D02*
X245661D01*
X232000Y110731D02*
X235811Y114542D01*
X246640D02*
X262212Y130114D01*
X235811Y114542D02*
X246640D01*
X237038Y110538D02*
X239388Y112888D01*
X247206D02*
X264000Y129682D01*
X239388Y112888D02*
X247206D01*
X241500Y109500D02*
X243438Y111438D01*
X248438D02*
X265614Y128614D01*
X243438Y111438D02*
X248438D01*
X142003Y239997D02*
X151000Y231000D01*
X142003Y239997D02*
Y251503D01*
X146500Y256000D01*
Y238500D02*
Y246000D01*
Y238500D02*
X152000Y233000D01*
X151500Y238000D02*
Y251000D01*
X156500Y246000D02*
X156650Y245850D01*
Y241350D02*
X161268Y236732D01*
X151500Y238000D02*
X154500Y235000D01*
X156650Y241350D02*
Y245850D01*
X151500Y251000D02*
X156500Y256000D01*
X161500Y241500D02*
X164500Y238500D01*
X161500Y241500D02*
Y251000D01*
X166500Y256000D01*
X171500Y251000D02*
X176500Y256000D01*
X181500Y251000D02*
X186500Y256000D01*
X181500Y237784D02*
Y251000D01*
Y237784D02*
X217803Y201481D01*
X186500Y235568D02*
X219195Y202872D01*
X186500Y235568D02*
Y246000D01*
X196500Y231136D02*
X221979Y205656D01*
X196500Y231136D02*
Y246000D01*
X201500Y251000D02*
X206500Y256000D01*
X201500Y228919D02*
Y251000D01*
Y228919D02*
X223371Y207048D01*
X206500Y226703D02*
X224763Y208440D01*
X206500Y226703D02*
Y246000D01*
X211500Y251000D02*
X216500Y256000D01*
X211500Y224487D02*
Y251000D01*
Y224487D02*
X226155Y209832D01*
X216500Y222271D02*
X227547Y211224D01*
X216500Y222271D02*
Y246000D01*
X221500Y251000D02*
X226500Y256000D01*
X221500Y220055D02*
Y251000D01*
Y220055D02*
X228939Y212616D01*
X226500Y217839D02*
Y246000D01*
Y217839D02*
X230331Y214008D01*
X228000Y225500D02*
X236500Y234000D01*
X228000Y219123D02*
X231723Y215400D01*
X228000Y219123D02*
Y225500D01*
X236500Y234000D02*
Y246000D01*
X241500Y236500D02*
Y251000D01*
X229500Y224500D02*
X241500Y236500D01*
X236500Y256000D02*
X241500Y251000D01*
X229500Y220407D02*
Y224500D01*
Y220407D02*
X233115Y216792D01*
X277340Y191000D02*
X284000D01*
X272509Y186169D02*
X277340Y191000D01*
X294000Y155948D02*
Y178000D01*
X331500Y101500D02*
Y118448D01*
X294000Y155948D02*
X331500Y118448D01*
X311500Y101500D02*
Y127271D01*
X272509Y171830D02*
X321500Y122839D01*
X292000Y155000D02*
X326500Y120500D01*
X306500Y106500D02*
Y129487D01*
X292000Y155000D02*
Y177000D01*
X321500Y101500D02*
Y122839D01*
X269725Y169046D02*
X311500Y127271D01*
X271117Y170438D02*
X316500Y125055D01*
Y106500D02*
Y125055D01*
X326500Y106500D02*
Y120500D01*
X268333Y167654D02*
X306500Y129487D01*
X283000Y189000D02*
X294000Y178000D01*
X316500Y96500D02*
X321500Y101500D01*
X282000Y187000D02*
X292000Y177000D01*
X326500Y96500D02*
X331500Y101500D01*
X278124Y189000D02*
X283000D01*
X273901Y184777D02*
X278124Y189000D01*
X278907Y187000D02*
X282000D01*
X275293Y183385D02*
X278907Y187000D01*
X286000Y174255D02*
Y174500D01*
X283495Y171750D02*
X286000Y174255D01*
X306500Y96500D02*
X311500Y101500D01*
X283495Y171505D02*
Y171750D01*
X283356Y171366D02*
X283495Y171505D01*
X278634Y171366D02*
X283356D01*
X278500Y171500D02*
X278634Y171366D01*
X275293Y174614D02*
X275342D01*
X278456Y171500D01*
X278500D01*
X273901Y173222D02*
X279009Y168114D01*
X280108D01*
X280248Y168253D01*
X296500Y96500D02*
X301500Y101500D01*
Y131703D01*
X266941Y166262D02*
X301500Y131703D01*
X265549Y164870D02*
X296500Y133919D01*
Y106500D02*
Y133919D01*
X286500Y96500D02*
X291500Y101500D01*
X262765Y162086D02*
X286500Y138352D01*
Y106500D02*
Y138352D01*
X276500Y96500D02*
X281500Y101500D01*
Y140568D01*
X261373Y160694D02*
X281500Y140568D01*
X276500Y106500D02*
Y142784D01*
X259981Y159302D02*
X276500Y142784D01*
X221500Y101500D02*
Y111680D01*
X226500Y106500D02*
Y112363D01*
X232000Y101000D02*
Y110731D01*
X236500Y106500D02*
X237038Y107038D01*
Y110538D01*
X253919Y143094D02*
X262212Y134801D01*
Y130114D02*
Y134801D01*
X258471Y131471D02*
Y133065D01*
X253500Y126500D02*
X258471Y131471D01*
X251014Y140522D02*
X258471Y133065D01*
X247500Y146775D02*
X260461Y133813D01*
Y130966D02*
Y133813D01*
X264000Y129682D02*
Y135797D01*
X250238Y149559D02*
X264000Y135797D01*
X251630Y150951D02*
X265614Y136966D01*
Y128614D02*
Y136966D01*
X267283Y127283D02*
Y138082D01*
X246500Y106500D02*
Y106500D01*
X267283Y127283D01*
X256000Y107000D02*
Y111873D01*
X269000Y124873D02*
Y139148D01*
X256000Y111873D02*
X269000Y124873D01*
X270890Y123890D02*
Y140042D01*
X261500Y102500D02*
Y114500D01*
X270890Y123890D01*
X272656Y122656D02*
Y141060D01*
X266500Y106500D02*
Y116500D01*
X272656Y122656D01*
X274500Y121500D02*
Y142000D01*
X271537Y101537D02*
Y118537D01*
X274500Y121500D01*
X253022Y152343D02*
X267283Y138082D01*
X250238Y149559D02*
X250238D01*
X253919Y143094D02*
X253919D01*
X247454Y146775D02*
X247500D01*
X250923Y140522D02*
X251014D01*
X251253Y135253D02*
Y135260D01*
X249500Y137013D02*
X251253Y135260D01*
X249500Y137013D02*
Y139161D01*
X244670Y143991D02*
X249500Y139161D01*
X251253Y135253D02*
X253632Y132874D01*
X254460D01*
X254728Y132606D01*
X266500Y96500D02*
X271537Y101537D01*
X258590Y157911D02*
X274500Y142000D01*
X257198Y156519D02*
X272656Y141060D01*
X255806Y155127D02*
X270890Y140042D01*
X256500Y96500D02*
Y97500D01*
X261500Y102500D01*
X254414Y153735D02*
X269000Y139148D01*
X256000Y107000D02*
X256500Y106500D01*
X241500Y101500D02*
X246500Y96500D01*
X241500Y101500D02*
Y109500D01*
X248846Y148167D02*
X253919Y143094D01*
X246062Y145383D02*
X250923Y140522D01*
X232000Y101000D02*
X236500Y96500D01*
X221500Y101500D02*
X226500Y96500D01*
X253500Y126496D02*
Y126500D01*
X265946Y246000D02*
X266500D01*
X255486Y244986D02*
X256500Y246000D01*
X246500Y256000D02*
X247500D01*
X224763Y149583D02*
X234000Y158820D01*
Y159500D01*
X224763Y149559D02*
Y149583D01*
X182000Y101000D02*
X186500Y96500D01*
X182000Y101000D02*
Y117000D01*
X166500Y106500D02*
Y112500D01*
X171746Y101702D02*
Y113246D01*
X199659Y174614D02*
X199708D01*
X196545Y171500D02*
X199659Y174614D01*
X201100Y173222D02*
X201100D01*
X197878Y170000D02*
X201100Y173222D01*
X199113Y168500D02*
X202443Y171830D01*
X200446Y167000D02*
X203884Y170438D01*
X205276Y169046D02*
X205276D01*
X203884Y170438D02*
X203884D01*
X201730Y165500D02*
X205276Y169046D01*
X202443Y171830D02*
X202492D01*
X161696Y101304D02*
X166500Y96500D01*
X171746Y101702D02*
X176500Y96948D01*
Y96500D02*
Y96948D01*
X206668Y167654D02*
X206668D01*
X247500Y230000D02*
X248500Y231000D01*
X247495Y230000D02*
X247500D01*
X244747Y227253D02*
X247495Y230000D01*
X244913Y219808D02*
Y222229D01*
X241886Y216792D02*
X241897D01*
X244913Y219808D01*
X243146Y223995D02*
X244913Y222229D01*
X243146Y225646D02*
X244747Y227247D01*
X243146Y223995D02*
Y225646D01*
X244747Y227247D02*
Y227253D01*
X189000Y193497D02*
X192247Y190250D01*
Y190247D02*
Y190250D01*
D13*
X229076Y130372D02*
X229558Y130854D01*
X229076Y127037D02*
Y130372D01*
X229039Y127000D02*
X229076Y127037D01*
X229016Y127000D02*
X229039D01*
X153500Y146500D02*
Y151250D01*
X159272Y141000D02*
Y143621D01*
X158393Y144500D02*
X159272Y143621D01*
X155500Y144500D02*
X158393D01*
X153500Y146500D02*
X155500Y144500D01*
X145626Y151250D02*
X153500D01*
X145626Y171500D02*
X153500D01*
X311900Y195910D02*
Y201966D01*
X338648Y196500D02*
X338699Y196551D01*
X338268Y196120D02*
X338648Y196500D01*
X353500Y230685D02*
Y235615D01*
X349753Y236494D02*
X352621D01*
X353346Y230532D02*
X353500Y230685D01*
X352621Y236494D02*
X353500Y235615D01*
X308117Y201967D02*
X308138Y201988D01*
D20*
X320698Y177846D02*
D03*
X307199D02*
D03*
D21*
X194255Y146047D02*
D03*
X186461Y153842D02*
D03*
D22*
X190247Y158753D02*
D03*
X192752Y156247D02*
D03*
X280248Y168253D02*
D03*
X282753Y165747D02*
D03*
X199253Y149747D02*
D03*
X196748Y152253D02*
D03*
X204748Y154753D02*
D03*
X207253Y152247D02*
D03*
X283495Y171505D02*
D03*
X286000Y169000D02*
D03*
X244747Y227253D02*
D03*
X247252Y224747D02*
D03*
X202964Y146037D02*
D03*
X205469Y143532D02*
D03*
X212620Y146799D02*
D03*
X210115Y149305D02*
D03*
X211367Y137634D02*
D03*
X208862Y140140D02*
D03*
D23*
X316772Y147500D02*
D03*
X313229Y147500D02*
D03*
X346210Y236494D02*
D03*
X349753Y236494D02*
D03*
X349772Y117000D02*
D03*
X346229Y117000D02*
D03*
X317457Y226500D02*
D03*
X321000Y226500D02*
D03*
X308380Y195889D02*
D03*
X311923Y195888D02*
D03*
X155728Y161500D02*
D03*
X159271Y161500D02*
D03*
X147500Y161500D02*
D03*
X151043Y161500D02*
D03*
X323497Y166500D02*
D03*
X327040Y166500D02*
D03*
X155729Y141000D02*
D03*
X159272Y141000D02*
D03*
X331256Y214000D02*
D03*
X327713Y214000D02*
D03*
X327713Y205000D02*
D03*
X331256Y205000D02*
D03*
X331256Y200500D02*
D03*
X327713Y200500D02*
D03*
X327713Y209500D02*
D03*
X331256Y209500D02*
D03*
X327040Y147500D02*
D03*
X323497Y147501D02*
D03*
X147500Y141000D02*
D03*
X151043Y141000D02*
D03*
D24*
X313595Y220500D02*
D03*
X325406D02*
D03*
X307199Y186000D02*
D03*
X319009D02*
D03*
D25*
X315619Y213012D02*
D03*
X308138D02*
D03*
X311878Y201988D02*
D03*
X308138D02*
D03*
X315619D02*
D03*
D26*
X145626Y171500D02*
D03*
X161374D02*
D03*
Y131000D02*
D03*
X145626D02*
D03*
X161374Y151250D02*
D03*
X145626D02*
D03*
D27*
X159000Y189000D02*
D03*
Y199000D02*
D03*
Y209000D02*
D03*
Y219000D02*
D03*
D28*
X248747Y132748D02*
D03*
X251253Y135253D02*
D03*
X253253Y223753D02*
D03*
X250747Y221248D02*
D03*
X192247Y190247D02*
D03*
X194753Y192752D02*
D03*
D29*
X238113Y123457D02*
D03*
X238113Y127000D02*
D03*
X233564D02*
D03*
X233564Y123457D02*
D03*
X229016Y127000D02*
D03*
X229015Y123457D02*
D03*
D30*
X346153Y123500D02*
D03*
X352847D02*
D03*
X353346Y230532D02*
D03*
X346654D02*
D03*
D31*
X327830Y153079D02*
D03*
D32*
Y155048D02*
D03*
Y157016D02*
D03*
Y158984D02*
D03*
Y160953D02*
D03*
X308538D02*
D03*
Y158984D02*
D03*
Y157016D02*
D03*
Y155047D02*
D03*
Y153079D02*
D03*
D33*
X199708Y183385D02*
D03*
X201100Y184777D02*
D03*
X202492Y186169D02*
D03*
X203884Y187561D02*
D03*
X205276Y188953D02*
D03*
X206668Y190345D02*
D03*
X208060Y191737D02*
D03*
X209452Y193129D02*
D03*
X210844Y194521D02*
D03*
X212236Y195913D02*
D03*
X213628Y197305D02*
D03*
X215019Y198697D02*
D03*
X216411Y200089D02*
D03*
X217803Y201481D02*
D03*
X219195Y202872D02*
D03*
X220587Y204264D02*
D03*
X221979Y205656D02*
D03*
X223371Y207048D02*
D03*
X224763Y208440D02*
D03*
X226155Y209832D02*
D03*
X227547Y211224D02*
D03*
X228939Y212616D02*
D03*
X230331Y214008D02*
D03*
X231723Y215400D02*
D03*
X233115Y216792D02*
D03*
X275293Y174614D02*
D03*
X273901Y173222D02*
D03*
X272509Y171830D02*
D03*
X271117Y170438D02*
D03*
X269725Y169046D02*
D03*
X268333Y167654D02*
D03*
X266941Y166262D02*
D03*
X265549Y164870D02*
D03*
X264157Y163478D02*
D03*
X262765Y162086D02*
D03*
X261373Y160694D02*
D03*
X259981Y159302D02*
D03*
X258590Y157911D02*
D03*
X257198Y156519D02*
D03*
X255806Y155127D02*
D03*
X254414Y153735D02*
D03*
X253022Y152343D02*
D03*
X251630Y150951D02*
D03*
X250238Y149559D02*
D03*
X248846Y148167D02*
D03*
X247454Y146775D02*
D03*
X246062Y145383D02*
D03*
X244670Y143991D02*
D03*
X243278Y142599D02*
D03*
X241886Y141207D02*
D03*
D34*
Y216792D02*
D03*
X243278Y215400D02*
D03*
X244670Y214008D02*
D03*
X246062Y212616D02*
D03*
X247454Y211224D02*
D03*
X248846Y209832D02*
D03*
X250238Y208440D02*
D03*
X251630Y207048D02*
D03*
X253022Y205656D02*
D03*
X254414Y204264D02*
D03*
X255806Y202872D02*
D03*
X257198Y201481D02*
D03*
X258590Y200089D02*
D03*
X259981Y198697D02*
D03*
X261373Y197305D02*
D03*
X262765Y195913D02*
D03*
X264157Y194521D02*
D03*
X265549Y193129D02*
D03*
X266941Y191737D02*
D03*
X268333Y190345D02*
D03*
X269725Y188953D02*
D03*
X271117Y187561D02*
D03*
X272509Y186169D02*
D03*
X273901Y184777D02*
D03*
X275293Y183385D02*
D03*
X233115Y141207D02*
D03*
X231723Y142599D02*
D03*
X230331Y143991D02*
D03*
X228939Y145383D02*
D03*
X227547Y146775D02*
D03*
X226155Y148167D02*
D03*
X224763Y149559D02*
D03*
X223371Y150951D02*
D03*
X221979Y152343D02*
D03*
X220587Y153735D02*
D03*
X219195Y155127D02*
D03*
X217803Y156519D02*
D03*
X216411Y157911D02*
D03*
X215019Y159302D02*
D03*
X213628Y160694D02*
D03*
X212236Y162086D02*
D03*
X210844Y163478D02*
D03*
X209452Y164870D02*
D03*
X208060Y166262D02*
D03*
X206668Y167654D02*
D03*
X205276Y169046D02*
D03*
X203884Y170438D02*
D03*
X202492Y171830D02*
D03*
X201100Y173222D02*
D03*
X199708Y174614D02*
D03*
D35*
X195389Y135832D02*
D03*
X201235Y129986D02*
D03*
X205968Y134718D02*
D03*
X200122Y140564D02*
D03*
D58*
X338199Y145610D02*
D03*
Y147579D02*
D03*
Y149547D02*
D03*
Y151516D02*
D03*
Y153484D02*
D03*
Y155453D02*
D03*
Y157421D02*
D03*
Y159390D02*
D03*
X338699Y199110D02*
D03*
Y201079D02*
D03*
Y203047D02*
D03*
Y205016D02*
D03*
Y206984D02*
D03*
Y208953D02*
D03*
Y210921D02*
D03*
Y212890D02*
D03*
D59*
X338199Y161949D02*
D03*
Y165098D02*
D03*
Y143051D02*
D03*
Y139901D02*
D03*
X338699Y215449D02*
D03*
Y218598D02*
D03*
Y196551D02*
D03*
Y193401D02*
D03*
D60*
X332450Y177846D02*
D03*
X326518D02*
D03*
D61*
X261772Y225700D02*
X262000D01*
X260289Y223268D02*
X260752D01*
X251998Y214977D02*
X260289Y223268D01*
X251998Y213556D02*
Y214977D01*
X260752Y223268D02*
X261520Y222500D01*
X251053Y212612D02*
X251998Y213556D01*
X261520Y222500D02*
X262000D01*
X303728Y154432D02*
X304748Y155452D01*
X306148D01*
X303500Y154432D02*
X303728D01*
X250839Y214036D02*
Y215417D01*
X260101Y224679D02*
X260752D01*
X250839Y215417D02*
X260101Y224679D01*
X338388Y155142D02*
X338699Y155453D01*
X335879Y153351D02*
X338566D01*
X335000Y152472D02*
X335879Y153351D01*
X327380Y209168D02*
X327713Y209500D01*
X327380Y205333D02*
X327713Y205000D01*
X250233Y213431D02*
X250839Y214036D01*
X260752Y224679D02*
X261772Y225700D01*
X249661Y213431D02*
X250233D01*
X251053Y212039D02*
Y212612D01*
X247454Y211224D02*
X249661Y213431D01*
X248846Y209832D02*
X251053Y212039D01*
X322748Y207830D02*
X327053D01*
X327380Y205333D02*
Y206343D01*
X321500Y205650D02*
X321727D01*
Y208850D02*
X322748Y207830D01*
X327053Y206671D02*
X327380Y206343D01*
X327053Y207830D02*
X327380Y208157D01*
X321727Y205650D02*
X322748Y206671D01*
X327053D01*
X321500Y208850D02*
X321727D01*
X327380Y208157D02*
Y209168D01*
X252445Y210647D02*
X253017D01*
X258252Y216179D02*
X259273Y217200D01*
X257158Y216179D02*
X258252D01*
X253741Y212763D02*
X257158Y216179D01*
X259368Y213868D02*
X259500Y214000D01*
X253017Y210647D02*
X253741Y211371D01*
Y212763D01*
X259273Y217200D02*
X259500D01*
X253837Y209255D02*
Y209828D01*
X257868Y213868D02*
X259368D01*
X253837Y209828D02*
X254900Y210891D01*
Y210900D01*
X257868Y213868D01*
X250238Y208440D02*
X252445Y210647D01*
X251630Y207048D02*
X253837Y209255D01*
X303728Y157632D02*
X304748Y156611D01*
X306148D01*
X306553Y157016D01*
X306148Y155452D02*
X306553Y155047D01*
X303500Y157632D02*
X303728D01*
X306553Y157016D02*
X308538D01*
X306553Y155047D02*
X308538D01*
X338566Y153351D02*
X338699Y153484D01*
X338620Y153563D02*
X338699Y153484D01*
X335000Y150528D02*
X335879Y149649D01*
X338663D01*
X335000Y150528D02*
Y152472D01*
X341621Y155351D02*
X342500Y154472D01*
X338837Y155351D02*
X341621D01*
X342500Y152528D02*
Y154472D01*
X341621Y151649D02*
X342500Y152528D01*
X338989Y151649D02*
X341621D01*
X332693Y208143D02*
X335982D01*
X332554Y208005D02*
X332693Y208143D01*
X332091Y208005D02*
X332554D01*
X331764Y208332D02*
X332091Y208005D01*
X331589Y206343D02*
X332091Y206846D01*
X331764Y208332D02*
Y208992D01*
X335982Y208143D02*
X336481Y208642D01*
X333034Y206846D02*
X333173Y206984D01*
X331256Y209500D02*
X331764Y208992D01*
X332091Y206846D02*
X333034D01*
X333173Y206984D02*
X338699D01*
X336481Y208642D02*
X338388D01*
X338709Y203139D02*
X338801Y203047D01*
X335924Y203139D02*
X338709D01*
X331256Y205000D02*
X331589Y205333D01*
Y206343D01*
X338388Y208642D02*
X338699Y208953D01*
X341621Y208851D02*
X342500Y207972D01*
X338837Y208851D02*
X341621D01*
X342500Y206028D02*
Y207972D01*
X341621Y205149D02*
X342500Y206028D01*
X338989Y205149D02*
X341621D01*
X335046Y205963D02*
X335924Y206841D01*
X335046Y204018D02*
Y205963D01*
Y204018D02*
X335924Y203139D01*
X338699Y205016D02*
X338715Y205000D01*
D62*
X258000Y224554D02*
Y230000D01*
X246062Y212616D02*
X258000Y224554D01*
X248747Y132667D02*
X251728Y129687D01*
X248747Y132748D02*
Y132748D01*
X247000Y134495D02*
X248747Y132748D01*
X247000Y134495D02*
Y138877D01*
X202514Y186169D02*
X207399Y181284D01*
X192752Y156247D02*
X192767D01*
X197020Y160500D01*
X205082D01*
X192724Y156247D02*
X192752D01*
X217803Y156519D02*
Y156541D01*
X225000Y163737D01*
Y164000D01*
X204834Y149732D02*
Y149780D01*
X207253Y152199D01*
X157500Y122000D02*
X161374Y125874D01*
Y131000D01*
X159030Y208970D02*
X169530D01*
X159000Y209000D02*
X159030Y208970D01*
X159000Y189000D02*
X168500D01*
X155563D02*
X159000D01*
X182500Y196500D02*
X186500Y200500D01*
X182500Y173203D02*
Y196500D01*
X186500Y200500D02*
X190945D01*
X236500Y203000D02*
X239500D01*
X243974Y210528D02*
X246062Y212616D01*
X243974Y207474D02*
Y210528D01*
X239500Y203000D02*
X243974Y207474D01*
X151605Y111500D02*
X166884Y126779D01*
Y157587D01*
X161374Y152077D02*
X166884Y157587D01*
X182500Y173203D01*
X186500Y117500D02*
X188672Y119672D01*
X204365D02*
X218746Y134054D01*
X188672Y119672D02*
X204365D01*
X196500Y116000D02*
X198642Y118142D01*
X205191D02*
X220187Y133138D01*
X198642Y118142D02*
X205191D01*
X215000Y148999D02*
Y150931D01*
Y148999D02*
X217363Y146636D01*
X218746Y134054D02*
Y147512D01*
X217011Y149247D02*
Y150158D01*
X220587Y153735D01*
X217011Y149247D02*
X218746Y147512D01*
X220187Y147766D02*
X223371Y150951D01*
X220187Y133138D02*
Y147766D01*
X223371Y150951D02*
Y150951D01*
X190247Y158753D02*
X190247D01*
X205330Y143393D02*
X205469Y143532D01*
X205330Y139830D02*
Y143393D01*
X201193Y135693D02*
X205330Y139830D01*
X195389Y135832D02*
X195528Y135693D01*
X201193D01*
X206241Y134992D02*
X206289Y134943D01*
X206150Y135082D02*
X206241Y134992D01*
X206346Y133154D02*
Y135346D01*
X208862Y140140D02*
Y140140D01*
X205985Y137264D02*
X208862Y140140D01*
X205985Y135707D02*
Y137264D01*
Y135707D02*
X206346Y135346D01*
X209001Y143180D02*
X212620Y146799D01*
X209001Y140279D02*
Y143180D01*
X208862Y140140D02*
X209001Y140279D01*
X205469Y143532D02*
X207708Y145771D01*
Y146898D01*
X210115Y149305D01*
X196748Y152253D02*
X202995Y158500D01*
X205865D01*
X194812Y150317D02*
X196748Y152253D01*
X194812Y146604D02*
Y150317D01*
X194255Y146047D02*
X194812Y146604D01*
X190875Y154399D02*
X192724Y156247D01*
X187017Y154399D02*
X190875D01*
X186461Y153842D02*
X187017Y154399D01*
X207253Y152199D02*
Y152247D01*
X202248Y152500D02*
X204500Y154753D01*
X202000Y152500D02*
X202248D01*
X151043Y141000D02*
X151043Y141000D01*
X155728D01*
X155729Y141000D01*
Y137472D02*
Y141000D01*
Y137472D02*
X161374Y131827D01*
Y131000D02*
Y131827D01*
Y151250D02*
Y152077D01*
X143500Y111500D02*
X151605D01*
X142500Y100500D02*
X146500Y96500D01*
X142500Y100500D02*
Y110500D01*
X143500Y111500D01*
X159011Y154440D02*
X161374Y152077D01*
X155560Y154440D02*
X159011D01*
X151043Y158957D02*
X155560Y154440D01*
X151043Y158957D02*
Y161500D01*
X161374Y163799D02*
Y171500D01*
X159271Y161697D02*
X161374Y163799D01*
X159271Y161500D02*
Y161697D01*
X214500Y185148D02*
Y185297D01*
X208060Y191737D02*
X214500Y185297D01*
X161374Y171500D02*
X169000D01*
X190945Y200500D02*
X203884Y187561D01*
X191505Y196000D02*
X194753Y192752D01*
X191500Y196000D02*
X191505D01*
X202492Y186169D02*
X202514D01*
X194753Y192752D02*
Y192752D01*
X196500Y189377D02*
Y191005D01*
Y189377D02*
X201100Y184777D01*
X194753Y192752D02*
X196500Y191005D01*
X341500Y232500D02*
X343468Y230532D01*
X346654D01*
X317009Y145491D02*
X319500Y143000D01*
X316772Y147500D02*
X317009Y147263D01*
Y145491D02*
Y147263D01*
X346191Y117038D02*
X346229Y117000D01*
X346191Y117038D02*
Y123462D01*
X346153Y123500D02*
X346191Y123462D01*
X246500Y246000D02*
X246800Y245700D01*
Y241200D02*
Y245700D01*
Y241200D02*
X258000Y230000D01*
X196500Y106500D02*
Y116000D01*
X311878Y201988D02*
X311900Y201966D01*
Y195910D02*
X311923Y195888D01*
X259649Y209500D02*
X261557D01*
X253022Y205656D02*
X258865Y211500D01*
X276500Y224443D02*
Y246000D01*
X258865Y211500D02*
X261373D01*
X261557Y209500D02*
X276500Y224443D01*
X271500Y221627D02*
Y251000D01*
X261373Y211500D02*
X271500Y221627D01*
X317056Y233500D02*
X329500D01*
X271117Y187561D02*
X317056Y233500D01*
X269725Y188953D02*
X316390Y235618D01*
X324618D01*
X288691Y171691D02*
Y171692D01*
X286000Y169000D02*
X288691Y171691D01*
X286000Y169000D02*
Y169000D01*
Y168997D02*
Y169000D01*
X211500Y117511D02*
X225081Y131092D01*
X206500Y106500D02*
Y114960D01*
X223317Y131777D02*
Y134194D01*
X202000Y112728D02*
X221690Y132418D01*
X225081Y131092D02*
Y133174D01*
X202000Y101000D02*
Y112728D01*
X221690Y135351D02*
X230331Y143991D01*
X223317Y134194D02*
X231723Y142599D01*
X211500Y101500D02*
Y117511D01*
X206500Y114960D02*
X223317Y131777D01*
X225081Y133174D02*
X233115Y141207D01*
X221690Y132418D02*
Y135351D01*
X234706Y156718D02*
X236910D01*
X226155Y148167D02*
X234706Y156718D01*
X225681Y119415D02*
X243373D01*
X245000Y121042D02*
Y138071D01*
X243373Y119415D02*
X245000Y121042D01*
X216921Y110655D02*
X225681Y119415D01*
X282753Y165747D02*
Y165750D01*
X286000Y168997D01*
X216921Y106921D02*
Y110655D01*
X216500Y106500D02*
X216921Y106921D01*
X243278Y142599D02*
X247000Y138877D01*
X248747Y132667D02*
Y132748D01*
X251728Y129606D02*
Y129687D01*
X241886Y141185D02*
X245000Y138071D01*
X241886Y141185D02*
Y141207D01*
X336500Y240500D02*
Y246000D01*
X329500Y233500D02*
X336500Y240500D01*
X331500Y242500D02*
Y251000D01*
X324618Y235618D02*
X331500Y242500D01*
X326393Y245893D02*
X326500Y246000D01*
X315488Y237500D02*
X322000D01*
X326393Y241893D01*
Y245893D01*
X326500Y256000D02*
X331500Y251000D01*
X311500Y241864D02*
Y251000D01*
X265549Y193129D02*
X315505Y243085D01*
X268333Y190345D02*
X315488Y237500D01*
X266941Y191737D02*
X314704Y239500D01*
X264157Y194521D02*
X311500Y241864D01*
X315505Y243085D02*
Y245005D01*
X316500Y246000D01*
X314704Y239500D02*
X318000D01*
X321500Y243000D01*
Y251000D01*
X316500Y256000D02*
X321500Y251000D01*
X306500Y256000D02*
X311500Y251000D01*
X262765Y195913D02*
X306500Y239647D01*
Y246000D01*
X296500Y256000D02*
X301500Y251000D01*
X261373Y197305D02*
X301500Y237431D01*
Y251000D01*
X259981Y198697D02*
X296500Y235215D01*
Y246000D01*
X260433Y207500D02*
X261720D01*
X281500Y227280D02*
Y251500D01*
X261720Y207500D02*
X281500Y227280D01*
X261217Y205500D02*
X261884D01*
X286500Y230116D02*
Y246000D01*
X261884Y205500D02*
X286500Y230116D01*
X291500Y232999D02*
Y251000D01*
X258590Y200089D02*
X291500Y232999D01*
X286500Y256000D02*
X291500Y251000D01*
X257198Y201481D02*
X261217Y205500D01*
X276500Y256000D02*
X277000D01*
X281500Y251500D01*
X254414Y204264D02*
X259649Y209500D01*
X255806Y202872D02*
X260433Y207500D01*
X266500Y256000D02*
X271500Y251000D01*
X247252Y224750D02*
X251000Y228498D01*
Y228500D01*
X247252Y224747D02*
Y224750D01*
Y224412D02*
Y224747D01*
X211500Y101500D02*
X216500Y96500D01*
X202000Y101000D02*
X206500Y96500D01*
X186500Y106500D02*
Y117500D01*
X221979Y152343D02*
Y152360D01*
X228343Y158723D01*
Y158740D01*
X215000Y150931D02*
X219195Y155127D01*
X213179Y147695D02*
Y154678D01*
X212620Y147135D02*
X213179Y147695D01*
X216411Y157911D02*
Y157911D01*
X212620Y146799D02*
Y147135D01*
X213179Y154678D02*
X216411Y157911D01*
X210254Y149602D02*
X210254Y149780D01*
X210254Y149444D02*
Y149602D01*
X210115Y149463D02*
X210254Y149602D01*
X210115Y149305D02*
Y149463D01*
X211500Y150848D02*
Y155783D01*
X210254Y149602D02*
X211500Y150848D01*
Y155783D02*
X215019Y159302D01*
X205082Y160500D02*
X209452Y164870D01*
X195711Y136057D02*
X195850Y135918D01*
X195767Y134267D02*
X195907Y134128D01*
X247113Y219235D02*
Y224272D01*
X243278Y215400D02*
X247113Y219235D01*
Y224272D02*
X247252Y224412D01*
X250747Y221247D02*
Y221248D01*
X248625Y219125D02*
X250747Y221247D01*
X248625Y217963D02*
Y219125D01*
X244670Y214008D02*
X248625Y217963D01*
X210115Y149305D02*
X210254Y149444D01*
X204500Y154753D02*
X204748D01*
X207253Y152247D02*
X209000Y153995D01*
X207253Y152247D02*
Y152247D01*
X209000Y153995D02*
Y156067D01*
X213628Y160694D01*
X204748Y154753D02*
X207516Y157521D01*
X207671D02*
X212236Y162086D01*
X207516Y157521D02*
X207671D01*
X205865Y158500D02*
X210844Y163478D01*
D63*
X188608Y135135D02*
X200543Y123200D01*
X181526Y151777D02*
Y151885D01*
X186911Y160214D02*
X187088D01*
X180624Y152787D02*
X181526Y151885D01*
X187088Y160214D02*
X188526Y158776D01*
X188608Y135135D02*
Y136792D01*
X183408Y157119D02*
Y157205D01*
X213578Y140922D02*
X215439Y139061D01*
X202200Y123200D02*
X215439Y136439D01*
X180624Y152787D02*
Y154335D01*
X181109Y151359D02*
X186927Y145541D01*
X180624Y154335D02*
X183408Y157119D01*
X190247Y158753D02*
X192026D01*
X193608Y160335D02*
X193716D01*
X192026Y158753D02*
X193608Y160335D01*
X356500Y96500D02*
Y106500D01*
X338699Y218598D02*
X339270D01*
X339452Y218779D01*
Y222114D01*
X340346Y223008D01*
X340963D01*
X338699Y193401D02*
X339270D01*
X339452Y193220D01*
Y189887D02*
Y193220D01*
Y189887D02*
X340346Y188992D01*
X340963D01*
X338199Y165098D02*
X338770D01*
X338951Y165279D01*
Y168614D01*
X339846Y169508D01*
X340463D01*
X186927Y145541D02*
X187118D01*
X191217Y140614D02*
Y141483D01*
X187118Y145541D02*
X187318Y145341D01*
X187359D01*
X191217Y141483D01*
X191401Y140429D02*
X191417D01*
X191217Y140614D02*
X191401Y140429D01*
X191417Y139600D02*
Y140429D01*
X183430Y157205D02*
X186363Y160138D01*
X186835D02*
X186911Y160214D01*
X186363Y160138D02*
X186835D01*
X188078Y160214D02*
X188786D01*
X211367Y137070D02*
Y137634D01*
Y137070D02*
X213603Y134835D01*
Y134726D02*
Y134835D01*
X201557Y130211D02*
X201951D01*
X205465Y126697D01*
X205573D01*
X199253Y149747D02*
X202000Y152495D01*
Y152500D01*
X199253Y149747D02*
X202963Y146037D01*
X202964D01*
X199982Y140704D02*
X200122Y140564D01*
X199982Y140704D02*
Y142630D01*
X200122Y142769D01*
Y143195D01*
X202964Y146037D01*
X188608Y136792D02*
X191417Y139600D01*
X200543Y123200D02*
X202200D01*
X188786Y160214D02*
X190247Y158753D01*
X213578Y140922D02*
Y142578D01*
X215000Y144000D01*
X215439Y136439D02*
Y139061D01*
X332466Y164223D02*
Y177387D01*
X338174Y143026D02*
X338199Y143051D01*
X332525Y143026D02*
X338174D01*
X332500Y143000D02*
X332525Y143026D01*
X332309Y218691D02*
X335370Y215630D01*
X332309Y218691D02*
Y218985D01*
X338518Y215630D02*
X338699Y215449D01*
X335370Y215630D02*
X338518D01*
X333506Y230500D02*
X339500Y236494D01*
X333506Y230500D02*
X335003Y231997D01*
X330500Y230500D02*
X333506D01*
X338699Y196551D02*
X338880Y196732D01*
X338699Y215449D02*
X338880Y215268D01*
X326500Y230500D02*
X330500D01*
X317457Y226500D02*
Y228957D01*
X319000Y230500D02*
X326500D01*
X317457Y228957D02*
X319000Y230500D01*
X335000Y196500D02*
X338648D01*
X332450Y177846D02*
Y193950D01*
X335000Y196500D01*
X338085Y162063D02*
X338199Y161949D01*
X334626Y162063D02*
X338085D01*
X332466Y164223D02*
X334626Y162063D01*
X339500Y236494D02*
X346210D01*
X346355Y236639D02*
Y245855D01*
D64*
X327040Y166303D02*
Y166500D01*
Y166303D02*
X333952Y159390D01*
X338199D01*
X327079Y147579D02*
X327119Y147619D01*
X327040Y147540D02*
X327079Y147579D01*
X338199D01*
X327830Y155048D02*
X332047D01*
X338152Y155500D02*
X338199Y155453D01*
X332500Y155500D02*
X338152D01*
X332047Y155048D02*
X332500Y155500D01*
X332241Y153079D02*
X332646Y153484D01*
X338199D01*
X327830Y153079D02*
X332241D01*
X331256Y200500D02*
X334000D01*
X334579Y201079D01*
X338699D01*
X331256Y214000D02*
X333500D01*
X334610Y212890D01*
X338699D01*
D65*
X356801Y169508D02*
D03*
Y135492D02*
D03*
X357301Y223008D02*
D03*
Y188992D02*
D03*
D66*
X340463Y135492D02*
D03*
X340462Y169508D02*
D03*
X340963Y188992D02*
D03*
X340962Y223008D02*
D03*
D67*
X356500Y96500D02*
D03*
Y106500D02*
D03*
X346500Y96500D02*
D03*
Y106500D02*
D03*
X336500Y96500D02*
D03*
Y106500D02*
D03*
X326500Y96500D02*
D03*
Y106500D02*
D03*
X316500Y96500D02*
D03*
Y106500D02*
D03*
X306500Y96500D02*
D03*
Y106500D02*
D03*
X296500Y96500D02*
D03*
Y106500D02*
D03*
X286500Y96500D02*
D03*
Y106500D02*
D03*
X276500Y96500D02*
D03*
Y106500D02*
D03*
X266500Y96500D02*
D03*
Y106500D02*
D03*
X256500Y96500D02*
D03*
Y106500D02*
D03*
X246500Y96500D02*
D03*
Y106500D02*
D03*
X236500Y96500D02*
D03*
Y106500D02*
D03*
X226500Y96500D02*
D03*
Y106500D02*
D03*
X216500Y96500D02*
D03*
Y106500D02*
D03*
X206500Y96500D02*
D03*
Y106500D02*
D03*
X196500Y96500D02*
D03*
Y106500D02*
D03*
X186500Y96500D02*
D03*
Y106500D02*
D03*
X176500Y96500D02*
D03*
Y106500D02*
D03*
X166500Y96500D02*
D03*
Y106500D02*
D03*
X156500D02*
D03*
Y96500D02*
D03*
X146500Y106500D02*
D03*
Y96500D02*
D03*
Y246000D02*
D03*
Y256000D02*
D03*
X156500Y246000D02*
D03*
Y256000D02*
D03*
X166500D02*
D03*
Y246000D02*
D03*
X176500Y256000D02*
D03*
Y246000D02*
D03*
X186500Y256000D02*
D03*
Y246000D02*
D03*
X196500Y256000D02*
D03*
Y246000D02*
D03*
X206500Y256000D02*
D03*
Y246000D02*
D03*
X216500Y256000D02*
D03*
Y246000D02*
D03*
X226500Y256000D02*
D03*
Y246000D02*
D03*
X236500Y256000D02*
D03*
Y246000D02*
D03*
X246500Y256000D02*
D03*
Y246000D02*
D03*
X256500Y256000D02*
D03*
Y246000D02*
D03*
X266500Y256000D02*
D03*
Y246000D02*
D03*
X276500Y256000D02*
D03*
Y246000D02*
D03*
X286500Y256000D02*
D03*
Y246000D02*
D03*
X296500Y256000D02*
D03*
Y246000D02*
D03*
X306500Y256000D02*
D03*
Y246000D02*
D03*
X316500Y256000D02*
D03*
Y246000D02*
D03*
X326500Y256000D02*
D03*
Y246000D02*
D03*
X336500Y256000D02*
D03*
Y246000D02*
D03*
X346500Y256000D02*
D03*
Y246000D02*
D03*
X356500Y256000D02*
D03*
Y246000D02*
D03*
D68*
X359000Y230500D02*
D03*
X359500Y124000D02*
D03*
X298000Y198500D02*
D03*
X325500Y189500D02*
D03*
X159000Y227000D02*
D03*
X155000D02*
D03*
X151000D02*
D03*
X169500Y199000D02*
D03*
X262000Y225700D02*
D03*
Y222500D02*
D03*
X315000Y143000D02*
D03*
X303500Y154432D02*
D03*
X229500Y131000D02*
D03*
X233500D02*
D03*
X207399Y181284D02*
D03*
X188526Y158776D02*
D03*
X181526Y151777D02*
D03*
X193716Y160335D02*
D03*
X156000Y181000D02*
D03*
X152000D02*
D03*
X148500D02*
D03*
X184027Y148375D02*
D03*
X187010Y145541D02*
D03*
X192317Y131267D02*
D03*
X195781Y128054D02*
D03*
X198894Y125041D02*
D03*
X225000Y164000D02*
D03*
X204834Y149732D02*
D03*
X191293Y140429D02*
D03*
X188485Y135963D02*
D03*
X157500Y122000D02*
D03*
X169530Y208970D02*
D03*
Y189000D02*
D03*
Y219000D02*
D03*
X236500Y203000D02*
D03*
Y207000D02*
D03*
X214385Y139991D02*
D03*
X213603Y134726D02*
D03*
X209745Y130869D02*
D03*
X205573Y126697D02*
D03*
X202000Y152500D02*
D03*
X214500Y185148D02*
D03*
X169530Y171500D02*
D03*
X191500Y196000D02*
D03*
X189000Y193500D02*
D03*
X153500Y151250D02*
D03*
Y171500D02*
D03*
X332500Y165500D02*
D03*
Y143000D02*
D03*
X332309Y218985D02*
D03*
X332450Y193950D02*
D03*
X337500Y234500D02*
D03*
X341500Y232500D02*
D03*
X335000Y232000D02*
D03*
X330500Y230500D02*
D03*
X319500Y143000D02*
D03*
X307299Y172268D02*
D03*
X321500Y208850D02*
D03*
Y205650D02*
D03*
X259500Y217200D02*
D03*
Y214000D02*
D03*
X303500Y157632D02*
D03*
X326500Y230500D02*
D03*
X288691Y171692D02*
D03*
X223000Y141500D02*
D03*
X236910Y156718D02*
D03*
X242000Y127000D02*
D03*
X286000Y174500D02*
D03*
X251728Y129606D02*
D03*
X254728Y132606D02*
D03*
X251000Y228500D02*
D03*
X234000Y159500D02*
D03*
X228343Y158740D02*
D03*
X248500Y231000D02*
D03*
M02*
