G04*
G04 #@! TF.GenerationSoftware,Altium Limited,Altium Designer,20.2.6 (244)*
G04*
G04 Layer_Color=16711935*
%FSLAX25Y25*%
%MOIN*%
G70*
G04*
G04 #@! TF.SameCoordinates,FC4913F0-8007-4352-998A-4485FB7E878D*
G04*
G04*
G04 #@! TF.FilePolarity,Positive*
G04*
G01*
G75*
%ADD14C,0.00600*%
D14*
X362632Y220553D02*
G03*
X363831Y221753I0J1200D01*
G01*
X361432Y192338D02*
G03*
X362632Y191138I1200J0D01*
G01*
X363831Y189938D02*
G03*
X362632Y191138I-1200J0D01*
G01*
Y220553D02*
G03*
X361432Y219353I0J-1200D01*
G01*
X361500Y138834D02*
G03*
X362700Y137634I1200J0D01*
G01*
X363900Y136434D02*
G03*
X362700Y137634I-1200J0D01*
G01*
Y167049D02*
G03*
X361500Y165849I0J-1200D01*
G01*
X362700Y167049D02*
G03*
X363900Y168249I0J1200D01*
G01*
X145328Y262867D02*
G03*
X139422Y256962I0J-5906D01*
G01*
X363831D02*
G03*
X357926Y262867I-5906J0D01*
G01*
X357926Y89639D02*
G03*
X363831Y95545I0J5906D01*
G01*
X139422Y95545D02*
G03*
X145328Y89639I5906J0D01*
G01*
X361432Y192338D02*
Y219353D01*
X363900Y95545D02*
Y136434D01*
X361500Y138834D02*
Y165849D01*
X363831Y168249D02*
Y189938D01*
X145328Y89639D02*
X357926D01*
X139422Y95045D02*
Y256462D01*
X145328Y262867D02*
X357926D01*
X363831Y221753D02*
Y256962D01*
M02*
