G04*
G04 #@! TF.GenerationSoftware,Altium Limited,Altium Designer,20.2.6 (244)*
G04*
G04 Layer_Color=16711935*
%FSLAX25Y25*%
%MOIN*%
G70*
G04*
G04 #@! TF.SameCoordinates,FC4913F0-8007-4352-998A-4485FB7E878D*
G04*
G04*
G04 #@! TF.FilePolarity,Negative*
G04*
G01*
G75*
%ADD55O,0.07487X0.04337*%
%ADD56O,0.08668X0.04337*%
%ADD57C,0.07099*%
%ADD80C,0.03200*%
D55*
X356801Y169508D02*
D03*
Y135492D02*
D03*
X357301Y223008D02*
D03*
Y188992D02*
D03*
D56*
X340463Y135492D02*
D03*
X340462Y169508D02*
D03*
X340963Y188992D02*
D03*
X340962Y223008D02*
D03*
D57*
X356500Y96500D02*
D03*
Y106500D02*
D03*
X346500Y96500D02*
D03*
Y106500D02*
D03*
X336500Y96500D02*
D03*
Y106500D02*
D03*
X326500Y96500D02*
D03*
Y106500D02*
D03*
X316500Y96500D02*
D03*
Y106500D02*
D03*
X306500Y96500D02*
D03*
Y106500D02*
D03*
X296500Y96500D02*
D03*
Y106500D02*
D03*
X286500Y96500D02*
D03*
Y106500D02*
D03*
X276500Y96500D02*
D03*
Y106500D02*
D03*
X266500Y96500D02*
D03*
Y106500D02*
D03*
X256500Y96500D02*
D03*
Y106500D02*
D03*
X246500Y96500D02*
D03*
Y106500D02*
D03*
X236500Y96500D02*
D03*
Y106500D02*
D03*
X226500Y96500D02*
D03*
Y106500D02*
D03*
X216500Y96500D02*
D03*
Y106500D02*
D03*
X206500Y96500D02*
D03*
Y106500D02*
D03*
X196500Y96500D02*
D03*
Y106500D02*
D03*
X186500Y96500D02*
D03*
Y106500D02*
D03*
X176500Y96500D02*
D03*
Y106500D02*
D03*
X166500Y96500D02*
D03*
Y106500D02*
D03*
X156500D02*
D03*
Y96500D02*
D03*
X146500Y106500D02*
D03*
Y96500D02*
D03*
Y246000D02*
D03*
Y256000D02*
D03*
X156500Y246000D02*
D03*
Y256000D02*
D03*
X166500D02*
D03*
Y246000D02*
D03*
X176500Y256000D02*
D03*
Y246000D02*
D03*
X186500Y256000D02*
D03*
Y246000D02*
D03*
X196500Y256000D02*
D03*
Y246000D02*
D03*
X206500Y256000D02*
D03*
Y246000D02*
D03*
X216500Y256000D02*
D03*
Y246000D02*
D03*
X226500Y256000D02*
D03*
Y246000D02*
D03*
X236500Y256000D02*
D03*
Y246000D02*
D03*
X246500Y256000D02*
D03*
Y246000D02*
D03*
X256500Y256000D02*
D03*
Y246000D02*
D03*
X266500Y256000D02*
D03*
Y246000D02*
D03*
X276500Y256000D02*
D03*
Y246000D02*
D03*
X286500Y256000D02*
D03*
Y246000D02*
D03*
X296500Y256000D02*
D03*
Y246000D02*
D03*
X306500Y256000D02*
D03*
Y246000D02*
D03*
X316500Y256000D02*
D03*
Y246000D02*
D03*
X326500Y256000D02*
D03*
Y246000D02*
D03*
X336500Y256000D02*
D03*
Y246000D02*
D03*
X346500Y256000D02*
D03*
Y246000D02*
D03*
X356500Y256000D02*
D03*
Y246000D02*
D03*
D80*
X359000Y230500D02*
D03*
X359500Y124000D02*
D03*
X298000Y198500D02*
D03*
X325500Y189500D02*
D03*
X159000Y227000D02*
D03*
X155000D02*
D03*
X151000D02*
D03*
X169500Y199000D02*
D03*
X262000Y225700D02*
D03*
Y222500D02*
D03*
X315000Y143000D02*
D03*
X303500Y154432D02*
D03*
X229500Y131000D02*
D03*
X233500D02*
D03*
X207399Y181284D02*
D03*
X188526Y158776D02*
D03*
X181526Y151777D02*
D03*
X193716Y160335D02*
D03*
X156000Y181000D02*
D03*
X152000D02*
D03*
X148500D02*
D03*
X184027Y148375D02*
D03*
X187010Y145541D02*
D03*
X192317Y131267D02*
D03*
X195781Y128054D02*
D03*
X198894Y125041D02*
D03*
X225000Y164000D02*
D03*
X204834Y149732D02*
D03*
X191293Y140429D02*
D03*
X188485Y135963D02*
D03*
X157500Y122000D02*
D03*
X169530Y208970D02*
D03*
Y189000D02*
D03*
Y219000D02*
D03*
X236500Y203000D02*
D03*
Y207000D02*
D03*
X214385Y139991D02*
D03*
X213603Y134726D02*
D03*
X209745Y130869D02*
D03*
X205573Y126697D02*
D03*
X202000Y152500D02*
D03*
X214500Y185148D02*
D03*
X169530Y171500D02*
D03*
X191500Y196000D02*
D03*
X189000Y193500D02*
D03*
X153500Y151250D02*
D03*
Y171500D02*
D03*
X332500Y165500D02*
D03*
Y143000D02*
D03*
X332309Y218985D02*
D03*
X332450Y193950D02*
D03*
X337500Y234500D02*
D03*
X341500Y232500D02*
D03*
X335000Y232000D02*
D03*
X330500Y230500D02*
D03*
X319500Y143000D02*
D03*
X307299Y172268D02*
D03*
X321500Y208850D02*
D03*
Y205650D02*
D03*
X259500Y217200D02*
D03*
Y214000D02*
D03*
X303500Y157632D02*
D03*
X326500Y230500D02*
D03*
X288691Y171692D02*
D03*
X223000Y141500D02*
D03*
X236910Y156718D02*
D03*
X242000Y127000D02*
D03*
X286000Y174500D02*
D03*
X251728Y129606D02*
D03*
X254728Y132606D02*
D03*
X251000Y228500D02*
D03*
X234000Y159500D02*
D03*
X228343Y158740D02*
D03*
X248500Y231000D02*
D03*
M02*
