G04*
G04 #@! TF.GenerationSoftware,Altium Limited,Altium Designer,20.2.6 (244)*
G04*
G04 Layer_Color=8388736*
%FSLAX25Y25*%
%MOIN*%
G70*
G04*
G04 #@! TF.SameCoordinates,BD9F10C3-12C2-414E-BCE1-0B8FED7F425F*
G04*
G04*
G04 #@! TF.FilePolarity,Negative*
G04*
G01*
G75*
%ADD36R,0.04928X0.01581*%
%ADD37R,0.04928X0.02762*%
%ADD38R,0.03575X0.03802*%
%ADD39O,0.07487X0.04337*%
%ADD40O,0.08668X0.04337*%
D36*
X338199Y145610D02*
D03*
Y147579D02*
D03*
Y149547D02*
D03*
Y151516D02*
D03*
Y153484D02*
D03*
Y155453D02*
D03*
Y157421D02*
D03*
Y159390D02*
D03*
X338699Y199110D02*
D03*
Y201079D02*
D03*
Y203047D02*
D03*
Y205016D02*
D03*
Y206984D02*
D03*
Y208953D02*
D03*
Y210921D02*
D03*
Y212890D02*
D03*
D37*
X338199Y161949D02*
D03*
Y165098D02*
D03*
Y143051D02*
D03*
Y139901D02*
D03*
X338699Y215449D02*
D03*
Y218598D02*
D03*
Y196551D02*
D03*
Y193401D02*
D03*
D38*
X332450Y177846D02*
D03*
X326518D02*
D03*
D39*
X356801Y169508D02*
D03*
Y135492D02*
D03*
X357301Y223008D02*
D03*
Y188992D02*
D03*
D40*
X340463Y135492D02*
D03*
X340462Y169508D02*
D03*
X340963Y188992D02*
D03*
X340962Y223008D02*
D03*
M02*
