M48
;Layer_Color=9474304
;FILE_FORMAT=2:5
INCH,TZ
;TYPE=PLATED
T1F00S00C0.01200
T3F00S00C0.03543
%
T01
X153500Y151250
X181526Y151777
X184027Y148375
X187010Y145541
X191293Y140429
X188485Y135963
X192317Y131267
X195781Y128054
X198894Y125041
X205573Y126697
X209745Y130869
X213603Y134726
X214385Y139991
X223000Y141500
X229500Y131000
X233500
X242000Y127000
X251728Y129606
X254728Y132606
X204834Y149732
X202000Y152500
X157500Y122000
X303500Y154432
X315000Y143000
X319500
X332500
Y165500
X332450Y193950
X321500Y205650
Y208850
X332309Y218985
X330500Y230500
X326500
X335000Y232000
X337500Y234500
X341500Y232500
X262000Y225700
Y222500
X259500Y217200
Y214000
X251000Y228500
X248500Y231000
X236500Y207000
Y203000
X214500Y185148
X207399Y181284
X191500Y196000
X189000Y193500
X169530Y189000
Y171500
X188526Y158776
X193716Y160335
X225000Y164000
X228343Y158740
X234000Y159500
X236910Y156718
X288691Y171692
X286000Y174500
X307299Y172268
X303500Y157632
X169530Y208970
Y219000
X156000Y181000
X152000
X148500
X153500Y171500
T03
X146500Y96500
Y106500
X156500
X166500
X176500
X186500
X196500
X206500
X216500
X226500
X236500
X246500
X256500
X266500
X276500
X286500
X296500
X306500
Y96500
X296500
X286500
X276500
X266500
X256500
X246500
X236500
X226500
X216500
X206500
X196500
X186500
X176500
X166500
X156500
X316500
X326500
X336500
X346500
X356500
Y106500
X346500
X336500
X326500
X316500
Y246000
Y256000
X326500
Y246000
X336500
Y256000
X346500
Y246000
X356500
Y256000
X306500
X296500
X286500
X276500
X266500
X256500
X246500
X236500
X226500
X216500
X206500
X196500
X186500
X176500
X166500
X156500
Y246000
X166500
X176500
X186500
X196500
X206500
X216500
X226500
X236500
X246500
X256500
X266500
X276500
X286500
X296500
X306500
X146500
Y256000
M30
