G04*
G04 #@! TF.GenerationSoftware,Altium Limited,Altium Designer,20.2.6 (244)*
G04*
G04 Layer_Color=255*
%FSLAX25Y25*%
%MOIN*%
G70*
G04*
G04 #@! TF.SameCoordinates,BD9F10C3-12C2-414E-BCE1-0B8FED7F425F*
G04*
G04*
G04 #@! TF.FilePolarity,Positive*
G04*
G01*
G75*
G04:AMPARAMS|DCode=20|XSize=62.99mil|YSize=47.24mil|CornerRadius=0mil|HoleSize=0mil|Usage=FLASHONLY|Rotation=225.000|XOffset=0mil|YOffset=0mil|HoleType=Round|Shape=Rectangle|*
%AMROTATEDRECTD20*
4,1,4,0.00557,0.03897,0.03897,0.00557,-0.00557,-0.03897,-0.03897,-0.00557,0.00557,0.03897,0.0*
%
%ADD20ROTATEDRECTD20*%

G04:AMPARAMS|DCode=21|XSize=15.75mil|YSize=19.68mil|CornerRadius=0mil|HoleSize=0mil|Usage=FLASHONLY|Rotation=315.000|XOffset=0mil|YOffset=0mil|HoleType=Round|Shape=Rectangle|*
%AMROTATEDRECTD21*
4,1,4,-0.01253,-0.00139,0.00139,0.01253,0.01253,0.00139,-0.00139,-0.01253,-0.01253,-0.00139,0.0*
%
%ADD21ROTATEDRECTD21*%

%ADD22R,0.01575X0.01968*%
%ADD23R,0.03937X0.05512*%
%ADD24R,0.01968X0.04724*%
%ADD25R,0.03937X0.03150*%
%ADD26R,0.05827X0.07480*%
%ADD27O,0.11811X0.03937*%
G04:AMPARAMS|DCode=28|XSize=15.75mil|YSize=19.68mil|CornerRadius=0mil|HoleSize=0mil|Usage=FLASHONLY|Rotation=225.000|XOffset=0mil|YOffset=0mil|HoleType=Round|Shape=Rectangle|*
%AMROTATEDRECTD28*
4,1,4,-0.00139,0.01253,0.01253,-0.00139,0.00139,-0.01253,-0.01253,0.00139,-0.00139,0.01253,0.0*
%
%ADD28ROTATEDRECTD28*%

%ADD29R,0.01968X0.01575*%
%ADD30R,0.03150X0.03937*%
%ADD31R,0.04724X0.00984*%
%ADD32O,0.04724X0.00984*%
G04:AMPARAMS|DCode=33|XSize=11.81mil|YSize=70.87mil|CornerRadius=0mil|HoleSize=0mil|Usage=FLASHONLY|Rotation=45.000|XOffset=0mil|YOffset=0mil|HoleType=Round|Shape=Round|*
%AMOVALD33*
21,1,0.05906,0.01181,0.00000,0.00000,135.0*
1,1,0.01181,0.02088,-0.02088*
1,1,0.01181,-0.02088,0.02088*
%
%ADD33OVALD33*%

G04:AMPARAMS|DCode=34|XSize=11.81mil|YSize=70.87mil|CornerRadius=0mil|HoleSize=0mil|Usage=FLASHONLY|Rotation=135.000|XOffset=0mil|YOffset=0mil|HoleType=Round|Shape=Round|*
%AMOVALD34*
21,1,0.05906,0.01181,0.00000,0.00000,225.0*
1,1,0.01181,0.02088,0.02088*
1,1,0.01181,-0.02088,-0.02088*
%
%ADD34OVALD34*%

G04:AMPARAMS|DCode=35|XSize=51.18mil|YSize=47.24mil|CornerRadius=0mil|HoleSize=0mil|Usage=FLASHONLY|Rotation=135.000|XOffset=0mil|YOffset=0mil|HoleType=Round|Shape=Rectangle|*
%AMROTATEDRECTD35*
4,1,4,0.03480,-0.00139,0.00139,-0.03480,-0.03480,0.00139,-0.00139,0.03480,0.03480,-0.00139,0.0*
%
%ADD35ROTATEDRECTD35*%

%ADD41R,0.04528X0.01181*%
%ADD42R,0.04528X0.02362*%
%ADD43R,0.03175X0.03402*%
%ADD48O,0.07087X0.03937*%
%ADD49O,0.08268X0.03937*%
%ADD50C,0.06299*%
D20*
X194255Y146047D02*
D03*
X186461Y153842D02*
D03*
D21*
X190247Y158753D02*
D03*
X192752Y156247D02*
D03*
X280248Y168253D02*
D03*
X282753Y165747D02*
D03*
X199253Y149747D02*
D03*
X196748Y152253D02*
D03*
X204748Y154753D02*
D03*
X207253Y152247D02*
D03*
X283495Y171505D02*
D03*
X286000Y169000D02*
D03*
X244747Y227253D02*
D03*
X247252Y224747D02*
D03*
X202964Y146037D02*
D03*
X205469Y143532D02*
D03*
X212620Y146799D02*
D03*
X210115Y149305D02*
D03*
X211367Y137634D02*
D03*
X208862Y140140D02*
D03*
D22*
X316772Y147500D02*
D03*
X313229Y147500D02*
D03*
X346210Y236494D02*
D03*
X349753Y236494D02*
D03*
X349772Y117000D02*
D03*
X346229Y117000D02*
D03*
X317457Y226500D02*
D03*
X321000Y226500D02*
D03*
X308380Y195889D02*
D03*
X311923Y195888D02*
D03*
X155728Y161500D02*
D03*
X159271Y161500D02*
D03*
X147500Y161500D02*
D03*
X151043Y161500D02*
D03*
X323497Y166500D02*
D03*
X327040Y166500D02*
D03*
X155729Y141000D02*
D03*
X159272Y141000D02*
D03*
X331256Y214000D02*
D03*
X327713Y214000D02*
D03*
X327713Y205000D02*
D03*
X331256Y205000D02*
D03*
X331256Y200500D02*
D03*
X327713Y200500D02*
D03*
X327713Y209500D02*
D03*
X331256Y209500D02*
D03*
X327040Y147500D02*
D03*
X323497Y147501D02*
D03*
X147500Y141000D02*
D03*
X151043Y141000D02*
D03*
D23*
X313595Y220500D02*
D03*
X325406D02*
D03*
X307199Y186000D02*
D03*
X319009D02*
D03*
D24*
X315619Y213012D02*
D03*
X308138D02*
D03*
X311878Y201988D02*
D03*
X308138D02*
D03*
X315619D02*
D03*
D25*
X307199Y177846D02*
D03*
X320698D02*
D03*
D26*
X145626Y171500D02*
D03*
X161374D02*
D03*
Y131000D02*
D03*
X145626D02*
D03*
X161374Y151250D02*
D03*
X145626D02*
D03*
D27*
X159000Y189000D02*
D03*
Y199000D02*
D03*
Y209000D02*
D03*
Y219000D02*
D03*
D28*
X248747Y132748D02*
D03*
X251253Y135253D02*
D03*
X253253Y223753D02*
D03*
X250747Y221248D02*
D03*
X192247Y190247D02*
D03*
X194753Y192752D02*
D03*
D29*
X238113Y123457D02*
D03*
X238113Y127000D02*
D03*
X233564D02*
D03*
X233564Y123457D02*
D03*
X229016Y127000D02*
D03*
X229015Y123457D02*
D03*
D30*
X346153Y123500D02*
D03*
X352847D02*
D03*
X353346Y230532D02*
D03*
X346654D02*
D03*
D31*
X327830Y153079D02*
D03*
D32*
Y155048D02*
D03*
Y157016D02*
D03*
Y158984D02*
D03*
Y160953D02*
D03*
X308538D02*
D03*
Y158984D02*
D03*
Y157016D02*
D03*
Y155047D02*
D03*
Y153079D02*
D03*
D33*
X199708Y183385D02*
D03*
X201100Y184777D02*
D03*
X202492Y186169D02*
D03*
X203884Y187561D02*
D03*
X205276Y188953D02*
D03*
X206668Y190345D02*
D03*
X208060Y191737D02*
D03*
X209452Y193129D02*
D03*
X210844Y194521D02*
D03*
X212236Y195913D02*
D03*
X213628Y197305D02*
D03*
X215019Y198697D02*
D03*
X216411Y200089D02*
D03*
X217803Y201481D02*
D03*
X219195Y202872D02*
D03*
X220587Y204264D02*
D03*
X221979Y205656D02*
D03*
X223371Y207048D02*
D03*
X224763Y208440D02*
D03*
X226155Y209832D02*
D03*
X227547Y211224D02*
D03*
X228939Y212616D02*
D03*
X230331Y214008D02*
D03*
X231723Y215400D02*
D03*
X233115Y216792D02*
D03*
X275293Y174614D02*
D03*
X273901Y173222D02*
D03*
X272509Y171830D02*
D03*
X271117Y170438D02*
D03*
X269725Y169046D02*
D03*
X268333Y167654D02*
D03*
X266941Y166262D02*
D03*
X265549Y164870D02*
D03*
X264157Y163478D02*
D03*
X262765Y162086D02*
D03*
X261373Y160694D02*
D03*
X259981Y159302D02*
D03*
X258590Y157911D02*
D03*
X257198Y156519D02*
D03*
X255806Y155127D02*
D03*
X254414Y153735D02*
D03*
X253022Y152343D02*
D03*
X251630Y150951D02*
D03*
X250238Y149559D02*
D03*
X248846Y148167D02*
D03*
X247454Y146775D02*
D03*
X246062Y145383D02*
D03*
X244670Y143991D02*
D03*
X243278Y142599D02*
D03*
X241886Y141207D02*
D03*
D34*
Y216792D02*
D03*
X243278Y215400D02*
D03*
X244670Y214008D02*
D03*
X246062Y212616D02*
D03*
X247454Y211224D02*
D03*
X248846Y209832D02*
D03*
X250238Y208440D02*
D03*
X251630Y207048D02*
D03*
X253022Y205656D02*
D03*
X254414Y204264D02*
D03*
X255806Y202872D02*
D03*
X257198Y201481D02*
D03*
X258590Y200089D02*
D03*
X259981Y198697D02*
D03*
X261373Y197305D02*
D03*
X262765Y195913D02*
D03*
X264157Y194521D02*
D03*
X265549Y193129D02*
D03*
X266941Y191737D02*
D03*
X268333Y190345D02*
D03*
X269725Y188953D02*
D03*
X271117Y187561D02*
D03*
X272509Y186169D02*
D03*
X273901Y184777D02*
D03*
X275293Y183385D02*
D03*
X233115Y141207D02*
D03*
X231723Y142599D02*
D03*
X230331Y143991D02*
D03*
X228939Y145383D02*
D03*
X227547Y146775D02*
D03*
X226155Y148167D02*
D03*
X224763Y149559D02*
D03*
X223371Y150951D02*
D03*
X221979Y152343D02*
D03*
X220587Y153735D02*
D03*
X219195Y155127D02*
D03*
X217803Y156519D02*
D03*
X216411Y157911D02*
D03*
X215019Y159302D02*
D03*
X213628Y160694D02*
D03*
X212236Y162086D02*
D03*
X210844Y163478D02*
D03*
X209452Y164870D02*
D03*
X208060Y166262D02*
D03*
X206668Y167654D02*
D03*
X205276Y169046D02*
D03*
X203884Y170438D02*
D03*
X202492Y171830D02*
D03*
X201100Y173222D02*
D03*
X199708Y174614D02*
D03*
D35*
X195389Y135832D02*
D03*
X201235Y129986D02*
D03*
X205968Y134718D02*
D03*
X200122Y140564D02*
D03*
D41*
X338199Y145610D02*
D03*
Y147579D02*
D03*
Y149547D02*
D03*
Y151516D02*
D03*
Y153484D02*
D03*
Y155453D02*
D03*
Y157421D02*
D03*
Y159390D02*
D03*
X338699Y199110D02*
D03*
Y201079D02*
D03*
Y203047D02*
D03*
Y205016D02*
D03*
Y206984D02*
D03*
Y208953D02*
D03*
Y210921D02*
D03*
Y212890D02*
D03*
D42*
X338199Y161949D02*
D03*
Y165098D02*
D03*
Y143051D02*
D03*
Y139901D02*
D03*
X338699Y215449D02*
D03*
Y218598D02*
D03*
Y196551D02*
D03*
Y193401D02*
D03*
D43*
X332450Y177846D02*
D03*
X326518D02*
D03*
D48*
X356801Y169508D02*
D03*
Y135492D02*
D03*
X357301Y223008D02*
D03*
Y188992D02*
D03*
D49*
X340463Y135492D02*
D03*
X340462Y169508D02*
D03*
X340963Y188992D02*
D03*
X340962Y223008D02*
D03*
D50*
X356500Y96500D02*
D03*
Y106500D02*
D03*
X346500Y96500D02*
D03*
Y106500D02*
D03*
X336500Y96500D02*
D03*
Y106500D02*
D03*
X326500Y96500D02*
D03*
Y106500D02*
D03*
X316500Y96500D02*
D03*
Y106500D02*
D03*
X306500Y96500D02*
D03*
Y106500D02*
D03*
X296500Y96500D02*
D03*
Y106500D02*
D03*
X286500Y96500D02*
D03*
Y106500D02*
D03*
X276500Y96500D02*
D03*
Y106500D02*
D03*
X266500Y96500D02*
D03*
Y106500D02*
D03*
X256500Y96500D02*
D03*
Y106500D02*
D03*
X246500Y96500D02*
D03*
Y106500D02*
D03*
X236500Y96500D02*
D03*
Y106500D02*
D03*
X226500Y96500D02*
D03*
Y106500D02*
D03*
X216500Y96500D02*
D03*
Y106500D02*
D03*
X206500Y96500D02*
D03*
Y106500D02*
D03*
X196500Y96500D02*
D03*
Y106500D02*
D03*
X186500Y96500D02*
D03*
Y106500D02*
D03*
X176500Y96500D02*
D03*
Y106500D02*
D03*
X166500Y96500D02*
D03*
Y106500D02*
D03*
X156500D02*
D03*
Y96500D02*
D03*
X146500Y106500D02*
D03*
Y96500D02*
D03*
Y246000D02*
D03*
Y256000D02*
D03*
X156500Y246000D02*
D03*
Y256000D02*
D03*
X166500D02*
D03*
Y246000D02*
D03*
X176500Y256000D02*
D03*
Y246000D02*
D03*
X186500Y256000D02*
D03*
Y246000D02*
D03*
X196500Y256000D02*
D03*
Y246000D02*
D03*
X206500Y256000D02*
D03*
Y246000D02*
D03*
X216500Y256000D02*
D03*
Y246000D02*
D03*
X226500Y256000D02*
D03*
Y246000D02*
D03*
X236500Y256000D02*
D03*
Y246000D02*
D03*
X246500Y256000D02*
D03*
Y246000D02*
D03*
X256500Y256000D02*
D03*
Y246000D02*
D03*
X266500Y256000D02*
D03*
Y246000D02*
D03*
X276500Y256000D02*
D03*
Y246000D02*
D03*
X286500Y256000D02*
D03*
Y246000D02*
D03*
X296500Y256000D02*
D03*
Y246000D02*
D03*
X306500Y256000D02*
D03*
Y246000D02*
D03*
X316500Y256000D02*
D03*
Y246000D02*
D03*
X326500Y256000D02*
D03*
Y246000D02*
D03*
X336500Y256000D02*
D03*
Y246000D02*
D03*
X346500Y256000D02*
D03*
Y246000D02*
D03*
X356500Y256000D02*
D03*
Y246000D02*
D03*
M02*
